<svg width="373" height="56" viewBox="0 0 373 56" fill="none" xmlns="http://www.w3.org/2000/svg">
<rect width="56" height="56" fill="#0000FF"/>
<path d="M89.816 16.24L93.128 22H88.872L86.728 17.952H85.672V22H81.896V10.8H85.672V14.976H86.824L89.208 10.8H93.144L89.816 16.24ZM104.002 13.248V22H100.386V16.064H98.7384L98.6904 17.2C98.6477 18.3307 98.5304 19.2587 98.3384 19.984C98.1464 20.7093 97.8264 21.2693 97.3784 21.664C96.941 22.048 96.3384 22.24 95.5704 22.24C95.0904 22.24 94.5304 22.16 93.8904 22L94.0344 19.072C94.205 19.0933 94.3277 19.104 94.4024 19.104C94.8397 19.104 95.1277 18.9493 95.2664 18.64C95.405 18.32 95.4904 17.792 95.5224 17.056L95.6504 13.248H104.002ZM106.183 13.248H109.783V17.2L112.807 13.248H116.135V22H112.535V18.032L109.527 22H106.183V13.248ZM127.504 17.616C127.504 17.6693 127.488 17.952 127.456 18.464H121.376C121.504 18.7947 121.717 19.0507 122.016 19.232C122.314 19.4027 122.688 19.488 123.136 19.488C123.52 19.488 123.84 19.44 124.096 19.344C124.362 19.248 124.65 19.0827 124.96 18.848L126.848 20.752C125.994 21.6907 124.72 22.16 123.024 22.16C121.968 22.16 121.04 21.968 120.24 21.584C119.44 21.1893 118.821 20.6453 118.384 19.952C117.946 19.2587 117.728 18.48 117.728 17.616C117.728 16.7413 117.941 15.9627 118.368 15.28C118.805 14.5867 119.397 14.048 120.144 13.664C120.901 13.28 121.749 13.088 122.688 13.088C123.573 13.088 124.378 13.264 125.104 13.616C125.84 13.968 126.421 14.4853 126.848 15.168C127.285 15.8507 127.504 16.6667 127.504 17.616ZM122.72 15.552C122.346 15.552 122.037 15.6533 121.792 15.856C121.546 16.0587 121.386 16.3467 121.312 16.72H124.128C124.053 16.3573 123.893 16.0747 123.648 15.872C123.402 15.6587 123.093 15.552 122.72 15.552ZM129.284 13.248H132.884V16.32H135.348V13.248H138.948V22H135.348V19.152H132.884V22H129.284V13.248ZM149.411 16.064H146.739V22H143.139V16.064H140.467V13.248H149.411V16.064ZM155.211 22.16C154.219 22.16 153.328 21.968 152.539 21.584C151.76 21.2 151.147 20.6613 150.699 19.968C150.261 19.2747 150.043 18.4907 150.043 17.616C150.043 16.7413 150.261 15.9627 150.699 15.28C151.147 14.5867 151.76 14.048 152.539 13.664C153.328 13.28 154.219 13.088 155.211 13.088C156.277 13.088 157.189 13.3173 157.947 13.776C158.704 14.2347 159.227 14.8693 159.515 15.68L156.715 17.056C156.373 16.288 155.867 15.904 155.195 15.904C154.768 15.904 154.411 16.0533 154.123 16.352C153.845 16.6507 153.707 17.072 153.707 17.616C153.707 18.1707 153.845 18.5973 154.123 18.896C154.411 19.1947 154.768 19.344 155.195 19.344C155.867 19.344 156.373 18.96 156.715 18.192L159.515 19.568C159.227 20.3787 158.704 21.0133 157.947 21.472C157.189 21.9307 156.277 22.16 155.211 22.16ZM165.293 19.088H164.605V22H160.989V13.248H164.605V16.32H165.389L167.309 13.248H171.117L168.301 17.44L171.293 22H167.037L165.293 19.088ZM172.579 13.248H176.179V17.2L179.203 13.248H182.531V22H178.931V18.032L175.923 22H172.579V13.248ZM184.699 13.248H188.299V17.2L191.323 13.248H194.651V22H191.051V18.032L188.043 22H184.699V13.248ZM189.435 12.528C188.326 12.528 187.515 12.304 187.003 11.856C186.491 11.3973 186.235 10.688 186.235 9.728H188.555C188.555 10.08 188.614 10.3467 188.731 10.528C188.859 10.6987 189.089 10.784 189.419 10.784C190.017 10.784 190.315 10.432 190.315 9.728H192.667C192.667 10.688 192.406 11.3973 191.883 11.856C191.371 12.304 190.555 12.528 189.435 12.528ZM212.977 19.168V23.728H209.633V22H204.801V23.728H201.457V19.168H201.713C202.225 19.168 202.582 18.928 202.785 18.448C202.987 17.9573 203.105 17.2533 203.137 16.336L203.249 13.248H211.809V19.168H212.977ZM206.385 16.608C206.363 17.28 206.315 17.8133 206.241 18.208C206.177 18.592 206.043 18.912 205.841 19.168H208.209V16.064H206.401L206.385 16.608ZM219.026 22.16C218.056 22.16 217.181 21.968 216.402 21.584C215.634 21.1893 215.032 20.6507 214.594 19.968C214.157 19.2747 213.938 18.4907 213.938 17.616C213.938 16.7413 214.157 15.9627 214.594 15.28C215.032 14.5867 215.634 14.048 216.402 13.664C217.181 13.28 218.056 13.088 219.026 13.088C220.008 13.088 220.882 13.28 221.65 13.664C222.429 14.048 223.032 14.5867 223.458 15.28C223.896 15.9627 224.114 16.7413 224.114 17.616C224.114 18.4907 223.896 19.2747 223.458 19.968C223.032 20.6507 222.429 21.1893 221.65 21.584C220.882 21.968 220.008 22.16 219.026 22.16ZM219.026 19.344C219.442 19.344 219.784 19.1947 220.05 18.896C220.317 18.5867 220.45 18.16 220.45 17.616C220.45 17.072 220.317 16.6507 220.05 16.352C219.784 16.0533 219.442 15.904 219.026 15.904C218.61 15.904 218.269 16.0533 218.002 16.352C217.736 16.6507 217.602 17.072 217.602 17.616C217.602 18.16 217.736 18.5867 218.002 18.896C218.269 19.1947 218.61 19.344 219.026 19.344ZM230.305 22.16C229.313 22.16 228.422 21.968 227.633 21.584C226.854 21.2 226.241 20.6613 225.793 19.968C225.356 19.2747 225.137 18.4907 225.137 17.616C225.137 16.7413 225.356 15.9627 225.793 15.28C226.241 14.5867 226.854 14.048 227.633 13.664C228.422 13.28 229.313 13.088 230.305 13.088C231.372 13.088 232.284 13.3173 233.041 13.776C233.798 14.2347 234.321 14.8693 234.609 15.68L231.809 17.056C231.468 16.288 230.961 15.904 230.289 15.904C229.862 15.904 229.505 16.0533 229.217 16.352C228.94 16.6507 228.801 17.072 228.801 17.616C228.801 18.1707 228.94 18.5973 229.217 18.896C229.505 19.1947 229.862 19.344 230.289 19.344C230.961 19.344 231.468 18.96 231.809 18.192L234.609 19.568C234.321 20.3787 233.798 21.0133 233.041 21.472C232.284 21.9307 231.372 22.16 230.305 22.16ZM244.45 16.064H241.778V22H238.178V16.064H235.506V13.248H244.45V16.064ZM255.983 13.248L252.383 22.176C251.924 23.3173 251.354 24.1173 250.671 24.576C249.988 25.0347 249.151 25.264 248.159 25.264C247.668 25.264 247.172 25.1893 246.671 25.04C246.18 24.9013 245.791 24.7147 245.503 24.48L246.703 22C246.884 22.1387 247.087 22.2507 247.311 22.336C247.546 22.4213 247.77 22.464 247.983 22.464C248.378 22.464 248.676 22.3467 248.879 22.112L245.199 13.248H248.911L250.719 17.936L252.559 13.248H255.983ZM266.654 13.248V22H263.054V16.064H260.862V22H257.262V13.248H266.654ZM89.288 41.408C90.248 41.7707 90.728 42.448 90.728 43.44C90.728 44.24 90.4133 44.8693 89.784 45.328C89.1547 45.776 88.232 46 87.016 46H81.848V37.248H86.76C87.9333 37.248 88.8453 37.4507 89.496 37.856C90.1467 38.2507 90.472 38.8107 90.472 39.536C90.472 39.9413 90.3707 40.304 90.168 40.624C89.9653 40.944 89.672 41.2053 89.288 41.408ZM85.016 40.704H86.44C86.9627 40.704 87.224 40.496 87.224 40.08C87.224 39.8773 87.16 39.728 87.032 39.632C86.9147 39.536 86.7173 39.488 86.44 39.488H85.016V40.704ZM86.696 43.76C87.2187 43.76 87.48 43.5413 87.48 43.104C87.48 42.688 87.2187 42.48 86.696 42.48H85.016V43.76H86.696ZM102.259 46.16C101.267 46.16 100.377 45.968 99.5874 45.584C98.8087 45.2 98.1954 44.6613 97.7474 43.968C97.31 43.2747 97.0914 42.4907 97.0914 41.616C97.0914 40.7413 97.31 39.9627 97.7474 39.28C98.1954 38.5867 98.8087 38.048 99.5874 37.664C100.377 37.28 101.267 37.088 102.259 37.088C103.326 37.088 104.238 37.3173 104.995 37.776C105.753 38.2347 106.275 38.8693 106.563 39.68L103.763 41.056C103.422 40.288 102.915 39.904 102.243 39.904C101.817 39.904 101.459 40.0533 101.171 40.352C100.894 40.6507 100.755 41.072 100.755 41.616C100.755 42.1707 100.894 42.5973 101.171 42.896C101.459 43.1947 101.817 43.344 102.243 43.344C102.915 43.344 103.422 42.96 103.763 42.192L106.563 43.568C106.275 44.3787 105.753 45.0133 104.995 45.472C104.238 45.9307 103.326 46.16 102.259 46.16ZM108.038 37.248H111.638V41.2L114.662 37.248H117.99V46H114.39V42.032L111.382 46H108.038V37.248ZM124.751 46.16C123.759 46.16 122.868 45.968 122.079 45.584C121.3 45.2 120.687 44.6613 120.239 43.968C119.801 43.2747 119.583 42.4907 119.583 41.616C119.583 40.7413 119.801 39.9627 120.239 39.28C120.687 38.5867 121.3 38.048 122.079 37.664C122.868 37.28 123.759 37.088 124.751 37.088C125.817 37.088 126.729 37.3173 127.487 37.776C128.244 38.2347 128.767 38.8693 129.055 39.68L126.255 41.056C125.913 40.288 125.407 39.904 124.735 39.904C124.308 39.904 123.951 40.0533 123.663 40.352C123.385 40.6507 123.247 41.072 123.247 41.616C123.247 42.1707 123.385 42.5973 123.663 42.896C123.951 43.1947 124.308 43.344 124.735 43.344C125.407 43.344 125.913 42.96 126.255 42.192L129.055 43.568C128.767 44.3787 128.244 45.0133 127.487 45.472C126.729 45.9307 125.817 46.16 124.751 46.16ZM138.895 40.064H136.223V46H132.623V40.064H129.951V37.248H138.895V40.064ZM149.303 41.616C149.303 41.6693 149.287 41.952 149.255 42.464H143.175C143.303 42.7947 143.516 43.0507 143.815 43.232C144.114 43.4027 144.487 43.488 144.935 43.488C145.319 43.488 145.639 43.44 145.895 43.344C146.162 43.248 146.45 43.0827 146.759 42.848L148.647 44.752C147.794 45.6907 146.519 46.16 144.823 46.16C143.767 46.16 142.839 45.968 142.039 45.584C141.239 45.1893 140.62 44.6453 140.183 43.952C139.746 43.2587 139.527 42.48 139.527 41.616C139.527 40.7413 139.74 39.9627 140.167 39.28C140.604 38.5867 141.196 38.048 141.943 37.664C142.7 37.28 143.548 37.088 144.487 37.088C145.372 37.088 146.178 37.264 146.903 37.616C147.639 37.968 148.22 38.4853 148.647 39.168C149.084 39.8507 149.303 40.6667 149.303 41.616ZM144.519 39.552C144.146 39.552 143.836 39.6533 143.591 39.856C143.346 40.0587 143.186 40.3467 143.111 40.72H145.927C145.852 40.3573 145.692 40.0747 145.447 39.872C145.202 39.6587 144.892 39.552 144.519 39.552ZM159.515 46L159.499 42.08L157.643 45.312H156.123L154.331 42V46H151.083V37.248H154.907L156.987 41.328L159.339 37.248H162.731L162.763 46H159.515ZM174.81 37.248L171.21 46.176C170.752 47.3173 170.181 48.1173 169.498 48.576C168.816 49.0347 167.978 49.264 166.986 49.264C166.496 49.264 166 49.1893 165.498 49.04C165.008 48.9013 164.618 48.7147 164.33 48.48L165.53 46C165.712 46.1387 165.914 46.2507 166.138 46.336C166.373 46.4213 166.597 46.464 166.81 46.464C167.205 46.464 167.504 46.3467 167.706 46.112L164.026 37.248H167.738L169.546 41.936L171.386 37.248H174.81ZM191.255 37.248L187.655 46.176C187.196 47.3173 186.625 48.1173 185.943 48.576C185.26 49.0347 184.423 49.264 183.431 49.264C182.94 49.264 182.444 49.1893 181.943 49.04C181.452 48.9013 181.063 48.7147 180.775 48.48L181.975 46C182.156 46.1387 182.359 46.2507 182.583 46.336C182.817 46.4213 183.041 46.464 183.255 46.464C183.649 46.464 183.948 46.3467 184.151 46.112L180.471 37.248H184.183L185.991 41.936L187.831 37.248H191.255ZM201.926 37.248V46H198.326V40.064H196.134V46H192.534V37.248H201.926ZM209.948 37.088C210.716 37.088 211.42 37.2747 212.06 37.648C212.711 38.0107 213.223 38.5387 213.596 39.232C213.98 39.9253 214.172 40.7253 214.172 41.632C214.172 42.5387 213.98 43.3387 213.596 44.032C213.223 44.7147 212.711 45.2427 212.06 45.616C211.42 45.9787 210.716 46.16 209.948 46.16C208.977 46.16 208.236 45.9093 207.724 45.408V49.104H204.108V37.248H207.548V37.968C208.071 37.3813 208.871 37.088 209.948 37.088ZM209.084 43.344C209.5 43.344 209.841 43.1947 210.108 42.896C210.375 42.5973 210.508 42.176 210.508 41.632C210.508 41.088 210.375 40.6667 210.108 40.368C209.841 40.0587 209.5 39.904 209.084 39.904C208.668 39.904 208.327 40.0587 208.06 40.368C207.793 40.6667 207.66 41.088 207.66 41.632C207.66 42.176 207.793 42.5973 208.06 42.896C208.327 43.1947 208.668 43.344 209.084 43.344ZM219.332 37.088C220.868 37.088 222.041 37.4347 222.852 38.128C223.662 38.8107 224.068 39.8667 224.068 41.296V46H220.708V44.848C220.292 45.7227 219.465 46.16 218.228 46.16C217.534 46.16 216.942 46.0427 216.452 45.808C215.972 45.5627 215.604 45.2373 215.348 44.832C215.102 44.416 214.98 43.952 214.98 43.44C214.98 42.576 215.31 41.92 215.972 41.472C216.633 41.024 217.636 40.8 218.98 40.8H220.436C220.318 40.1173 219.769 39.776 218.788 39.776C218.393 39.776 217.993 39.84 217.588 39.968C217.182 40.0853 216.836 40.2507 216.548 40.464L215.396 38.08C215.897 37.7707 216.5 37.5307 217.204 37.36C217.918 37.1787 218.628 37.088 219.332 37.088ZM219.316 43.984C219.572 43.984 219.801 43.9147 220.004 43.776C220.206 43.6373 220.356 43.4293 220.452 43.152V42.544H219.556C218.82 42.544 218.452 42.7893 218.452 43.28C218.452 43.4827 218.526 43.6533 218.676 43.792C218.836 43.92 219.049 43.984 219.316 43.984ZM233.461 41.408C234.421 41.7707 234.901 42.448 234.901 43.44C234.901 44.24 234.586 44.8693 233.957 45.328C233.328 45.776 232.405 46 231.189 46H226.021V37.248H230.933C232.106 37.248 233.018 37.4507 233.669 37.856C234.32 38.2507 234.645 38.8107 234.645 39.536C234.645 39.9413 234.544 40.304 234.341 40.624C234.138 40.944 233.845 41.2053 233.461 41.408ZM229.189 40.704H230.613C231.136 40.704 231.397 40.496 231.397 40.08C231.397 39.8773 231.333 39.728 231.205 39.632C231.088 39.536 230.89 39.488 230.613 39.488H229.189V40.704ZM230.869 43.76C231.392 43.76 231.653 43.5413 231.653 43.104C231.653 42.688 231.392 42.48 230.869 42.48H229.189V43.76H230.869ZM246.004 37.248V46H242.388V40.064H240.74L240.692 41.2C240.649 42.3307 240.532 43.2587 240.34 43.984C240.148 44.7093 239.828 45.2693 239.38 45.664C238.942 46.048 238.34 46.24 237.572 46.24C237.092 46.24 236.532 46.16 235.892 46L236.036 43.072C236.206 43.0933 236.329 43.104 236.404 43.104C236.841 43.104 237.129 42.9493 237.268 42.64C237.406 42.32 237.492 41.792 237.524 41.056L237.652 37.248H246.004ZM257.384 41.616C257.384 41.6693 257.368 41.952 257.336 42.464H251.256C251.384 42.7947 251.598 43.0507 251.896 43.232C252.195 43.4027 252.568 43.488 253.016 43.488C253.4 43.488 253.72 43.44 253.976 43.344C254.243 43.248 254.531 43.0827 254.84 42.848L256.728 44.752C255.875 45.6907 254.6 46.16 252.904 46.16C251.848 46.16 250.92 45.968 250.12 45.584C249.32 45.1893 248.702 44.6453 248.264 43.952C247.827 43.2587 247.608 42.48 247.608 41.616C247.608 40.7413 247.822 39.9627 248.248 39.28C248.686 38.5867 249.278 38.048 250.024 37.664C250.782 37.28 251.63 37.088 252.568 37.088C253.454 37.088 254.259 37.264 254.984 37.616C255.72 37.968 256.302 38.4853 256.728 39.168C257.166 39.8507 257.384 40.6667 257.384 41.616ZM252.6 39.552C252.227 39.552 251.918 39.6533 251.672 39.856C251.427 40.0587 251.267 40.3467 251.192 40.72H254.008C253.934 40.3573 253.774 40.0747 253.528 39.872C253.283 39.6587 252.974 39.552 252.6 39.552ZM259.164 37.248H262.764V40.32H265.228V37.248H268.828V46H265.228V43.152H262.764V46H259.164V37.248ZM271.004 37.248H274.604V41.2L277.628 37.248H280.956V46H277.356V42.032L274.348 46H271.004V37.248ZM291.796 37.248V46H288.596V43.776H287.716L286.292 46H282.468L284.356 43.264C283.802 42.9973 283.375 42.64 283.076 42.192C282.788 41.744 282.644 41.2213 282.644 40.624C282.644 39.568 283.05 38.7413 283.86 38.144C284.671 37.5467 285.78 37.248 287.188 37.248H291.796ZM287.268 40.048C286.65 40.048 286.34 40.2827 286.34 40.752C286.34 41.0187 286.415 41.216 286.564 41.344C286.724 41.4613 286.959 41.52 287.268 41.52H288.596V40.048H287.268ZM305.944 41.456C306.413 41.6267 306.776 41.8773 307.032 42.208C307.299 42.528 307.432 42.9067 307.432 43.344C307.432 43.952 307.219 44.4747 306.792 44.912C306.365 45.3387 305.789 45.664 305.064 45.888C304.339 46.1013 303.533 46.208 302.648 46.208C301.144 46.208 299.779 45.984 298.552 45.536L299.464 43.152C300.371 43.4827 301.4 43.648 302.552 43.648C302.936 43.648 303.24 43.6 303.464 43.504C303.688 43.408 303.8 43.2587 303.8 43.056C303.8 42.8853 303.747 42.768 303.64 42.704C303.544 42.6293 303.373 42.592 303.128 42.592H301.128V40.576H302.792C303.059 40.576 303.251 40.5387 303.368 40.464C303.496 40.3893 303.56 40.2667 303.56 40.096C303.56 39.9253 303.475 39.7973 303.304 39.712C303.133 39.6267 302.84 39.584 302.424 39.584C301.624 39.584 300.691 39.7653 299.624 40.128L298.808 37.84C300.163 37.3173 301.459 37.056 302.696 37.056C304.008 37.056 305.085 37.2747 305.928 37.712C306.771 38.1387 307.192 38.7627 307.192 39.584C307.192 39.968 307.08 40.3253 306.856 40.656C306.632 40.9867 306.328 41.2533 305.944 41.456ZM312.792 37.088C314.328 37.088 315.502 37.4347 316.312 38.128C317.123 38.8107 317.528 39.8667 317.528 41.296V46H314.168V44.848C313.752 45.7227 312.926 46.16 311.688 46.16C310.995 46.16 310.403 46.0427 309.912 45.808C309.432 45.5627 309.064 45.2373 308.808 44.832C308.563 44.416 308.44 43.952 308.44 43.44C308.44 42.576 308.771 41.92 309.432 41.472C310.094 41.024 311.096 40.8 312.44 40.8H313.896C313.779 40.1173 313.23 39.776 312.248 39.776C311.854 39.776 311.454 39.84 311.048 39.968C310.643 40.0853 310.296 40.2507 310.008 40.464L308.856 38.08C309.358 37.7707 309.96 37.5307 310.664 37.36C311.379 37.1787 312.088 37.088 312.792 37.088ZM312.776 43.984C313.032 43.984 313.262 43.9147 313.464 43.776C313.667 43.6373 313.816 43.4293 313.912 43.152V42.544H313.016C312.28 42.544 311.912 42.7893 311.912 43.28C311.912 43.4827 311.987 43.6533 312.136 43.792C312.296 43.92 312.51 43.984 312.776 43.984ZM330.362 43.168V47.728H327.018V46H322.186V47.728H318.842V43.168H319.098C319.61 43.168 319.967 42.928 320.17 42.448C320.372 41.9573 320.49 41.2533 320.522 40.336L320.634 37.248H329.194V43.168H330.362ZM323.77 40.608C323.748 41.28 323.7 41.8133 323.626 42.208C323.562 42.592 323.428 42.912 323.226 43.168H325.594V40.064H323.786L323.77 40.608ZM335.627 37.088C337.163 37.088 338.337 37.4347 339.147 38.128C339.958 38.8107 340.363 39.8667 340.363 41.296V46H337.003V44.848C336.587 45.7227 335.761 46.16 334.523 46.16C333.83 46.16 333.238 46.0427 332.747 45.808C332.267 45.5627 331.899 45.2373 331.643 44.832C331.398 44.416 331.275 43.952 331.275 43.44C331.275 42.576 331.606 41.92 332.267 41.472C332.929 41.024 333.931 40.8 335.275 40.8H336.731C336.614 40.1173 336.065 39.776 335.083 39.776C334.689 39.776 334.289 39.84 333.883 39.968C333.478 40.0853 333.131 40.2507 332.843 40.464L331.691 38.08C332.193 37.7707 332.795 37.5307 333.499 37.36C334.214 37.1787 334.923 37.088 335.627 37.088ZM335.611 43.984C335.867 43.984 336.097 43.9147 336.299 43.776C336.502 43.6373 336.651 43.4293 336.747 43.152V42.544H335.851C335.115 42.544 334.747 42.7893 334.747 43.28C334.747 43.4827 334.822 43.6533 334.971 43.792C335.131 43.92 335.345 43.984 335.611 43.984ZM351.213 37.248V46H347.613V43.04C347.101 43.3387 346.429 43.488 345.597 43.488C344.327 43.488 343.383 43.2053 342.765 42.64C342.146 42.064 341.837 41.1573 341.837 39.92V37.248H345.437V39.68C345.437 40.1173 345.517 40.4213 345.677 40.592C345.847 40.7627 346.109 40.848 346.461 40.848C346.887 40.848 347.271 40.768 347.613 40.608V37.248H351.213Z" fill="#333333"/>
<g clip-path="url(#clip0_106_186)">
<path d="M14.796 18.0137C12.7972 18.0185 11.1778 19.6364 11.1709 21.6352V40.5414H10.0957C9.79835 40.5414 9.55627 40.745 9.55627 41.0424V43.4072C9.55838 44.3632 9.94071 45.2792 10.6189 45.9532C11.297 46.6271 12.2152 47.0038 13.1711 46.9999H42.8469C43.8031 47.0038 44.7213 46.6271 45.3994 45.9532C46.0773 45.2792 46.4596 44.3632 46.4617 43.4072V41.0424C46.4617 40.745 46.2196 40.5414 45.9223 40.5414H44.8471V21.6352C44.8405 19.6364 43.2208 18.0185 41.2223 18.0137H32.2377V15.9378H35.5309C35.8283 15.9444 36.0748 15.7089 36.0821 15.4113V13.3399C36.419 13.2396 36.7266 13.0594 36.9789 12.8146C37.7772 12.0181 37.7781 10.7251 36.9813 9.92744C36.1842 9.13005 34.8912 9.13005 34.0941 9.92744C33.297 10.7251 33.2979 12.0181 34.0962 12.8146C34.3413 13.075 34.6576 13.2576 35.0056 13.3399V14.8614H31.7052C31.4046 14.8665 31.1631 15.1107 31.1613 15.4113V18.0137H28.5472V13.0026C29.5314 12.7332 30.1642 11.7772 30.0285 10.766C29.8924 9.75475 29.0295 9 28.009 9C26.9887 9 26.1256 9.75475 25.9898 10.766C25.8538 11.7772 26.4869 12.7332 27.4708 13.0026V18.0137H24.7029V15.4113C24.6939 15.1077 24.447 14.8653 24.1434 14.8614H21.0123V13.3399C21.3607 13.2576 21.677 13.075 21.9224 12.8146C22.7183 12.019 22.7195 10.729 21.9257 9.93135H21.9272C21.3445 9.34839 20.4675 9.1742 19.7059 9.48955C18.9442 9.8052 18.4478 10.5485 18.4481 11.373C18.4445 11.9133 18.6571 12.4326 19.0388 12.8146C19.2914 13.0594 19.5993 13.2396 19.9359 13.3399V15.4113C19.9431 15.7089 20.1897 15.9444 20.4873 15.9378H23.6265V18.0137H14.796ZM34.8504 10.6927C35.2261 10.3167 35.8355 10.3167 36.2115 10.6924C36.5872 11.0684 36.5872 11.6778 36.2115 12.0535C35.8355 12.4296 35.2261 12.4296 34.8504 12.0535C34.4753 11.6775 34.4753 11.0687 34.8504 10.6927ZM27.0467 11.036C27.0467 10.6005 27.3392 10.2191 27.76 10.1064C28.1808 9.99352 28.6247 10.1773 28.8424 10.5545C29.0602 10.9318 28.9974 11.4084 28.6896 11.7162C28.4141 11.9914 28.0003 12.0737 27.6408 11.9247C27.2813 11.7757 27.0467 11.4249 27.0467 11.036ZM19.5251 11.373C19.5251 10.9137 19.8491 10.5185 20.2996 10.429C20.7498 10.3395 21.2009 10.5804 21.3766 11.0048C21.5523 11.4288 21.404 11.9181 21.0222 12.1734C20.6402 12.4283 20.1314 12.3782 19.8068 12.0535C19.6257 11.8733 19.5242 11.6286 19.5251 11.373ZM45.3853 43.4072C45.3835 44.0779 45.1147 44.7203 44.6387 45.1924C44.1623 45.6646 43.5175 45.9277 42.8469 45.9235H13.1711C12.5005 45.9277 11.856 45.6646 11.3796 45.1924C10.9033 44.7203 10.6345 44.0779 10.6327 43.4072V41.6178H23.2613L23.7259 42.0948C24.4137 42.8288 25.3771 43.2411 26.383 43.2324H29.6353C30.6411 43.2411 31.6046 42.8288 32.2924 42.0948L32.7567 41.6178H45.3853V43.4072ZM43.7707 21.6352V40.5414H32.521C32.3729 40.5345 32.229 40.591 32.1251 40.6964L31.5007 41.3559C31.0181 41.8716 30.3417 42.1617 29.6353 42.156H26.383C25.6754 42.1584 24.999 41.865 24.5173 41.3466L23.8932 40.6922C23.7887 40.588 23.6448 40.533 23.4973 40.5414H12.2473V21.6352C12.2533 20.2308 13.3916 19.0943 14.796 19.0901H41.2223C42.6267 19.0943 43.7647 20.2308 43.7707 21.6352Z" fill="white"/>
<path d="M41.8485 21.7811C41.8485 21.4841 41.6077 21.2429 41.3103 21.2429H14.7845C14.4875 21.2429 14.2463 21.4841 14.2463 21.7811V38.3117C14.2463 38.609 14.4875 38.8499 14.7845 38.8499H41.3103C41.6077 38.8499 41.8485 38.609 41.8485 38.3117V21.7811ZM15.3227 22.3193H40.6952V37.8504H15.3227V22.3193Z" fill="white"/>
<path d="M34.2824 28.7682L33.3021 28.6736C33.1877 28.2865 33.03 27.9135 32.8318 27.5618L33.449 26.8163C33.6256 26.6034 33.6118 26.291 33.4169 26.0943L32.1449 24.8095C31.9488 24.6112 31.6337 24.5959 31.419 24.774L30.6703 25.3948C30.318 25.1987 29.9453 25.0413 29.5587 24.926L29.4644 23.9559C29.4377 23.6805 29.2052 23.4709 28.9286 23.4727H27.105C26.8287 23.4709 26.5965 23.6799 26.5695 23.955L26.4752 24.9266C26.0871 25.0398 25.7135 25.1963 25.3609 25.3933L24.6152 24.7743C24.4013 24.5971 24.0881 24.6115 23.8914 24.8077L22.6038 26.0922C22.4071 26.2883 22.3924 26.6025 22.5699 26.8166L23.1895 27.5639C22.9933 27.9156 22.8363 28.2877 22.7206 28.6736L21.7355 28.7682C21.4583 28.7944 21.246 29.0256 21.243 29.304V31.125C21.246 31.4034 21.4586 31.6346 21.7355 31.6608L22.7158 31.7551C22.8303 32.1422 22.9882 32.5152 23.1862 32.8672L22.569 33.6124C22.3918 33.8265 22.4065 34.1407 22.6035 34.3371L23.8911 35.6216C24.0875 35.8177 24.401 35.8322 24.6149 35.655L25.3636 35.0345C25.7159 35.2306 26.0886 35.388 26.4749 35.5033L26.5695 36.4593C26.5977 36.7317 26.8314 36.9362 27.105 36.9278H28.9286C29.2022 36.9362 29.4359 36.732 29.4644 36.4599L29.5587 35.4952C29.9465 35.3832 30.3201 35.2279 30.673 35.0318L31.4187 35.6529C31.6319 35.8304 31.9455 35.8162 32.1422 35.6204L33.4295 34.3365C33.6262 34.1401 33.6409 33.8262 33.4637 33.6124L32.8441 32.8651C33.0402 32.5131 33.1973 32.141 33.3129 31.7551L34.2827 31.6608C34.5596 31.6343 34.772 31.4034 34.7747 31.1253V29.304C34.772 29.0256 34.5596 28.7944 34.2824 28.7682ZM33.6986 30.6369L32.8414 30.7201C32.6089 30.7426 32.417 30.9114 32.3651 31.1391C32.2464 31.6668 32.0335 32.1686 31.7368 32.621C31.6079 32.8183 31.6223 33.0766 31.7728 33.2583L32.3224 33.9217L31.729 34.5137L31.0643 33.9629C30.882 33.8115 30.6219 33.7974 30.424 33.9283C29.9747 34.226 29.4734 34.4368 28.9463 34.5494C28.7199 34.5909 28.5478 34.7768 28.5241 35.0056L28.4406 35.8514H27.5939L27.5101 35.0056C27.487 34.7741 27.3149 34.5852 27.0863 34.5404C26.5587 34.4251 26.0562 34.2148 25.6036 33.9199C25.406 33.7941 25.1495 33.8106 24.9693 33.9608L24.3049 34.5128L23.7118 33.9211L24.262 33.258C24.4136 33.0751 24.4272 32.8144 24.2956 32.6164C23.9974 32.168 23.7859 31.6677 23.6724 31.1412C23.6195 30.912 23.4261 30.7423 23.1919 30.7201L22.3194 30.6363V29.793L23.1919 29.7092C23.4246 29.687 23.6168 29.5179 23.6688 29.2902C23.7874 28.7625 24.0001 28.2603 24.2971 27.8083C24.426 27.611 24.4112 27.3527 24.2611 27.171L23.7115 26.5076L24.3046 25.9153L24.9693 26.4661C25.1519 26.6175 25.4117 26.6316 25.6096 26.501C26.0589 26.203 26.5602 25.9925 27.0872 25.8796C27.3161 25.8321 27.4873 25.6417 27.5101 25.4092L27.5939 24.5491H28.4403L28.5241 25.4089C28.5469 25.642 28.7184 25.8333 28.9475 25.8814C29.4755 25.9982 29.978 26.2093 30.4303 26.5055C30.6276 26.6319 30.8844 26.6163 31.0646 26.4664L31.7269 25.9174L32.3086 26.5049L31.7563 27.1707C31.6046 27.3536 31.5911 27.6143 31.7226 27.8122C32.0209 28.2607 32.2323 28.7613 32.3461 29.2875C32.3987 29.517 32.5921 29.6867 32.8264 29.7089L33.6986 29.793V30.6369Z" fill="white"/>
<path d="M28.0106 26.4177C25.9142 26.4204 24.217 28.1215 24.2185 30.2176C24.2203 32.3136 25.9205 34.0117 28.0169 34.0108C30.1129 34.0102 31.8116 32.3106 31.8116 30.2143C31.808 28.1173 30.1075 26.4189 28.0106 26.4177ZM28.0106 32.9344C26.5089 32.9317 25.2934 31.713 25.2949 30.2113C25.2967 28.7096 26.5152 27.4932 28.0169 27.4941C29.5185 27.495 30.7355 28.7126 30.7352 30.2143C30.7322 31.7172 29.5134 32.9341 28.0106 32.9344Z" fill="white"/>
</g>
<defs>
<clipPath id="clip0_106_186">
<rect width="38" height="38" fill="white" transform="translate(9 9)"/>
</clipPath>
</defs>
</svg>
