<svg width="306" height="56" viewBox="0 0 306 56" fill="none" xmlns="http://www.w3.org/2000/svg">
<rect width="56" height="56" fill="#0000FF"/>
<path d="M87.624 22.256C86.44 22.256 85.3733 22.0107 84.424 21.52C83.4747 21.0187 82.728 20.3253 82.184 19.44C81.6507 18.544 81.384 17.5307 81.384 16.4C81.384 15.2693 81.6507 14.2613 82.184 13.376C82.728 12.48 83.4747 11.7867 84.424 11.296C85.3733 10.7947 86.44 10.544 87.624 10.544C88.712 10.544 89.6827 10.736 90.536 11.12C91.3893 11.504 92.0933 12.0587 92.648 12.784L90.264 14.912C89.5707 14.0373 88.7547 13.6 87.816 13.6C87.0267 13.6 86.392 13.856 85.912 14.368C85.432 14.8693 85.192 15.5467 85.192 16.4C85.192 17.2533 85.432 17.936 85.912 18.448C86.392 18.9493 87.0267 19.2 87.816 19.2C88.7547 19.2 89.5707 18.7627 90.264 17.888L92.648 20.016C92.0933 20.7413 91.3893 21.296 90.536 21.68C89.6827 22.064 88.712 22.256 87.624 22.256ZM103.09 17.616C103.09 17.6693 103.074 17.952 103.042 18.464H96.9625C97.0905 18.7947 97.3038 19.0507 97.6025 19.232C97.9012 19.4027 98.2745 19.488 98.7225 19.488C99.1065 19.488 99.4265 19.44 99.6825 19.344C99.9492 19.248 100.237 19.0827 100.546 18.848L102.434 20.752C101.581 21.6907 100.306 22.16 98.6105 22.16C97.5545 22.16 96.6265 21.968 95.8265 21.584C95.0265 21.1893 94.4078 20.6453 93.9705 19.952C93.5332 19.2587 93.3145 18.48 93.3145 17.616C93.3145 16.7413 93.5278 15.9627 93.9545 15.28C94.3918 14.5867 94.9838 14.048 95.7305 13.664C96.4878 13.28 97.3358 13.088 98.2745 13.088C99.1598 13.088 99.9652 13.264 100.69 13.616C101.427 13.968 102.008 14.4853 102.434 15.168C102.872 15.8507 103.09 16.6667 103.09 17.616ZM98.3065 15.552C97.9332 15.552 97.6238 15.6533 97.3785 15.856C97.1332 16.0587 96.9732 16.3467 96.8985 16.72H99.7145C99.6398 16.3573 99.4798 16.0747 99.2345 15.872C98.9892 15.6587 98.6798 15.552 98.3065 15.552ZM110.71 13.088C111.478 13.088 112.182 13.2747 112.822 13.648C113.473 14.0107 113.985 14.5387 114.358 15.232C114.742 15.9253 114.934 16.7253 114.934 17.632C114.934 18.5387 114.742 19.3387 114.358 20.032C113.985 20.7147 113.473 21.2427 112.822 21.616C112.182 21.9787 111.478 22.16 110.71 22.16C109.74 22.16 108.998 21.9093 108.486 21.408V25.104H104.87V13.248H108.31V13.968C108.833 13.3813 109.633 13.088 110.71 13.088ZM109.846 19.344C110.262 19.344 110.604 19.1947 110.87 18.896C111.137 18.5973 111.27 18.176 111.27 17.632C111.27 17.088 111.137 16.6667 110.87 16.368C110.604 16.0587 110.262 15.904 109.846 15.904C109.43 15.904 109.089 16.0587 108.822 16.368C108.556 16.6667 108.422 17.088 108.422 17.632C108.422 18.176 108.556 18.5973 108.822 18.896C109.089 19.1947 109.43 19.344 109.846 19.344ZM124.025 17.408C124.985 17.7707 125.465 18.448 125.465 19.44C125.465 20.24 125.15 20.8693 124.521 21.328C123.892 21.776 122.969 22 121.753 22H116.585V13.248H121.497C122.67 13.248 123.582 13.4507 124.233 13.856C124.884 14.2507 125.209 14.8107 125.209 15.536C125.209 15.9413 125.108 16.304 124.905 16.624C124.702 16.944 124.409 17.2053 124.025 17.408ZM119.753 16.704H121.177C121.7 16.704 121.961 16.496 121.961 16.08C121.961 15.8773 121.897 15.728 121.769 15.632C121.652 15.536 121.454 15.488 121.177 15.488H119.753V16.704ZM121.433 19.76C121.956 19.76 122.217 19.5413 122.217 19.104C122.217 18.688 121.956 18.48 121.433 18.48H119.753V19.76H121.433ZM136.327 17.616C136.327 17.6693 136.311 17.952 136.279 18.464H130.199C130.327 18.7947 130.541 19.0507 130.839 19.232C131.138 19.4027 131.511 19.488 131.959 19.488C132.343 19.488 132.663 19.44 132.919 19.344C133.186 19.248 133.474 19.0827 133.783 18.848L135.671 20.752C134.818 21.6907 133.543 22.16 131.847 22.16C130.791 22.16 129.863 21.968 129.063 21.584C128.263 21.1893 127.645 20.6453 127.207 19.952C126.77 19.2587 126.551 18.48 126.551 17.616C126.551 16.7413 126.765 15.9627 127.191 15.28C127.629 14.5867 128.221 14.048 128.967 13.664C129.725 13.28 130.573 13.088 131.511 13.088C132.397 13.088 133.202 13.264 133.927 13.616C134.663 13.968 135.245 14.4853 135.671 15.168C136.109 15.8507 136.327 16.6667 136.327 17.616ZM131.543 15.552C131.17 15.552 130.861 15.6533 130.615 15.856C130.37 16.0587 130.21 16.3467 130.135 16.72H132.951C132.877 16.3573 132.717 16.0747 132.471 15.872C132.226 15.6587 131.917 15.552 131.543 15.552ZM143.947 13.088C144.715 13.088 145.419 13.2747 146.059 13.648C146.71 14.0107 147.222 14.5387 147.595 15.232C147.979 15.9253 148.171 16.7253 148.171 17.632C148.171 18.5387 147.979 19.3387 147.595 20.032C147.222 20.7147 146.71 21.2427 146.059 21.616C145.419 21.9787 144.715 22.16 143.947 22.16C142.977 22.16 142.235 21.9093 141.723 21.408V25.104H138.107V13.248H141.547V13.968C142.07 13.3813 142.87 13.088 143.947 13.088ZM143.083 19.344C143.499 19.344 143.841 19.1947 144.107 18.896C144.374 18.5973 144.507 18.176 144.507 17.632C144.507 17.088 144.374 16.6667 144.107 16.368C143.841 16.0587 143.499 15.904 143.083 15.904C142.667 15.904 142.326 16.0587 142.059 16.368C141.793 16.6667 141.659 17.088 141.659 17.632C141.659 18.176 141.793 18.5973 142.059 18.896C142.326 19.1947 142.667 19.344 143.083 19.344ZM165.979 19.168V23.728H162.635V22H157.803V23.728H154.459V19.168H154.715C155.227 19.168 155.584 18.928 155.787 18.448C155.989 17.9573 156.107 17.2533 156.139 16.336L156.251 13.248H164.811V19.168H165.979ZM159.387 16.608C159.365 17.28 159.317 17.8133 159.243 18.208C159.179 18.592 159.045 18.912 158.843 19.168H161.211V16.064H159.403L159.387 16.608ZM176.956 13.248V22H173.34V16.064H171.692L171.644 17.2C171.601 18.3307 171.484 19.2587 171.292 19.984C171.1 20.7093 170.78 21.2693 170.332 21.664C169.895 22.048 169.292 22.24 168.524 22.24C168.044 22.24 167.484 22.16 166.844 22L166.988 19.072C167.159 19.0933 167.281 19.104 167.356 19.104C167.793 19.104 168.081 18.9493 168.22 18.64C168.359 18.32 168.444 17.792 168.476 17.056L168.604 13.248H176.956ZM187.809 13.248V22H184.609V19.776H183.729L182.305 22H178.481L180.369 19.264C179.814 18.9973 179.387 18.64 179.089 18.192C178.801 17.744 178.657 17.2213 178.657 16.624C178.657 15.568 179.062 14.7413 179.873 14.144C180.683 13.5467 181.793 13.248 183.201 13.248H187.809ZM183.281 16.048C182.662 16.048 182.353 16.2827 182.353 16.752C182.353 17.0187 182.427 17.216 182.577 17.344C182.737 17.4613 182.971 17.52 183.281 17.52H184.609V16.048H183.281ZM200.837 22L199.637 20.128L198.293 22H194.373L197.685 17.664L194.469 13.248H198.549L199.797 15.104L201.109 13.248H204.901L201.685 17.504L204.981 22H200.837ZM212.104 13.088C212.872 13.088 213.576 13.2747 214.216 13.648C214.867 14.0107 215.379 14.5387 215.752 15.232C216.136 15.9253 216.328 16.7253 216.328 17.632C216.328 18.5387 216.136 19.3387 215.752 20.032C215.379 20.7147 214.867 21.2427 214.216 21.616C213.576 21.9787 212.872 22.16 212.104 22.16C211.134 22.16 210.392 21.9093 209.88 21.408V25.104H206.264V13.248H209.704V13.968C210.227 13.3813 211.027 13.088 212.104 13.088ZM211.24 19.344C211.656 19.344 211.998 19.1947 212.264 18.896C212.531 18.5973 212.664 18.176 212.664 17.632C212.664 17.088 212.531 16.6667 212.264 16.368C211.998 16.0587 211.656 15.904 211.24 15.904C210.824 15.904 210.483 16.0587 210.216 16.368C209.95 16.6667 209.816 17.088 209.816 17.632C209.816 18.176 209.95 18.5973 210.216 18.896C210.483 19.1947 210.824 19.344 211.24 19.344ZM221.488 13.088C223.024 13.088 224.197 13.4347 225.008 14.128C225.819 14.8107 226.224 15.8667 226.224 17.296V22H222.864V20.848C222.448 21.7227 221.621 22.16 220.384 22.16C219.691 22.16 219.099 22.0427 218.608 21.808C218.128 21.5627 217.76 21.2373 217.504 20.832C217.259 20.416 217.136 19.952 217.136 19.44C217.136 18.576 217.467 17.92 218.128 17.472C218.789 17.024 219.792 16.8 221.136 16.8H222.592C222.475 16.1173 221.925 15.776 220.944 15.776C220.549 15.776 220.149 15.84 219.744 15.968C219.339 16.0853 218.992 16.2507 218.704 16.464L217.552 14.08C218.053 13.7707 218.656 13.5307 219.36 13.36C220.075 13.1787 220.784 13.088 221.488 13.088ZM221.472 19.984C221.728 19.984 221.957 19.9147 222.16 19.776C222.363 19.6373 222.512 19.4293 222.608 19.152V18.544H221.712C220.976 18.544 220.608 18.7893 220.608 19.28C220.608 19.4827 220.683 19.6533 220.832 19.792C220.992 19.92 221.205 19.984 221.472 19.984ZM228.177 13.248H231.777V16.32H234.241V13.248H237.841V22H234.241V19.152H231.777V22H228.177V13.248ZM249.217 17.616C249.217 17.6693 249.201 17.952 249.169 18.464H243.089C243.217 18.7947 243.43 19.0507 243.729 19.232C244.027 19.4027 244.401 19.488 244.849 19.488C245.233 19.488 245.553 19.44 245.809 19.344C246.075 19.248 246.363 19.0827 246.673 18.848L248.561 20.752C247.707 21.6907 246.433 22.16 244.737 22.16C243.681 22.16 242.753 21.968 241.953 21.584C241.153 21.1893 240.534 20.6453 240.097 19.952C239.659 19.2587 239.441 18.48 239.441 17.616C239.441 16.7413 239.654 15.9627 240.081 15.28C240.518 14.5867 241.11 14.048 241.857 13.664C242.614 13.28 243.462 13.088 244.401 13.088C245.286 13.088 246.091 13.264 246.817 13.616C247.553 13.968 248.134 14.4853 248.561 15.168C248.998 15.8507 249.217 16.6667 249.217 17.616ZM244.433 15.552C244.059 15.552 243.75 15.6533 243.505 15.856C243.259 16.0587 243.099 16.3467 243.025 16.72H245.841C245.766 16.3573 245.606 16.0747 245.361 15.872C245.115 15.6587 244.806 15.552 244.433 15.552ZM250.997 13.248H254.597V16.32H257.061V13.248H260.661V22H257.061V19.152H254.597V22H250.997V13.248ZM262.836 13.248H266.436V17.2L269.46 13.248H272.788V22H269.188V18.032L266.18 22H262.836V13.248ZM283.629 13.248V22H280.429V19.776H279.549L278.125 22H274.301L276.189 19.264C275.634 18.9973 275.207 18.64 274.909 18.192C274.621 17.744 274.477 17.2213 274.477 16.624C274.477 15.568 274.882 14.7413 275.693 14.144C276.503 13.5467 277.613 13.248 279.021 13.248H283.629ZM279.101 16.048C278.482 16.048 278.173 16.2827 278.173 16.752C278.173 17.0187 278.247 17.216 278.397 17.344C278.557 17.4613 278.791 17.52 279.101 17.52H280.429V16.048H279.101ZM87.688 37.088C88.456 37.088 89.16 37.2747 89.8 37.648C90.4507 38.0107 90.9627 38.5387 91.336 39.232C91.72 39.9253 91.912 40.7253 91.912 41.632C91.912 42.5387 91.72 43.3387 91.336 44.032C90.9627 44.7147 90.4507 45.2427 89.8 45.616C89.16 45.9787 88.456 46.16 87.688 46.16C86.7173 46.16 85.976 45.9093 85.464 45.408V49.104H81.848V37.248H85.288V37.968C85.8107 37.3813 86.6107 37.088 87.688 37.088ZM86.824 43.344C87.24 43.344 87.5813 43.1947 87.848 42.896C88.1147 42.5973 88.248 42.176 88.248 41.632C88.248 41.088 88.1147 40.6667 87.848 40.368C87.5813 40.0587 87.24 39.904 86.824 39.904C86.408 39.904 86.0667 40.0587 85.8 40.368C85.5333 40.6667 85.4 41.088 85.4 41.632C85.4 42.176 85.5333 42.5973 85.8 42.896C86.0667 43.1947 86.408 43.344 86.824 43.344ZM97.0716 37.088C98.6076 37.088 99.781 37.4347 100.592 38.128C101.402 38.8107 101.808 39.8667 101.808 41.296V46H98.4476V44.848C98.0316 45.7227 97.205 46.16 95.9676 46.16C95.2743 46.16 94.6823 46.0427 94.1916 45.808C93.7116 45.5627 93.3436 45.2373 93.0876 44.832C92.8423 44.416 92.7196 43.952 92.7196 43.44C92.7196 42.576 93.0503 41.92 93.7116 41.472C94.373 41.024 95.3756 40.8 96.7196 40.8H98.1756C98.0583 40.1173 97.509 39.776 96.5276 39.776C96.133 39.776 95.733 39.84 95.3276 39.968C94.9223 40.0853 94.5756 40.2507 94.2876 40.464L93.1356 38.08C93.637 37.7707 94.2396 37.5307 94.9436 37.36C95.6583 37.1787 96.3676 37.088 97.0716 37.088ZM97.0556 43.984C97.3116 43.984 97.541 43.9147 97.7436 43.776C97.9463 43.6373 98.0956 43.4293 98.1916 43.152V42.544H97.2956C96.5596 42.544 96.1916 42.7893 96.1916 43.28C96.1916 43.4827 96.2663 43.6533 96.4156 43.792C96.5756 43.92 96.789 43.984 97.0556 43.984ZM109.537 38.224C110.828 38.224 111.83 38.5707 112.545 39.264C113.26 39.9573 113.617 40.912 113.617 42.128C113.617 42.9493 113.393 43.6747 112.945 44.304C112.508 44.9227 111.905 45.4027 111.137 45.744C110.369 46.0853 109.51 46.256 108.561 46.256C107.004 46.256 105.745 45.792 104.785 44.864C103.836 43.936 103.361 42.5067 103.361 40.576C103.361 36.9387 104.982 34.8267 108.225 34.24L112.577 33.456L113.057 36.416L109.377 37.072C108.513 37.2213 107.889 37.4507 107.505 37.76C107.132 38.0693 106.902 38.5227 106.817 39.12C107.564 38.5227 108.47 38.224 109.537 38.224ZM108.561 43.584C108.998 43.584 109.334 43.44 109.569 43.152C109.814 42.864 109.937 42.5173 109.937 42.112C109.937 41.664 109.809 41.3173 109.553 41.072C109.308 40.8267 108.977 40.704 108.561 40.704C108.134 40.704 107.793 40.832 107.537 41.088C107.281 41.3333 107.153 41.68 107.153 42.128C107.153 42.5547 107.281 42.9067 107.537 43.184C107.804 43.4507 108.145 43.584 108.561 43.584ZM119.722 46.16C118.751 46.16 117.877 45.968 117.098 45.584C116.33 45.1893 115.727 44.6507 115.29 43.968C114.853 43.2747 114.634 42.4907 114.634 41.616C114.634 40.7413 114.853 39.9627 115.29 39.28C115.727 38.5867 116.33 38.048 117.098 37.664C117.877 37.28 118.751 37.088 119.722 37.088C120.703 37.088 121.578 37.28 122.346 37.664C123.125 38.048 123.727 38.5867 124.154 39.28C124.591 39.9627 124.81 40.7413 124.81 41.616C124.81 42.4907 124.591 43.2747 124.154 43.968C123.727 44.6507 123.125 45.1893 122.346 45.584C121.578 45.968 120.703 46.16 119.722 46.16ZM119.722 43.344C120.138 43.344 120.479 43.1947 120.746 42.896C121.013 42.5867 121.146 42.16 121.146 41.616C121.146 41.072 121.013 40.6507 120.746 40.352C120.479 40.0533 120.138 39.904 119.722 39.904C119.306 39.904 118.965 40.0533 118.698 40.352C118.431 40.6507 118.298 41.072 118.298 41.616C118.298 42.16 118.431 42.5867 118.698 42.896C118.965 43.1947 119.306 43.344 119.722 43.344ZM135.305 37.248V46H131.705V43.04C131.193 43.3387 130.521 43.488 129.689 43.488C128.419 43.488 127.475 43.2053 126.857 42.64C126.238 42.064 125.929 41.1573 125.929 39.92V37.248H129.529V39.68C129.529 40.1173 129.609 40.4213 129.769 40.592C129.939 40.7627 130.201 40.848 130.553 40.848C130.979 40.848 131.363 40.768 131.705 40.608V37.248H135.305ZM137.482 37.248H141.082V41.2L144.106 37.248H147.434V46H143.834V42.032L140.826 46H137.482V37.248ZM155.171 46L153.971 44.128L152.627 46H148.707L152.019 41.664L148.803 37.248H152.883L154.131 39.104L155.443 37.248H159.235L156.019 41.504L159.315 46H155.171ZM174.307 46L174.291 42.08L172.435 45.312H170.915L169.123 42V46H165.875V37.248H169.699L171.779 41.328L174.131 37.248H177.523L177.555 46H174.307ZM183.443 37.088C184.979 37.088 186.152 37.4347 186.963 38.128C187.774 38.8107 188.179 39.8667 188.179 41.296V46H184.819V44.848C184.403 45.7227 183.576 46.16 182.339 46.16C181.646 46.16 181.054 46.0427 180.563 45.808C180.083 45.5627 179.715 45.2373 179.459 44.832C179.214 44.416 179.091 43.952 179.091 43.44C179.091 42.576 179.422 41.92 180.083 41.472C180.744 41.024 181.747 40.8 183.091 40.8H184.547C184.43 40.1173 183.88 39.776 182.899 39.776C182.504 39.776 182.104 39.84 181.699 39.968C181.294 40.0853 180.947 40.2507 180.659 40.464L179.507 38.08C180.008 37.7707 180.611 37.5307 181.315 37.36C182.03 37.1787 182.739 37.088 183.443 37.088ZM183.427 43.984C183.683 43.984 183.912 43.9147 184.115 43.776C184.318 43.6373 184.467 43.4293 184.563 43.152V42.544H183.667C182.931 42.544 182.563 42.7893 182.563 43.28C182.563 43.4827 182.638 43.6533 182.787 43.792C182.947 43.92 183.16 43.984 183.427 43.984ZM198.42 40.064H195.748V46H192.148V40.064H189.476V37.248H198.42V40.064ZM208.828 41.616C208.828 41.6693 208.812 41.952 208.78 42.464H202.7C202.828 42.7947 203.041 43.0507 203.34 43.232C203.639 43.4027 204.012 43.488 204.46 43.488C204.844 43.488 205.164 43.44 205.42 43.344C205.687 43.248 205.975 43.0827 206.284 42.848L208.172 44.752C207.319 45.6907 206.044 46.16 204.348 46.16C203.292 46.16 202.364 45.968 201.564 45.584C200.764 45.1893 200.145 44.6453 199.708 43.952C199.271 43.2587 199.052 42.48 199.052 41.616C199.052 40.7413 199.265 39.9627 199.692 39.28C200.129 38.5867 200.721 38.048 201.468 37.664C202.225 37.28 203.073 37.088 204.012 37.088C204.897 37.088 205.703 37.264 206.428 37.616C207.164 37.968 207.745 38.4853 208.172 39.168C208.609 39.8507 208.828 40.6667 208.828 41.616ZM204.044 39.552C203.671 39.552 203.361 39.6533 203.116 39.856C202.871 40.0587 202.711 40.3467 202.636 40.72H205.452C205.377 40.3573 205.217 40.0747 204.972 39.872C204.727 39.6587 204.417 39.552 204.044 39.552ZM216.448 37.088C217.216 37.088 217.92 37.2747 218.56 37.648C219.211 38.0107 219.723 38.5387 220.096 39.232C220.48 39.9253 220.672 40.7253 220.672 41.632C220.672 42.5387 220.48 43.3387 220.096 44.032C219.723 44.7147 219.211 45.2427 218.56 45.616C217.92 45.9787 217.216 46.16 216.448 46.16C215.477 46.16 214.736 45.9093 214.224 45.408V49.104H210.608V37.248H214.048V37.968C214.571 37.3813 215.371 37.088 216.448 37.088ZM215.584 43.344C216 43.344 216.341 43.1947 216.608 42.896C216.875 42.5973 217.008 42.176 217.008 41.632C217.008 41.088 216.875 40.6667 216.608 40.368C216.341 40.0587 216 39.904 215.584 39.904C215.168 39.904 214.827 40.0587 214.56 40.368C214.293 40.6667 214.16 41.088 214.16 41.632C214.16 42.176 214.293 42.5973 214.56 42.896C214.827 43.1947 215.168 43.344 215.584 43.344ZM222.322 37.248H225.922V41.2L228.946 37.248H232.274V46H228.674V42.032L225.666 46H222.322V37.248ZM238.171 37.088C239.707 37.088 240.88 37.4347 241.691 38.128C242.502 38.8107 242.907 39.8667 242.907 41.296V46H239.547V44.848C239.131 45.7227 238.304 46.16 237.067 46.16C236.374 46.16 235.782 46.0427 235.291 45.808C234.811 45.5627 234.443 45.2373 234.187 44.832C233.942 44.416 233.819 43.952 233.819 43.44C233.819 42.576 234.15 41.92 234.811 41.472C235.472 41.024 236.475 40.8 237.819 40.8H239.275C239.158 40.1173 238.608 39.776 237.627 39.776C237.232 39.776 236.832 39.84 236.427 39.968C236.022 40.0853 235.675 40.2507 235.387 40.464L234.235 38.08C234.736 37.7707 235.339 37.5307 236.043 37.36C236.758 37.1787 237.467 37.088 238.171 37.088ZM238.155 43.984C238.411 43.984 238.64 43.9147 238.843 43.776C239.046 43.6373 239.195 43.4293 239.291 43.152V42.544H238.395C237.659 42.544 237.291 42.7893 237.291 43.28C237.291 43.4827 237.366 43.6533 237.515 43.792C237.675 43.92 237.888 43.984 238.155 43.984ZM254.3 37.248V46H250.684V40.064H249.036L248.988 41.2C248.946 42.3307 248.828 43.2587 248.636 43.984C248.444 44.7093 248.124 45.2693 247.676 45.664C247.239 46.048 246.636 46.24 245.868 46.24C245.388 46.24 244.828 46.16 244.188 46L244.332 43.072C244.503 43.0933 244.626 43.104 244.7 43.104C245.138 43.104 245.426 42.9493 245.564 42.64C245.703 42.32 245.788 41.792 245.82 41.056L245.948 37.248H254.3ZM260.993 46.16C260.022 46.16 259.148 45.968 258.369 45.584C257.601 45.1893 256.998 44.6507 256.561 43.968C256.124 43.2747 255.905 42.4907 255.905 41.616C255.905 40.7413 256.124 39.9627 256.561 39.28C256.998 38.5867 257.601 38.048 258.369 37.664C259.148 37.28 260.022 37.088 260.993 37.088C261.974 37.088 262.849 37.28 263.617 37.664C264.396 38.048 264.998 38.5867 265.425 39.28C265.862 39.9627 266.081 40.7413 266.081 41.616C266.081 42.4907 265.862 43.2747 265.425 43.968C264.998 44.6507 264.396 45.1893 263.617 45.584C262.849 45.968 261.974 46.16 260.993 46.16ZM260.993 43.344C261.409 43.344 261.75 43.1947 262.017 42.896C262.284 42.5867 262.417 42.16 262.417 41.616C262.417 41.072 262.284 40.6507 262.017 40.352C261.75 40.0533 261.409 39.904 260.993 39.904C260.577 39.904 260.236 40.0533 259.969 40.352C259.702 40.6507 259.569 41.072 259.569 41.616C259.569 42.16 259.702 42.5867 259.969 42.896C260.236 43.1947 260.577 43.344 260.993 43.344ZM275.12 41.408C276.08 41.7707 276.56 42.448 276.56 43.44C276.56 44.24 276.245 44.8693 275.616 45.328C274.987 45.776 274.064 46 272.848 46H267.68V37.248H272.592C273.765 37.248 274.677 37.4507 275.328 37.856C275.979 38.2507 276.304 38.8107 276.304 39.536C276.304 39.9413 276.203 40.304 276 40.624C275.797 40.944 275.504 41.2053 275.12 41.408ZM270.848 40.704H272.272C272.795 40.704 273.056 40.496 273.056 40.08C273.056 39.8773 272.992 39.728 272.864 39.632C272.747 39.536 272.549 39.488 272.272 39.488H270.848V40.704ZM272.528 43.76C273.051 43.76 273.312 43.5413 273.312 43.104C273.312 42.688 273.051 42.48 272.528 42.48H270.848V43.76H272.528Z" fill="#333333"/>
<g clip-path="url(#clip0_106_185)">
<path d="M29.1042 30.9166H38.7709C39.1044 30.9166 39.3751 30.6459 39.3751 30.3124C39.3751 29.9789 39.1044 29.7083 38.7709 29.7083H29.1042C28.7707 29.7083 28.5 29.9789 28.5 30.3124C28.5 30.6459 28.7707 30.9166 29.1042 30.9166Z" fill="white"/>
<path d="M43 25.4792V23.0625C43 22.4789 42.826 21.9387 42.5384 21.4759C42.5312 21.4614 42.53 21.4445 42.5215 21.4312L38.7853 15.4258C38.2307 14.5341 37.2713 14 36.2201 14H20.7812C19.7287 14 18.7705 14.5341 18.2159 15.4258L14.4797 21.4312C14.4724 21.4433 14.4724 21.4566 14.4652 21.4699C14.1752 21.9327 14 22.4764 14 23.0625V25.4792C14 26.47 14.4869 27.3449 15.2277 27.8959C14.4869 28.4468 14 29.3204 14 30.3125V32.7292C14 33.72 14.4869 34.5949 15.2277 35.1459C14.4869 35.6968 14 36.5704 14 37.5625V39.9792C14 41.6442 15.3558 43 17.0208 43H24.9426C25.2773 43 25.5468 42.7293 25.5468 42.3958C25.5468 42.0623 25.2761 41.7916 24.9426 41.7916H17.0208C16.0215 41.7916 15.2083 40.9784 15.2083 39.9791V37.5625C15.2083 36.562 16.0215 35.75 17.0208 35.75H27.1273C27.4608 35.75 27.7315 35.4793 27.7315 35.1458C27.7315 34.8123 27.4608 34.5416 27.1273 34.5416H17.0208C16.0215 34.5416 15.2083 33.7284 15.2083 32.7291V30.3125C15.2083 29.312 16.0215 28.5 17.0208 28.5H39.9791C40.9784 28.5 41.7916 29.3132 41.7916 30.3125V32.7292C41.7916 32.995 41.7264 33.2621 41.6007 33.5194C41.4545 33.8191 41.5778 34.1804 41.8774 34.3278C42.1783 34.4752 42.5396 34.352 42.6858 34.0511C42.8948 33.6258 42.9999 33.1823 42.9999 32.7292V30.3125C42.9999 29.3217 42.513 28.4468 41.7723 27.8958C42.5131 27.3436 43 26.47 43 25.4792ZM19.2417 16.0638C19.5741 15.5285 20.1492 15.2083 20.7799 15.2083H36.2188C36.8496 15.2083 37.4247 15.5285 37.7582 16.0638L40.2511 20.0694C40.1604 20.0598 40.0722 20.0416 39.9792 20.0416H17.0208C16.9278 20.0416 16.8396 20.0598 16.7489 20.0682L19.2417 16.0638ZM41.7917 25.4792C41.7917 26.4785 40.9785 27.2917 39.9792 27.2917H17.0208C16.0215 27.2917 15.2083 26.4785 15.2083 25.4792V23.0625C15.2083 22.062 16.0215 21.25 17.0208 21.25H39.9791C40.9784 21.25 41.7916 22.062 41.7916 23.0625V25.4792H41.7917Z" fill="white"/>
<path d="M16.4167 38.7708C16.4167 39.7701 17.2298 40.5833 18.2292 40.5833C19.2285 40.5833 20.0417 39.7701 20.0417 38.7708C20.0417 37.7714 19.2285 36.9583 18.2292 36.9583C17.2298 36.9583 16.4167 37.7703 16.4167 38.7708ZM18.8333 38.7708C18.8333 39.1043 18.5626 39.3749 18.2291 39.3749C17.8956 39.3749 17.625 39.1043 17.625 38.7708C17.625 38.4373 17.8957 38.1666 18.2292 38.1666C18.5627 38.1666 18.8333 38.4373 18.8333 38.7708Z" fill="white"/>
<path d="M38.7708 34.5417C38.6609 34.5417 38.5509 34.5477 38.4434 34.5574C37.4368 33.0469 35.7464 32.125 33.9375 32.125C31.1245 32.125 28.8033 34.2722 28.5278 37.0139C27.137 37.2822 26.0834 38.5099 26.0834 39.9792C26.0834 41.6442 27.4391 43 29.1042 43H38.7709C41.1029 43 43 41.1029 43 38.7708C43 36.4387 41.1029 34.5417 38.7708 34.5417ZM38.7708 41.7917H29.1042C28.1049 41.7917 27.2917 40.9785 27.2917 39.9792C27.2917 38.9799 28.1049 38.1667 29.1042 38.1667C29.4377 38.1667 29.7084 37.896 29.7084 37.5625C29.7084 35.2304 31.6054 33.3333 33.9376 33.3333C35.448 33.3333 36.8557 34.1659 37.6085 35.5059C37.7342 35.7294 37.9831 35.8478 38.2417 35.8043C38.4145 35.7741 38.5897 35.7499 38.7709 35.7499C40.436 35.7499 41.7917 37.1057 41.7917 38.7708C41.7917 40.4358 40.4359 41.7917 38.7708 41.7917Z" fill="white"/>
<path d="M38.7708 22.4583H29.1042C28.7707 22.4583 28.5 22.7289 28.5 23.0624C28.5 23.3959 28.7707 23.6666 29.1042 23.6666H38.7709C39.1044 23.6666 39.3751 23.3959 39.3751 23.0624C39.3751 22.7289 39.1043 22.4583 38.7708 22.4583Z" fill="white"/>
<path d="M38.7708 24.875H29.1042C28.7707 24.875 28.5 25.1457 28.5 25.4792C28.5 25.8127 28.7707 26.0834 29.1042 26.0834H38.7709C39.1044 26.0834 39.3751 25.8127 39.3751 25.4792C39.3751 25.1457 39.1043 24.875 38.7708 24.875Z" fill="white"/>
<path d="M18.2292 22.4583C17.2298 22.4583 16.4167 23.2703 16.4167 24.2708C16.4167 25.2713 17.2298 26.0833 18.2292 26.0833C19.2285 26.0833 20.0417 25.2701 20.0417 24.2708C20.0417 23.2715 19.2284 22.4583 18.2292 22.4583ZM18.2292 24.8749C17.8957 24.8749 17.625 24.6043 17.625 24.2708C17.625 23.9373 17.8957 23.6666 18.2292 23.6666C18.5627 23.6666 18.8333 23.9373 18.8333 24.2708C18.8333 24.6043 18.5627 24.8749 18.2292 24.8749Z" fill="white"/>
<path d="M16.4167 31.5208C16.4167 32.5201 17.2298 33.3333 18.2292 33.3333C19.2285 33.3333 20.0417 32.5201 20.0417 31.5208C20.0417 30.5214 19.2285 29.7083 18.2292 29.7083C17.2298 29.7083 16.4167 30.5203 16.4167 31.5208ZM18.8333 31.5208C18.8333 31.8543 18.5626 32.1249 18.2291 32.1249C17.8956 32.1249 17.625 31.8543 17.625 31.5208C17.625 31.1873 17.8957 30.9166 18.2292 30.9166C18.5627 30.9166 18.8333 31.1873 18.8333 31.5208Z" fill="white"/>
</g>
<defs>
<clipPath id="clip0_106_185">
<rect width="29" height="29" fill="white" transform="translate(14 14)"/>
</clipPath>
</defs>
</svg>
