<svg width="373" height="667" viewBox="0 0 373 667" fill="none" xmlns="http://www.w3.org/2000/svg">
<rect width="372.563" height="667" fill="#0000FF"/>
<mask id="mask0_434_647" style="mask-type:alpha" maskUnits="userSpaceOnUse" x="0" y="0" width="373" height="667">
<rect width="372.563" height="667" fill="#161616"/>
</mask>
<g mask="url(#mask0_434_647)">
<path d="M-6.84 475C-8.03 475 -9 475.97 -9 477.16C-9 478.35 -8.03 479.32 -6.84 479.32C-5.65 479.32 -4.68 478.35 -4.68 477.16C-4.69 475.97 -5.66 475 -6.84 475ZM-6.84 478.38C-7.51 478.38 -8.06 477.83 -8.06 477.16C-8.06 476.49 -7.51 475.94 -6.84 475.94C-6.17 475.94 -5.62 476.49 -5.62 477.16C-5.62 477.83 -6.17 478.38 -6.84 478.38ZM-6.84 670.84C-8.03 670.84 -9 671.81 -9 673C-9 674.19 -8.03 675.16 -6.84 675.16C-5.65 675.16 -4.68 674.19 -4.68 673C-4.69 671.81 -5.66 670.84 -6.84 670.84ZM-6.84 674.22C-7.51 674.22 -8.06 673.67 -8.06 673C-8.06 672.33 -7.51 671.78 -6.84 671.78C-6.17 671.78 -5.62 672.33 -5.62 673C-5.62 673.67 -6.17 674.22 -6.84 674.22ZM-6.84 867.07C-8.03 867.07 -9 868.04 -9 869.23C-9 870.42 -8.03 871.39 -6.84 871.39C-5.65 871.39 -4.68 870.42 -4.68 869.23C-4.68 868.04 -5.66 867.07 -6.84 867.07ZM-6.84 870.45C-7.51 870.45 -8.06 869.9 -8.06 869.23C-8.06 868.56 -7.52 868 -6.84 868C-6.16 868 -5.62 868.55 -5.62 869.22C-5.62 869.89 -6.17 870.45 -6.84 870.45ZM-6.84 964.76C-8.03 964.76 -9 965.73 -9 966.92C-9 968.11 -8.03 969.08 -6.84 969.08C-5.65 969.08 -4.68 968.11 -4.68 966.92C-4.69 965.73 -5.66 964.76 -6.84 964.76ZM-6.84 968.14C-7.51 968.14 -8.06 967.59 -8.06 966.92C-8.06 966.25 -7.51 965.7 -6.84 965.7C-6.17 965.7 -5.62 966.25 -5.62 966.92C-5.62 967.59 -6.17 968.14 -6.84 968.14ZM-6.84 768.96C-8.03 768.96 -9 769.93 -9 771.12C-9 772.31 -8.03 773.28 -6.84 773.28C-5.65 773.28 -4.68 772.31 -4.68 771.12C-4.69 769.92 -5.66 768.96 -6.84 768.96ZM-6.84 772.33C-7.51 772.33 -8.06 771.78 -8.06 771.11C-8.06 770.44 -7.51 769.89 -6.84 769.89C-6.17 769.89 -5.62 770.44 -5.62 771.11C-5.62 771.78 -6.17 772.33 -6.84 772.33ZM91.08 475C89.89 475 88.92 475.97 88.92 477.16C88.92 478.35 89.89 479.32 91.08 479.32C92.27 479.32 93.24 478.35 93.24 477.16C93.23 475.97 92.27 475 91.08 475ZM91.08 478.38C90.41 478.38 89.86 477.83 89.86 477.16C89.86 476.49 90.41 475.94 91.08 475.94C91.75 475.94 92.3 476.49 92.3 477.16C92.3 477.83 91.75 478.38 91.08 478.38ZM91.08 670.84C89.89 670.84 88.92 671.81 88.92 673C88.92 674.19 89.89 675.16 91.08 675.16C92.27 675.16 93.24 674.19 93.24 673C93.23 671.81 92.27 670.84 91.08 670.84ZM91.08 674.22C90.41 674.22 89.86 673.67 89.86 673C89.86 672.33 90.41 671.78 91.08 671.78C91.75 671.78 92.3 672.33 92.3 673C92.3 673.67 91.75 674.22 91.08 674.22ZM91.08 867.07C89.89 867.07 88.92 868.04 88.92 869.23C88.92 870.42 89.89 871.39 91.08 871.39C92.27 871.39 93.24 870.42 93.24 869.23C93.24 868.04 92.27 867.07 91.08 867.07ZM91.08 870.45C90.41 870.45 89.86 869.9 89.86 869.23C89.86 868.56 90.41 868.01 91.08 868.01C91.75 868.01 92.3 868.56 92.3 869.23C92.3 869.9 91.75 870.45 91.08 870.45ZM91.08 964.76C89.89 964.76 88.92 965.73 88.92 966.92C88.92 968.11 89.89 969.08 91.08 969.08C92.27 969.08 93.24 968.11 93.24 966.92C93.23 965.73 92.27 964.76 91.08 964.76ZM91.08 968.14C90.41 968.14 89.86 967.59 89.86 966.92C89.86 966.25 90.41 965.7 91.08 965.7C91.75 965.7 92.3 966.25 92.3 966.92C92.3 967.59 91.75 968.14 91.08 968.14ZM91.08 768.96C89.89 768.96 88.92 769.93 88.92 771.12C88.92 772.31 89.89 773.28 91.08 773.28C92.27 773.28 93.24 772.31 93.24 771.12C93.23 769.92 92.27 768.96 91.08 768.96ZM91.08 772.33C90.41 772.33 89.86 771.78 89.86 771.11C89.86 770.44 90.41 769.89 91.08 769.89C91.75 769.89 92.3 770.44 92.3 771.11C92.3 771.78 91.75 772.33 91.08 772.33ZM140.04 475C138.85 475 137.88 475.97 137.88 477.16C137.88 478.35 138.85 479.32 140.04 479.32C141.23 479.32 142.2 478.35 142.2 477.16C142.19 475.97 141.23 475 140.04 475ZM140.04 478.38C139.37 478.38 138.82 477.83 138.82 477.16C138.82 476.49 139.37 475.94 140.04 475.94C140.71 475.94 141.26 476.49 141.26 477.16C141.26 477.83 140.71 478.38 140.04 478.38ZM140.04 670.84C138.85 670.84 137.88 671.81 137.88 673C137.88 674.19 138.85 675.16 140.04 675.16C141.23 675.16 142.2 674.19 142.2 673C142.19 671.81 141.23 670.84 140.04 670.84ZM140.04 674.22C139.37 674.22 138.82 673.67 138.82 673C138.82 672.33 139.37 671.78 140.04 671.78C140.71 671.78 141.26 672.33 141.26 673C141.26 673.67 140.71 674.22 140.04 674.22ZM140.04 867.07C138.85 867.07 137.88 868.04 137.88 869.23C137.88 870.42 138.85 871.39 140.04 871.39C141.23 871.39 142.2 870.42 142.2 869.23C142.2 868.04 141.23 867.07 140.04 867.07ZM140.04 870.45C139.37 870.45 138.82 869.9 138.82 869.23C138.82 868.56 139.37 868.01 140.04 868.01C140.71 868.01 141.26 868.56 141.26 869.23C141.26 869.9 140.71 870.45 140.04 870.45ZM140.04 964.76C138.85 964.76 137.88 965.73 137.88 966.92C137.88 968.11 138.85 969.08 140.04 969.08C141.23 969.08 142.2 968.11 142.2 966.92C142.19 965.73 141.23 964.76 140.04 964.76ZM140.04 968.14C139.37 968.14 138.82 967.59 138.82 966.92C138.82 966.25 139.37 965.7 140.04 965.7C140.71 965.7 141.26 966.25 141.26 966.92C141.26 967.59 140.71 968.14 140.04 968.14ZM140.04 768.96C138.85 768.96 137.88 769.93 137.88 771.12C137.88 772.31 138.85 773.28 140.04 773.28C141.23 773.28 142.2 772.31 142.2 771.12C142.19 769.92 141.23 768.96 140.04 768.96ZM140.04 772.33C139.37 772.33 138.82 771.78 138.82 771.11C138.82 770.44 139.37 769.89 140.04 769.89C140.71 769.89 141.26 770.44 141.26 771.11C141.26 771.78 140.71 772.33 140.04 772.33ZM237.96 475C236.77 475 235.8 475.97 235.8 477.16C235.8 478.35 236.77 479.32 237.96 479.32C239.15 479.32 240.12 478.35 240.12 477.16C240.12 475.97 239.15 475 237.96 475ZM237.96 478.38C237.29 478.38 236.74 477.83 236.74 477.16C236.74 476.49 237.29 475.94 237.96 475.94C238.63 475.94 239.18 476.49 239.18 477.16C239.18 477.83 238.63 478.38 237.96 478.38ZM237.96 670.84C236.77 670.84 235.8 671.81 235.8 673C235.8 674.19 236.77 675.16 237.96 675.16C239.15 675.16 240.12 674.19 240.12 673C240.12 671.81 239.15 670.84 237.96 670.84ZM237.96 674.22C237.29 674.22 236.74 673.67 236.74 673C236.74 672.33 237.29 671.78 237.96 671.78C238.63 671.78 239.18 672.33 239.18 673C239.18 673.67 238.63 674.22 237.96 674.22ZM237.96 867.07C236.77 867.07 235.8 868.04 235.8 869.23C235.8 870.42 236.77 871.39 237.96 871.39C239.15 871.39 240.12 870.42 240.12 869.23C240.12 868.04 239.15 867.07 237.96 867.07ZM237.96 870.45C237.29 870.45 236.74 869.9 236.74 869.23C236.74 868.56 237.29 868.01 237.96 868.01C238.63 868.01 239.18 868.56 239.18 869.23C239.18 869.9 238.63 870.45 237.96 870.45ZM237.96 964.76C236.77 964.76 235.8 965.73 235.8 966.92C235.8 968.11 236.77 969.08 237.96 969.08C239.15 969.08 240.12 968.11 240.12 966.92C240.12 965.73 239.15 964.76 237.96 964.76ZM237.96 968.14C237.29 968.14 236.74 967.59 236.74 966.92C236.74 966.25 237.29 965.7 237.96 965.7C238.63 965.7 239.18 966.25 239.18 966.92C239.18 967.59 238.63 968.14 237.96 968.14ZM237.96 768.96C236.77 768.96 235.8 769.93 235.8 771.12C235.8 772.31 236.77 773.28 237.96 773.28C239.15 773.28 240.12 772.31 240.12 771.12C240.12 769.92 239.15 768.96 237.96 768.96ZM237.96 772.33C237.29 772.33 236.74 771.78 236.74 771.11C236.74 770.44 237.29 769.89 237.96 769.89C238.63 769.89 239.18 770.44 239.18 771.11C239.18 771.78 238.63 772.33 237.96 772.33ZM335.88 475C334.69 475 333.72 475.97 333.72 477.16C333.72 478.35 334.69 479.32 335.88 479.32C337.07 479.32 338.04 478.35 338.04 477.16C338.04 475.97 337.07 475 335.88 475ZM335.88 478.38C335.21 478.38 334.66 477.83 334.66 477.16C334.66 476.49 335.21 475.94 335.88 475.94C336.55 475.94 337.1 476.49 337.1 477.16C337.1 477.83 336.56 478.38 335.88 478.38ZM335.88 670.84C334.69 670.84 333.72 671.81 333.72 673C333.72 674.19 334.69 675.16 335.88 675.16C337.07 675.16 338.04 674.19 338.04 673C338.04 671.81 337.07 670.84 335.88 670.84ZM335.88 674.22C335.21 674.22 334.66 673.67 334.66 673C334.66 672.33 335.21 671.78 335.88 671.78C336.55 671.78 337.1 672.33 337.1 673C337.1 673.67 336.56 674.22 335.88 674.22ZM335.88 867.07C334.69 867.07 333.72 868.04 333.72 869.23C333.72 870.42 334.69 871.39 335.88 871.39C337.07 871.39 338.04 870.42 338.04 869.23C338.04 868.04 337.07 867.07 335.88 867.07ZM335.88 870.45C335.21 870.45 334.66 869.9 334.66 869.23C334.66 868.56 335.21 868.01 335.88 868.01C336.55 868.01 337.1 868.56 337.1 869.23C337.1 869.9 336.56 870.45 335.88 870.45ZM335.88 964.76C334.69 964.76 333.72 965.73 333.72 966.92C333.72 968.11 334.69 969.08 335.88 969.08C337.07 969.08 338.04 968.11 338.04 966.92C338.04 965.73 337.07 964.76 335.88 964.76ZM335.88 968.14C335.21 968.14 334.66 967.59 334.66 966.92C334.66 966.25 335.21 965.7 335.88 965.7C336.55 965.7 337.1 966.25 337.1 966.92C337.1 967.59 336.56 968.14 335.88 968.14ZM335.88 768.96C334.69 768.96 333.72 769.93 333.72 771.12C333.72 772.31 334.69 773.28 335.88 773.28C337.07 773.28 338.04 772.31 338.04 771.12C338.04 769.92 337.07 768.96 335.88 768.96ZM335.88 772.33C335.21 772.33 334.66 771.78 334.66 771.11C334.66 770.44 335.21 769.89 335.88 769.89C336.55 769.89 337.1 770.44 337.1 771.11C337.1 771.78 336.56 772.33 335.88 772.33ZM433.8 475C432.61 475 431.64 475.97 431.64 477.16C431.64 478.35 432.61 479.32 433.8 479.32C434.99 479.32 435.96 478.35 435.96 477.16C435.96 475.97 434.99 475 433.8 475ZM433.8 478.38C433.13 478.38 432.58 477.83 432.58 477.16C432.58 476.49 433.13 475.94 433.8 475.94C434.47 475.94 435.02 476.49 435.02 477.16C435.02 477.83 434.48 478.38 433.8 478.38ZM433.8 670.84C432.61 670.84 431.64 671.81 431.64 673C431.64 674.19 432.61 675.16 433.8 675.16C434.99 675.16 435.96 674.19 435.96 673C435.96 671.81 434.99 670.84 433.8 670.84ZM433.8 674.22C433.13 674.22 432.58 673.67 432.58 673C432.58 672.33 433.13 671.78 433.8 671.78C434.47 671.78 435.02 672.33 435.02 673C435.02 673.67 434.48 674.22 433.8 674.22ZM433.8 867.07C432.61 867.07 431.64 868.04 431.64 869.23C431.64 870.42 432.61 871.39 433.8 871.39C434.99 871.39 435.96 870.42 435.96 869.23C435.96 868.04 434.99 867.07 433.8 867.07ZM433.8 870.45C433.13 870.45 432.58 869.9 432.58 869.23C432.58 868.56 433.13 868.01 433.8 868.01C434.47 868.01 435.02 868.56 435.02 869.23C435.02 869.9 434.48 870.45 433.8 870.45ZM433.8 964.76C432.61 964.76 431.64 965.73 431.64 966.92C431.64 968.11 432.61 969.08 433.8 969.08C434.99 969.08 435.96 968.11 435.96 966.92C435.96 965.73 434.99 964.76 433.8 964.76ZM433.8 968.14C433.13 968.14 432.58 967.59 432.58 966.92C432.58 966.25 433.13 965.7 433.8 965.7C434.47 965.7 435.02 966.25 435.02 966.92C435.02 967.59 434.48 968.14 433.8 968.14ZM433.8 768.96C432.61 768.96 431.64 769.93 431.64 771.12C431.64 772.31 432.61 773.28 433.8 773.28C434.99 773.28 435.96 772.31 435.96 771.12C435.96 769.92 434.99 768.96 433.8 768.96ZM433.8 772.33C433.13 772.33 432.58 771.78 432.58 771.11C432.58 770.44 433.13 769.89 433.8 769.89C434.47 769.89 435.02 770.44 435.02 771.11C435.02 771.78 434.48 772.33 433.8 772.33ZM189 475.08C187.81 475.08 186.84 476.05 186.84 477.24C186.84 478.43 187.81 479.4 189 479.4C190.19 479.4 191.16 478.43 191.16 477.24C191.16 476.05 190.19 475.08 189 475.08ZM189 478.46C188.33 478.46 187.78 477.91 187.78 477.24C187.78 476.57 188.33 476.02 189 476.02C189.67 476.02 190.22 476.57 190.22 477.24C190.22 477.91 189.67 478.46 189 478.46ZM189 670.93C187.81 670.93 186.84 671.9 186.84 673.09C186.84 674.28 187.81 675.25 189 675.25C190.19 675.25 191.16 674.28 191.16 673.09C191.16 671.9 190.19 670.93 189 670.93ZM189 674.31C188.33 674.31 187.78 673.76 187.78 673.09C187.78 672.42 188.33 671.87 189 671.87C189.67 671.87 190.22 672.42 190.22 673.09C190.22 673.76 189.67 674.31 189 674.31ZM189 867.15C187.81 867.15 186.84 868.12 186.84 869.31C186.84 870.5 187.81 871.47 189 871.47C190.19 871.47 191.16 870.5 191.16 869.31C191.16 868.12 190.19 867.15 189 867.15ZM189 870.53C188.33 870.53 187.78 869.98 187.78 869.31C187.78 868.64 188.33 868.09 189 868.09C189.67 868.09 190.22 868.64 190.22 869.31C190.22 869.98 189.67 870.53 189 870.53ZM189 964.84C187.81 964.84 186.84 965.81 186.84 967C186.84 968.19 187.81 969.16 189 969.16C190.19 969.16 191.16 968.19 191.16 967C191.16 965.81 190.19 964.84 189 964.84ZM189 968.22C188.33 968.22 187.78 967.67 187.78 967C187.78 966.33 188.33 965.78 189 965.78C189.67 965.78 190.22 966.33 190.22 967C190.22 967.67 189.67 968.22 189 968.22ZM189 769.04C187.81 769.04 186.84 770.01 186.84 771.2C186.84 772.39 187.81 773.36 189 773.36C190.19 773.36 191.16 772.39 191.16 771.2C191.16 770.01 190.19 769.04 189 769.04ZM189 772.42C188.33 772.42 187.78 771.87 187.78 771.2C187.78 770.53 188.33 769.98 189 769.98C189.67 769.98 190.22 770.53 190.22 771.2C190.22 771.87 189.67 772.42 189 772.42ZM42.12 475.08C40.93 475.08 39.96 476.05 39.96 477.24C39.96 478.43 40.93 479.4 42.12 479.4C43.31 479.4 44.28 478.43 44.28 477.24C44.27 476.05 43.31 475.08 42.12 475.08ZM42.12 478.46C41.45 478.46 40.9 477.91 40.9 477.24C40.9 476.57 41.45 476.02 42.12 476.02C42.79 476.02 43.34 476.57 43.34 477.24C43.34 477.91 42.79 478.46 42.12 478.46ZM42.12 670.93C40.93 670.93 39.96 671.9 39.96 673.09C39.96 674.28 40.93 675.25 42.12 675.25C43.31 675.25 44.28 674.28 44.28 673.09C44.27 671.9 43.31 670.93 42.12 670.93ZM42.12 674.31C41.45 674.31 40.9 673.76 40.9 673.09C40.9 672.42 41.45 671.87 42.12 671.87C42.79 671.87 43.34 672.42 43.34 673.09C43.34 673.76 42.79 674.31 42.12 674.31ZM42.12 867.15C40.93 867.15 39.96 868.12 39.96 869.31C39.96 870.5 40.93 871.47 42.12 871.47C43.31 871.47 44.28 870.5 44.28 869.31C44.27 868.12 43.31 867.15 42.12 867.15ZM42.12 870.53C41.45 870.53 40.9 869.98 40.9 869.31C40.9 868.64 41.45 868.09 42.12 868.09C42.79 868.09 43.34 868.64 43.34 869.31C43.34 869.98 42.79 870.53 42.12 870.53ZM42.12 964.84C40.93 964.84 39.96 965.81 39.96 967C39.96 968.19 40.93 969.16 42.12 969.16C43.31 969.16 44.28 968.19 44.28 967C44.28 965.81 43.31 964.84 42.12 964.84ZM42.12 968.22C41.45 968.22 40.9 967.67 40.9 967C40.9 966.33 41.45 965.78 42.12 965.78C42.79 965.78 43.34 966.33 43.34 967C43.34 967.67 42.79 968.22 42.12 968.22ZM42.12 769.04C40.93 769.04 39.96 770.01 39.96 771.2C39.96 772.39 40.93 773.36 42.12 773.36C43.31 773.36 44.28 772.39 44.28 771.2C44.28 770.01 43.31 769.04 42.12 769.04ZM42.12 772.42C41.45 772.42 40.9 771.87 40.9 771.2C40.9 770.53 41.45 769.98 42.12 769.98C42.79 769.98 43.34 770.53 43.34 771.2C43.34 771.87 42.79 772.42 42.12 772.42ZM286.92 475.08C285.73 475.08 284.76 476.05 284.76 477.24C284.76 478.43 285.73 479.4 286.92 479.4C288.11 479.4 289.08 478.43 289.08 477.24C289.08 476.05 288.11 475.08 286.92 475.08ZM286.92 478.46C286.25 478.46 285.7 477.91 285.7 477.24C285.7 476.57 286.25 476.02 286.92 476.02C287.59 476.02 288.14 476.57 288.14 477.24C288.14 477.91 287.59 478.46 286.92 478.46ZM286.92 670.93C285.73 670.93 284.76 671.9 284.76 673.09C284.76 674.28 285.73 675.25 286.92 675.25C288.11 675.25 289.08 674.28 289.08 673.09C289.08 671.9 288.11 670.93 286.92 670.93ZM286.92 674.31C286.25 674.31 285.7 673.76 285.7 673.09C285.7 672.42 286.25 671.87 286.92 671.87C287.59 671.87 288.14 672.42 288.14 673.09C288.14 673.76 287.59 674.31 286.92 674.31ZM286.92 867.15C285.73 867.15 284.76 868.12 284.76 869.31C284.76 870.5 285.73 871.47 286.92 871.47C288.11 871.47 289.08 870.5 289.08 869.31C289.08 868.12 288.11 867.15 286.92 867.15ZM286.92 870.53C286.25 870.53 285.7 869.98 285.7 869.31C285.7 868.64 286.25 868.09 286.92 868.09C287.59 868.09 288.14 868.64 288.14 869.31C288.14 869.98 287.59 870.53 286.92 870.53ZM286.92 964.84C285.73 964.84 284.76 965.81 284.76 967C284.76 968.19 285.73 969.16 286.92 969.16C288.11 969.16 289.08 968.19 289.08 967C289.08 965.81 288.11 964.84 286.92 964.84ZM286.92 968.22C286.25 968.22 285.7 967.67 285.7 967C285.7 966.33 286.25 965.78 286.92 965.78C287.59 965.78 288.14 966.33 288.14 967C288.14 967.67 287.59 968.22 286.92 968.22ZM286.92 769.04C285.73 769.04 284.76 770.01 284.76 771.2C284.76 772.39 285.73 773.36 286.92 773.36C288.11 773.36 289.08 772.39 289.08 771.2C289.08 770.01 288.11 769.04 286.92 769.04ZM286.92 772.42C286.25 772.42 285.7 771.87 285.7 771.2C285.7 770.53 286.25 769.98 286.92 769.98C287.59 769.98 288.14 770.53 288.14 771.2C288.14 771.87 287.59 772.42 286.92 772.42ZM384.84 475.08C383.65 475.08 382.68 476.05 382.68 477.24C382.68 478.43 383.65 479.4 384.84 479.4C386.03 479.4 387 478.43 387 477.24C387 476.05 386.03 475.08 384.84 475.08ZM384.84 478.46C384.17 478.46 383.62 477.91 383.62 477.24C383.62 476.57 384.17 476.02 384.84 476.02C385.51 476.02 386.06 476.57 386.06 477.24C386.06 477.91 385.52 478.46 384.84 478.46ZM384.84 670.93C383.65 670.93 382.68 671.9 382.68 673.09C382.68 674.28 383.65 675.25 384.84 675.25C386.03 675.25 387 674.28 387 673.09C387 671.9 386.03 670.93 384.84 670.93ZM384.84 674.31C384.17 674.31 383.62 673.76 383.62 673.09C383.62 672.42 384.17 671.87 384.84 671.87C385.51 671.87 386.06 672.42 386.06 673.09C386.06 673.76 385.52 674.31 384.84 674.31ZM384.84 867.15C383.65 867.15 382.68 868.12 382.68 869.31C382.68 870.5 383.65 871.47 384.84 871.47C386.03 871.47 387 870.5 387 869.31C387 868.12 386.03 867.15 384.84 867.15ZM384.84 870.53C384.17 870.53 383.62 869.98 383.62 869.31C383.62 868.64 384.17 868.09 384.84 868.09C385.51 868.09 386.06 868.64 386.06 869.31C386.06 869.98 385.52 870.53 384.84 870.53ZM384.84 964.84C383.65 964.84 382.68 965.81 382.68 967C382.68 968.19 383.65 969.16 384.84 969.16C386.03 969.16 387 968.19 387 967C387 965.81 386.03 964.84 384.84 964.84ZM384.84 968.22C384.17 968.22 383.62 967.67 383.62 967C383.62 966.33 384.17 965.78 384.84 965.78C385.51 965.78 386.06 966.33 386.06 967C386.06 967.67 385.52 968.22 384.84 968.22ZM384.84 769.04C383.65 769.04 382.68 770.01 382.68 771.2C382.68 772.39 383.65 773.36 384.84 773.36C386.03 773.36 387 772.39 387 771.2C387 770.01 386.03 769.04 384.84 769.04ZM384.84 772.42C384.17 772.42 383.62 771.87 383.62 771.2C383.62 770.53 384.17 769.98 384.84 769.98C385.51 769.98 386.06 770.53 386.06 771.2C386.06 771.87 385.52 772.42 384.84 772.42ZM482.77 479.31C483.96 479.31 484.93 478.34 484.93 477.15C484.93 475.96 483.96 474.99 482.77 474.99C481.58 474.99 480.61 475.96 480.61 477.15C480.61 478.34 481.58 479.31 482.77 479.31ZM482.77 475.94C483.44 475.94 483.99 476.49 483.99 477.16C483.99 477.83 483.44 478.38 482.77 478.38C482.1 478.38 481.55 477.83 481.55 477.16C481.55 476.49 482.09 475.94 482.77 475.94ZM-6.84 572.88C-8.03 572.88 -9 573.85 -9 575.04C-9 576.23 -8.03 577.2 -6.84 577.2C-5.65 577.2 -4.68 576.23 -4.68 575.04C-4.69 573.85 -5.66 572.88 -6.84 572.88ZM-6.84 576.26C-7.51 576.26 -8.06 575.71 -8.06 575.04C-8.06 574.37 -7.51 573.82 -6.84 573.82C-6.17 573.82 -5.62 574.37 -5.62 575.04C-5.62 575.71 -6.17 576.26 -6.84 576.26ZM91.08 572.88C89.89 572.88 88.92 573.85 88.92 575.04C88.92 576.23 89.89 577.2 91.08 577.2C92.27 577.2 93.24 576.23 93.24 575.04C93.23 573.85 92.27 572.88 91.08 572.88ZM91.08 576.26C90.41 576.26 89.86 575.71 89.86 575.04C89.86 574.37 90.41 573.82 91.08 573.82C91.75 573.82 92.3 574.37 92.3 575.04C92.3 575.71 91.75 576.26 91.08 576.26ZM140.04 572.88C138.85 572.88 137.88 573.85 137.88 575.04C137.88 576.23 138.85 577.2 140.04 577.2C141.23 577.2 142.2 576.23 142.2 575.04C142.19 573.85 141.23 572.88 140.04 572.88ZM140.04 576.26C139.37 576.26 138.82 575.71 138.82 575.04C138.82 574.37 139.37 573.82 140.04 573.82C140.71 573.82 141.26 574.37 141.26 575.04C141.26 575.71 140.71 576.26 140.04 576.26ZM237.96 572.88C236.77 572.88 235.8 573.85 235.8 575.04C235.8 576.23 236.77 577.2 237.96 577.2C239.15 577.2 240.12 576.23 240.12 575.04C240.12 573.85 239.15 572.88 237.96 572.88ZM237.96 576.26C237.29 576.26 236.74 575.71 236.74 575.04C236.74 574.37 237.29 573.82 237.96 573.82C238.63 573.82 239.18 574.37 239.18 575.04C239.18 575.71 238.63 576.26 237.96 576.26ZM335.88 572.88C334.69 572.88 333.72 573.85 333.72 575.04C333.72 576.23 334.69 577.2 335.88 577.2C337.07 577.2 338.04 576.23 338.04 575.04C338.04 573.85 337.07 572.88 335.88 572.88ZM335.88 576.26C335.21 576.26 334.66 575.71 334.66 575.04C334.66 574.37 335.21 573.82 335.88 573.82C336.55 573.82 337.1 574.37 337.1 575.04C337.1 575.71 336.56 576.26 335.88 576.26ZM433.8 572.88C432.61 572.88 431.64 573.85 431.64 575.04C431.64 576.23 432.61 577.2 433.8 577.2C434.99 577.2 435.96 576.23 435.96 575.04C435.96 573.85 434.99 572.88 433.8 572.88ZM433.8 576.26C433.13 576.26 432.58 575.71 432.58 575.04C432.58 574.37 433.13 573.82 433.8 573.82C434.47 573.82 435.02 574.37 435.02 575.04C435.02 575.71 434.48 576.26 433.8 576.26ZM189 572.96C187.81 572.96 186.84 573.93 186.84 575.12C186.84 576.31 187.81 577.28 189 577.28C190.19 577.28 191.16 576.31 191.16 575.12C191.16 573.93 190.19 572.96 189 572.96ZM189 576.34C188.33 576.34 187.78 575.79 187.78 575.12C187.78 574.45 188.33 573.9 189 573.9C189.67 573.9 190.22 574.45 190.22 575.12C190.22 575.79 189.67 576.34 189 576.34ZM42.12 572.96C40.93 572.96 39.96 573.93 39.96 575.12C39.96 576.31 40.93 577.28 42.12 577.28C43.31 577.28 44.28 576.31 44.28 575.12C44.28 573.93 43.31 572.96 42.12 572.96ZM42.12 576.34C41.45 576.34 40.9 575.79 40.9 575.12C40.9 574.45 41.45 573.9 42.12 573.9C42.79 573.9 43.34 574.45 43.34 575.12C43.34 575.79 42.79 576.34 42.12 576.34ZM286.92 572.96C285.73 572.96 284.76 573.93 284.76 575.12C284.76 576.31 285.73 577.28 286.92 577.28C288.11 577.28 289.08 576.31 289.08 575.12C289.08 573.93 288.11 572.96 286.92 572.96ZM286.92 576.34C286.25 576.34 285.7 575.79 285.7 575.12C285.7 574.45 286.25 573.9 286.92 573.9C287.59 573.9 288.14 574.45 288.14 575.12C288.14 575.79 287.59 576.34 286.92 576.34ZM384.84 572.96C383.65 572.96 382.68 573.93 382.68 575.12C382.68 576.31 383.65 577.28 384.84 577.28C386.03 577.28 387 576.31 387 575.12C387 573.93 386.03 572.96 384.84 572.96ZM384.84 576.34C384.17 576.34 383.62 575.79 383.62 575.12C383.62 574.45 384.17 573.9 384.84 573.9C385.51 573.9 386.06 574.45 386.06 575.12C386.06 575.79 385.52 576.34 384.84 576.34ZM482.77 572.88C481.58 572.88 480.61 573.85 480.61 575.04C480.61 576.23 481.58 577.2 482.77 577.2C483.96 577.2 484.93 576.23 484.93 575.04C484.92 573.85 483.95 572.88 482.77 572.88ZM482.77 576.26C482.1 576.26 481.55 575.71 481.55 575.04C481.55 574.37 482.1 573.82 482.77 573.82C483.44 573.82 483.99 574.37 483.99 575.04C483.99 575.71 483.44 576.26 482.77 576.26ZM-6.84 524.11C-8.03 524.11 -9 525.08 -9 526.27C-9 527.46 -8.03 528.43 -6.84 528.43C-5.65 528.43 -4.68 527.46 -4.68 526.27C-4.68 525.08 -5.66 524.11 -6.84 524.11ZM-6.84 527.49C-7.51 527.49 -8.06 526.94 -8.06 526.27C-8.06 525.6 -7.51 525.05 -6.84 525.05C-6.17 525.05 -5.62 525.6 -5.62 526.27C-5.62 526.94 -6.17 527.49 -6.84 527.49ZM91.08 524.11C89.89 524.11 88.92 525.08 88.92 526.27C88.92 527.46 89.89 528.43 91.08 528.43C92.27 528.43 93.24 527.46 93.24 526.27C93.24 525.08 92.27 524.11 91.08 524.11ZM91.08 527.49C90.41 527.49 89.86 526.94 89.86 526.27C89.86 525.6 90.41 525.05 91.08 525.05C91.75 525.05 92.3 525.6 92.3 526.27C92.3 526.94 91.75 527.49 91.08 527.49ZM140.04 524.11C138.85 524.11 137.88 525.08 137.88 526.27C137.88 527.46 138.85 528.43 140.04 528.43C141.23 528.43 142.2 527.46 142.2 526.27C142.2 525.08 141.23 524.11 140.04 524.11ZM140.04 527.49C139.37 527.49 138.82 526.94 138.82 526.27C138.82 525.6 139.37 525.05 140.04 525.05C140.71 525.05 141.26 525.6 141.26 526.27C141.26 526.94 140.71 527.49 140.04 527.49ZM237.96 524.11C236.77 524.11 235.8 525.08 235.8 526.27C235.8 527.46 236.77 528.43 237.96 528.43C239.15 528.43 240.12 527.46 240.12 526.27C240.12 525.08 239.15 524.11 237.96 524.11ZM237.96 527.49C237.29 527.49 236.74 526.94 236.74 526.27C236.74 525.6 237.29 525.05 237.96 525.05C238.63 525.05 239.18 525.6 239.18 526.27C239.18 526.94 238.63 527.49 237.96 527.49ZM335.88 524.11C334.69 524.11 333.72 525.08 333.72 526.27C333.72 527.46 334.69 528.43 335.88 528.43C337.07 528.43 338.04 527.46 338.04 526.27C338.04 525.08 337.07 524.11 335.88 524.11ZM335.88 527.49C335.21 527.49 334.66 526.94 334.66 526.27C334.66 525.6 335.21 525.05 335.88 525.05C336.55 525.05 337.1 525.6 337.1 526.27C337.1 526.94 336.56 527.49 335.88 527.49ZM433.8 524.11C432.61 524.11 431.64 525.08 431.64 526.27C431.64 527.46 432.61 528.43 433.8 528.43C434.99 528.43 435.96 527.46 435.96 526.27C435.96 525.08 434.99 524.11 433.8 524.11ZM433.8 527.49C433.13 527.49 432.58 526.94 432.58 526.27C432.58 525.6 433.13 525.05 433.8 525.05C434.47 525.05 435.02 525.6 435.02 526.27C435.02 526.94 434.48 527.49 433.8 527.49ZM189 524.19C187.81 524.19 186.84 525.16 186.84 526.35C186.84 527.54 187.81 528.51 189 528.51C190.19 528.51 191.16 527.54 191.16 526.35C191.16 525.16 190.19 524.19 189 524.19ZM189 527.57C188.33 527.57 187.78 527.02 187.78 526.35C187.78 525.68 188.33 525.13 189 525.13C189.67 525.13 190.22 525.68 190.22 526.35C190.22 527.02 189.67 527.57 189 527.57ZM42.12 524.19C40.93 524.19 39.96 525.16 39.96 526.35C39.96 527.54 40.93 528.51 42.12 528.51C43.31 528.51 44.28 527.54 44.28 526.35C44.28 525.16 43.31 524.19 42.12 524.19ZM42.12 527.57C41.45 527.57 40.9 527.02 40.9 526.35C40.9 525.68 41.45 525.13 42.12 525.13C42.79 525.13 43.34 525.68 43.34 526.35C43.34 527.02 42.79 527.57 42.12 527.57ZM286.92 524.19C285.73 524.19 284.76 525.16 284.76 526.35C284.76 527.54 285.73 528.51 286.92 528.51C288.11 528.51 289.08 527.54 289.08 526.35C289.08 525.16 288.11 524.19 286.92 524.19ZM286.92 527.57C286.25 527.57 285.7 527.02 285.7 526.35C285.7 525.68 286.25 525.13 286.92 525.13C287.59 525.13 288.14 525.68 288.14 526.35C288.14 527.02 287.59 527.57 286.92 527.57ZM384.84 524.19C383.65 524.19 382.68 525.16 382.68 526.35C382.68 527.54 383.65 528.51 384.84 528.51C386.03 528.51 387 527.54 387 526.35C387 525.16 386.03 524.19 384.84 524.19ZM384.84 527.57C384.17 527.57 383.62 527.02 383.62 526.35C383.62 525.68 384.17 525.13 384.84 525.13C385.51 525.13 386.06 525.68 386.06 526.35C386.06 527.02 385.52 527.57 384.84 527.57ZM482.77 524.11C481.58 524.11 480.61 525.08 480.61 526.27C480.61 527.46 481.58 528.43 482.77 528.43C483.96 528.43 484.93 527.46 484.93 526.27C484.93 525.08 483.95 524.11 482.77 524.11ZM482.77 527.49C482.1 527.49 481.55 526.94 481.55 526.27C481.55 525.6 482.1 525.05 482.77 525.05C483.44 525.05 483.99 525.6 483.99 526.27C483.99 526.94 483.44 527.49 482.77 527.49ZM482.77 670.84C481.58 670.84 480.61 671.81 480.61 673C480.61 674.19 481.58 675.16 482.77 675.16C483.96 675.16 484.93 674.19 484.93 673C484.92 671.81 483.95 670.84 482.77 670.84ZM482.77 674.22C482.1 674.22 481.55 673.67 481.55 673C481.55 672.33 482.1 671.78 482.77 671.78C483.44 671.78 483.99 672.33 483.99 673C483.99 673.67 483.44 674.22 482.77 674.22ZM482.77 867.07C481.58 867.07 480.61 868.04 480.61 869.23C480.61 870.42 481.58 871.39 482.77 871.39C483.96 871.39 484.93 870.42 484.93 869.23C484.93 868.04 483.95 867.07 482.77 867.07ZM482.77 870.45C482.1 870.45 481.55 869.9 481.55 869.23C481.55 868.56 482.1 868.01 482.77 868.01C483.44 868.01 483.99 868.56 483.99 869.23C483.99 869.9 483.44 870.45 482.77 870.45ZM482.77 964.76C481.58 964.76 480.61 965.73 480.61 966.92C480.61 968.11 481.58 969.08 482.77 969.08C483.96 969.08 484.93 968.11 484.93 966.92C484.92 965.73 483.95 964.76 482.77 964.76ZM482.77 968.14C482.1 968.14 481.55 967.59 481.55 966.92C481.55 966.25 482.1 965.7 482.77 965.7C483.44 965.7 483.99 966.25 483.99 966.92C483.99 967.59 483.44 968.14 482.77 968.14ZM482.77 768.96C481.58 768.96 480.61 769.93 480.61 771.12C480.61 772.31 481.58 773.28 482.77 773.28C483.96 773.28 484.93 772.31 484.93 771.12C484.92 769.92 483.95 768.96 482.77 768.96ZM482.77 772.33C482.1 772.33 481.55 771.78 481.55 771.11C481.55 770.44 482.1 769.89 482.77 769.89C483.44 769.89 483.99 770.44 483.99 771.11C483.99 771.78 483.44 772.33 482.77 772.33ZM-6.84 621.84C-8.03 621.84 -9 622.81 -9 624C-9 625.19 -8.03 626.16 -6.84 626.16C-5.65 626.16 -4.68 625.19 -4.68 624C-4.69 622.81 -5.66 621.84 -6.84 621.84ZM-6.84 625.22C-7.51 625.22 -8.06 624.67 -8.06 624C-8.06 623.33 -7.51 622.78 -6.84 622.78C-6.17 622.78 -5.62 623.33 -5.62 624C-5.62 624.67 -6.17 625.22 -6.84 625.22ZM91.08 621.84C89.89 621.84 88.92 622.81 88.92 624C88.92 625.19 89.89 626.16 91.08 626.16C92.27 626.16 93.24 625.19 93.24 624C93.23 622.81 92.27 621.84 91.08 621.84ZM91.08 625.22C90.41 625.22 89.86 624.67 89.86 624C89.86 623.33 90.41 622.78 91.08 622.78C91.75 622.78 92.3 623.33 92.3 624C92.3 624.67 91.75 625.22 91.08 625.22ZM140.04 621.84C138.85 621.84 137.88 622.81 137.88 624C137.88 625.19 138.85 626.16 140.04 626.16C141.23 626.16 142.2 625.19 142.2 624C142.19 622.81 141.23 621.84 140.04 621.84ZM140.04 625.22C139.37 625.22 138.82 624.67 138.82 624C138.82 623.33 139.37 622.78 140.04 622.78C140.71 622.78 141.26 623.33 141.26 624C141.26 624.67 140.71 625.22 140.04 625.22ZM237.96 621.84C236.77 621.84 235.8 622.81 235.8 624C235.8 625.19 236.77 626.16 237.96 626.16C239.15 626.16 240.12 625.19 240.12 624C240.12 622.81 239.15 621.84 237.96 621.84ZM237.96 625.22C237.29 625.22 236.74 624.67 236.74 624C236.74 623.33 237.29 622.78 237.96 622.78C238.63 622.78 239.18 623.33 239.18 624C239.18 624.67 238.63 625.22 237.96 625.22ZM335.88 621.84C334.69 621.84 333.72 622.81 333.72 624C333.72 625.19 334.69 626.16 335.88 626.16C337.07 626.16 338.04 625.19 338.04 624C338.04 622.81 337.07 621.84 335.88 621.84ZM335.88 625.22C335.21 625.22 334.66 624.67 334.66 624C334.66 623.33 335.21 622.78 335.88 622.78C336.55 622.78 337.1 623.33 337.1 624C337.1 624.67 336.56 625.22 335.88 625.22ZM433.8 621.84C432.61 621.84 431.64 622.81 431.64 624C431.64 625.19 432.61 626.16 433.8 626.16C434.99 626.16 435.96 625.19 435.96 624C435.96 622.81 434.99 621.84 433.8 621.84ZM433.8 625.22C433.13 625.22 432.58 624.67 432.58 624C432.58 623.33 433.13 622.78 433.8 622.78C434.47 622.78 435.02 623.33 435.02 624C435.02 624.67 434.48 625.22 433.8 625.22ZM189 621.92C187.81 621.92 186.84 622.89 186.84 624.08C186.84 625.27 187.81 626.24 189 626.24C190.19 626.24 191.16 625.27 191.16 624.08C191.16 622.89 190.19 621.92 189 621.92ZM189 625.3C188.33 625.3 187.78 624.75 187.78 624.08C187.78 623.41 188.33 622.86 189 622.86C189.67 622.86 190.22 623.41 190.22 624.08C190.22 624.75 189.67 625.3 189 625.3ZM42.12 621.92C40.93 621.92 39.96 622.89 39.96 624.08C39.96 625.27 40.93 626.24 42.12 626.24C43.31 626.24 44.28 625.27 44.28 624.08C44.28 622.89 43.31 621.92 42.12 621.92ZM42.12 625.3C41.45 625.3 40.9 624.75 40.9 624.08C40.9 623.41 41.45 622.86 42.12 622.86C42.79 622.86 43.34 623.41 43.34 624.08C43.34 624.75 42.79 625.3 42.12 625.3ZM286.92 621.92C285.73 621.92 284.76 622.89 284.76 624.08C284.76 625.27 285.73 626.24 286.92 626.24C288.11 626.24 289.08 625.27 289.08 624.08C289.08 622.89 288.11 621.92 286.92 621.92ZM286.92 625.3C286.25 625.3 285.7 624.75 285.7 624.08C285.7 623.41 286.25 622.86 286.92 622.86C287.59 622.86 288.14 623.41 288.14 624.08C288.14 624.75 287.59 625.3 286.92 625.3ZM384.84 621.92C383.65 621.92 382.68 622.89 382.68 624.08C382.68 625.27 383.65 626.24 384.84 626.24C386.03 626.24 387 625.27 387 624.08C387 622.89 386.03 621.92 384.84 621.92ZM384.84 625.3C384.17 625.3 383.62 624.75 383.62 624.08C383.62 623.41 384.17 622.86 384.84 622.86C385.51 622.86 386.06 623.41 386.06 624.08C386.06 624.75 385.52 625.3 384.84 625.3ZM482.77 621.84C481.58 621.84 480.61 622.81 480.61 624C480.61 625.19 481.58 626.16 482.77 626.16C483.96 626.16 484.93 625.19 484.93 624C484.92 622.81 483.95 621.84 482.77 621.84ZM482.77 625.22C482.1 625.22 481.55 624.67 481.55 624C481.55 623.33 482.1 622.78 482.77 622.78C483.44 622.78 483.99 623.33 483.99 624C483.99 624.67 483.44 625.22 482.77 625.22ZM-6.84 719.57C-8.03 719.57 -9 720.54 -9 721.73C-9 722.92 -8.03 723.89 -6.84 723.89C-5.65 723.89 -4.68 722.92 -4.68 721.73C-4.69 720.54 -5.66 719.57 -6.84 719.57ZM-6.84 722.95C-7.51 722.95 -8.06 722.4 -8.06 721.73C-8.06 721.06 -7.51 720.51 -6.84 720.51C-6.17 720.51 -5.62 721.06 -5.62 721.73C-5.62 722.4 -6.17 722.95 -6.84 722.95ZM91.08 719.57C89.89 719.57 88.92 720.54 88.92 721.73C88.92 722.92 89.89 723.89 91.08 723.89C92.27 723.89 93.24 722.92 93.24 721.73C93.23 720.54 92.27 719.57 91.08 719.57ZM91.08 722.95C90.41 722.95 89.86 722.4 89.86 721.73C89.86 721.06 90.41 720.51 91.08 720.51C91.75 720.51 92.3 721.06 92.3 721.73C92.3 722.4 91.75 722.95 91.08 722.95ZM140.04 719.57C138.85 719.57 137.88 720.54 137.88 721.73C137.88 722.92 138.85 723.89 140.04 723.89C141.23 723.89 142.2 722.92 142.2 721.73C142.19 720.54 141.23 719.57 140.04 719.57ZM140.04 722.95C139.37 722.95 138.82 722.4 138.82 721.73C138.82 721.06 139.37 720.51 140.04 720.51C140.71 720.51 141.26 721.06 141.26 721.73C141.26 722.4 140.71 722.95 140.04 722.95ZM237.96 719.57C236.77 719.57 235.8 720.54 235.8 721.73C235.8 722.92 236.77 723.89 237.96 723.89C239.15 723.89 240.12 722.92 240.12 721.73C240.12 720.54 239.15 719.57 237.96 719.57ZM237.96 722.95C237.29 722.95 236.74 722.4 236.74 721.73C236.74 721.06 237.29 720.51 237.96 720.51C238.63 720.51 239.18 721.06 239.18 721.73C239.18 722.4 238.63 722.95 237.96 722.95ZM335.88 719.57C334.69 719.57 333.72 720.54 333.72 721.73C333.72 722.92 334.69 723.89 335.88 723.89C337.07 723.89 338.04 722.92 338.04 721.73C338.04 720.54 337.07 719.57 335.88 719.57ZM335.88 722.95C335.21 722.95 334.66 722.4 334.66 721.73C334.66 721.06 335.21 720.51 335.88 720.51C336.55 720.51 337.1 721.06 337.1 721.73C337.1 722.4 336.56 722.95 335.88 722.95ZM433.8 719.57C432.61 719.57 431.64 720.54 431.64 721.73C431.64 722.92 432.61 723.89 433.8 723.89C434.99 723.89 435.96 722.92 435.96 721.73C435.96 720.54 434.99 719.57 433.8 719.57ZM433.8 722.95C433.13 722.95 432.58 722.4 432.58 721.73C432.58 721.06 433.13 720.51 433.8 720.51C434.47 720.51 435.02 721.06 435.02 721.73C435.02 722.4 434.48 722.95 433.8 722.95ZM189 719.66C187.81 719.66 186.84 720.63 186.84 721.82C186.84 723.01 187.81 723.98 189 723.98C190.19 723.98 191.16 723.01 191.16 721.82C191.16 720.63 190.19 719.66 189 719.66ZM189 723.03C188.33 723.03 187.78 722.48 187.78 721.81C187.78 721.14 188.33 720.59 189 720.59C189.67 720.59 190.22 721.14 190.22 721.81C190.22 722.48 189.67 723.03 189 723.03ZM42.12 719.66C40.93 719.66 39.96 720.63 39.96 721.82C39.96 723.01 40.93 723.98 42.12 723.98C43.31 723.98 44.28 723.01 44.28 721.82C44.28 720.63 43.31 719.66 42.12 719.66ZM42.12 723.03C41.45 723.03 40.9 722.48 40.9 721.81C40.9 721.14 41.45 720.59 42.12 720.59C42.79 720.59 43.34 721.14 43.34 721.81C43.34 722.48 42.79 723.03 42.12 723.03ZM286.92 719.66C285.73 719.66 284.76 720.63 284.76 721.82C284.76 723.01 285.73 723.98 286.92 723.98C288.11 723.98 289.08 723.01 289.08 721.82C289.08 720.63 288.11 719.66 286.92 719.66ZM286.92 723.03C286.25 723.03 285.7 722.48 285.7 721.81C285.7 721.14 286.25 720.59 286.92 720.59C287.59 720.59 288.14 721.14 288.14 721.81C288.14 722.48 287.59 723.03 286.92 723.03ZM384.84 719.66C383.65 719.66 382.68 720.63 382.68 721.82C382.68 723.01 383.65 723.98 384.84 723.98C386.03 723.98 387 723.01 387 721.82C387 720.63 386.03 719.66 384.84 719.66ZM384.84 723.03C384.17 723.03 383.62 722.48 383.62 721.81C383.62 721.14 384.17 720.59 384.84 720.59C385.51 720.59 386.06 721.14 386.06 721.81C386.06 722.48 385.52 723.03 384.84 723.03ZM482.77 719.57C481.58 719.57 480.61 720.54 480.61 721.73C480.61 722.92 481.58 723.89 482.77 723.89C483.96 723.89 484.93 722.92 484.93 721.73C484.92 720.54 483.95 719.57 482.77 719.57ZM482.77 722.95C482.1 722.95 481.55 722.4 481.55 721.73C481.55 721.06 482.1 720.51 482.77 720.51C483.44 720.51 483.99 721.06 483.99 721.73C483.99 722.4 483.44 722.95 482.77 722.95ZM-6.84 817.92C-8.03 817.92 -9 818.89 -9 820.08C-9 821.27 -8.03 822.24 -6.84 822.24C-5.65 822.24 -4.68 821.27 -4.68 820.08C-4.69 818.88 -5.66 817.92 -6.84 817.92ZM-6.84 821.3C-7.51 821.3 -8.06 820.75 -8.06 820.08C-8.06 819.41 -7.51 818.86 -6.84 818.86C-6.17 818.86 -5.62 819.41 -5.62 820.08C-5.62 820.75 -6.17 821.3 -6.84 821.3ZM91.08 817.92C89.89 817.92 88.92 818.89 88.92 820.08C88.92 821.27 89.89 822.24 91.08 822.24C92.27 822.24 93.24 821.27 93.24 820.08C93.23 818.88 92.27 817.92 91.08 817.92ZM91.08 821.3C90.41 821.3 89.86 820.75 89.86 820.08C89.86 819.41 90.41 818.86 91.08 818.86C91.75 818.86 92.3 819.41 92.3 820.08C92.3 820.75 91.75 821.3 91.08 821.3ZM140.04 817.92C138.85 817.92 137.88 818.89 137.88 820.08C137.88 821.27 138.85 822.24 140.04 822.24C141.23 822.24 142.2 821.27 142.2 820.08C142.19 818.88 141.23 817.92 140.04 817.92ZM140.04 821.3C139.37 821.3 138.82 820.75 138.82 820.08C138.82 819.41 139.37 818.86 140.04 818.86C140.71 818.86 141.26 819.41 141.26 820.08C141.26 820.75 140.71 821.3 140.04 821.3ZM237.96 817.92C236.77 817.92 235.8 818.89 235.8 820.08C235.8 821.27 236.77 822.24 237.96 822.24C239.15 822.24 240.12 821.27 240.12 820.08C240.12 818.88 239.15 817.92 237.96 817.92ZM237.96 821.3C237.29 821.3 236.74 820.75 236.74 820.08C236.74 819.41 237.29 818.86 237.96 818.86C238.63 818.86 239.18 819.41 239.18 820.08C239.18 820.75 238.63 821.3 237.96 821.3ZM335.88 817.92C334.69 817.92 333.72 818.89 333.72 820.08C333.72 821.27 334.69 822.24 335.88 822.24C337.07 822.24 338.04 821.27 338.04 820.08C338.04 818.88 337.07 817.92 335.88 817.92ZM335.88 821.3C335.21 821.3 334.66 820.75 334.66 820.08C334.66 819.41 335.21 818.86 335.88 818.86C336.55 818.86 337.1 819.41 337.1 820.08C337.1 820.75 336.56 821.3 335.88 821.3ZM433.8 817.92C432.61 817.92 431.64 818.89 431.64 820.08C431.64 821.27 432.61 822.24 433.8 822.24C434.99 822.24 435.96 821.27 435.96 820.08C435.96 818.88 434.99 817.92 433.8 817.92ZM433.8 821.3C433.13 821.3 432.58 820.75 432.58 820.08C432.58 819.41 433.13 818.86 433.8 818.86C434.47 818.86 435.02 819.41 435.02 820.08C435.02 820.75 434.48 821.3 433.8 821.3ZM189 818C187.81 818 186.84 818.97 186.84 820.16C186.84 821.35 187.81 822.32 189 822.32C190.19 822.32 191.16 821.35 191.16 820.16C191.16 818.97 190.19 818 189 818ZM189 821.38C188.33 821.38 187.78 820.83 187.78 820.16C187.78 819.49 188.33 818.94 189 818.94C189.67 818.94 190.22 819.49 190.22 820.16C190.22 820.83 189.67 821.38 189 821.38ZM42.12 818C40.93 818 39.96 818.97 39.96 820.16C39.96 821.35 40.93 822.32 42.12 822.32C43.31 822.32 44.28 821.35 44.28 820.16C44.27 818.97 43.31 818 42.12 818ZM42.12 821.38C41.45 821.38 40.9 820.83 40.9 820.16C40.9 819.49 41.45 818.94 42.12 818.94C42.79 818.94 43.34 819.49 43.34 820.16C43.34 820.83 42.79 821.38 42.12 821.38ZM286.92 818C285.73 818 284.76 818.97 284.76 820.16C284.76 821.35 285.73 822.32 286.92 822.32C288.11 822.32 289.08 821.35 289.08 820.16C289.08 818.97 288.11 818 286.92 818ZM286.92 821.38C286.25 821.38 285.7 820.83 285.7 820.16C285.7 819.49 286.25 818.94 286.92 818.94C287.59 818.94 288.14 819.49 288.14 820.16C288.14 820.83 287.59 821.38 286.92 821.38ZM384.84 818C383.65 818 382.68 818.97 382.68 820.16C382.68 821.35 383.65 822.32 384.84 822.32C386.03 822.32 387 821.35 387 820.16C387 818.97 386.03 818 384.84 818ZM384.84 821.38C384.17 821.38 383.62 820.83 383.62 820.16C383.62 819.49 384.17 818.94 384.84 818.94C385.51 818.94 386.06 819.49 386.06 820.16C386.06 820.83 385.52 821.38 384.84 821.38ZM482.77 817.92C481.58 817.92 480.61 818.89 480.61 820.08C480.61 821.27 481.58 822.24 482.77 822.24C483.96 822.24 484.93 821.27 484.93 820.08C484.92 818.88 483.95 817.92 482.77 817.92ZM482.77 821.3C482.1 821.3 481.55 820.75 481.55 820.08C481.55 819.41 482.1 818.86 482.77 818.86C483.44 818.86 483.99 819.41 483.99 820.08C483.99 820.75 483.44 821.3 482.77 821.3ZM-6.84 916.26C-8.03 916.26 -9 917.23 -9 918.42C-9 919.61 -8.03 920.58 -6.84 920.58C-5.65 920.58 -4.68 919.61 -4.68 918.42C-4.69 917.23 -5.66 916.26 -6.84 916.26ZM-6.84 919.64C-7.51 919.64 -8.06 919.09 -8.06 918.42C-8.06 917.75 -7.51 917.2 -6.84 917.2C-6.17 917.2 -5.62 917.75 -5.62 918.42C-5.62 919.09 -6.17 919.64 -6.84 919.64ZM91.08 916.26C89.89 916.26 88.92 917.23 88.92 918.42C88.92 919.61 89.89 920.58 91.08 920.58C92.27 920.58 93.24 919.61 93.24 918.42C93.23 917.23 92.27 916.26 91.08 916.26ZM91.08 919.64C90.41 919.64 89.86 919.09 89.86 918.42C89.86 917.75 90.41 917.2 91.08 917.2C91.75 917.2 92.3 917.75 92.3 918.42C92.3 919.09 91.75 919.64 91.08 919.64ZM140.04 916.26C138.85 916.26 137.88 917.23 137.88 918.42C137.88 919.61 138.85 920.58 140.04 920.58C141.23 920.58 142.2 919.61 142.2 918.42C142.19 917.23 141.23 916.26 140.04 916.26ZM140.04 919.64C139.37 919.64 138.82 919.09 138.82 918.42C138.82 917.75 139.37 917.2 140.04 917.2C140.71 917.2 141.26 917.75 141.26 918.42C141.26 919.09 140.71 919.64 140.04 919.64ZM237.96 916.26C236.77 916.26 235.8 917.23 235.8 918.42C235.8 919.61 236.77 920.58 237.96 920.58C239.15 920.58 240.12 919.61 240.12 918.42C240.12 917.23 239.15 916.26 237.96 916.26ZM237.96 919.64C237.29 919.64 236.74 919.09 236.74 918.42C236.74 917.75 237.29 917.2 237.96 917.2C238.63 917.2 239.18 917.75 239.18 918.42C239.18 919.09 238.63 919.64 237.96 919.64ZM335.88 916.26C334.69 916.26 333.72 917.23 333.72 918.42C333.72 919.61 334.69 920.58 335.88 920.58C337.07 920.58 338.04 919.61 338.04 918.42C338.04 917.23 337.07 916.26 335.88 916.26ZM335.88 919.64C335.21 919.64 334.66 919.09 334.66 918.42C334.66 917.75 335.21 917.2 335.88 917.2C336.55 917.2 337.1 917.75 337.1 918.42C337.1 919.09 336.56 919.64 335.88 919.64ZM433.8 916.26C432.61 916.26 431.64 917.23 431.64 918.42C431.64 919.61 432.61 920.58 433.8 920.58C434.99 920.58 435.96 919.61 435.96 918.42C435.96 917.23 434.99 916.26 433.8 916.26ZM433.8 919.64C433.13 919.64 432.58 919.09 432.58 918.42C432.58 917.75 433.13 917.2 433.8 917.2C434.47 917.2 435.02 917.75 435.02 918.42C435.02 919.09 434.48 919.64 433.8 919.64ZM189 916.35C187.81 916.35 186.84 917.32 186.84 918.51C186.84 919.7 187.81 920.67 189 920.67C190.19 920.67 191.16 919.7 191.16 918.51C191.16 917.32 190.19 916.35 189 916.35ZM189 919.73C188.33 919.73 187.78 919.18 187.78 918.51C187.78 917.84 188.33 917.29 189 917.29C189.67 917.29 190.22 917.84 190.22 918.51C190.22 919.18 189.67 919.73 189 919.73ZM42.12 916.35C40.93 916.35 39.96 917.32 39.96 918.51C39.96 919.7 40.93 920.67 42.12 920.67C43.31 920.67 44.28 919.7 44.28 918.51C44.28 917.32 43.31 916.35 42.12 916.35ZM42.12 919.73C41.45 919.73 40.9 919.18 40.9 918.51C40.9 917.84 41.45 917.29 42.12 917.29C42.79 917.29 43.34 917.84 43.34 918.51C43.34 919.18 42.79 919.73 42.12 919.73ZM286.92 916.35C285.73 916.35 284.76 917.32 284.76 918.51C284.76 919.7 285.73 920.67 286.92 920.67C288.11 920.67 289.08 919.7 289.08 918.51C289.08 917.32 288.11 916.35 286.92 916.35ZM286.92 919.73C286.25 919.73 285.7 919.18 285.7 918.51C285.7 917.84 286.25 917.29 286.92 917.29C287.59 917.29 288.14 917.84 288.14 918.51C288.14 919.18 287.59 919.73 286.92 919.73ZM384.84 916.35C383.65 916.35 382.68 917.32 382.68 918.51C382.68 919.7 383.65 920.67 384.84 920.67C386.03 920.67 387 919.7 387 918.51C387 917.32 386.03 916.35 384.84 916.35ZM384.84 919.73C384.17 919.73 383.62 919.18 383.62 918.51C383.62 917.84 384.17 917.29 384.84 917.29C385.51 917.29 386.06 917.84 386.06 918.51C386.06 919.18 385.52 919.73 384.84 919.73ZM482.77 916.26C481.58 916.26 480.61 917.23 480.61 918.42C480.61 919.61 481.58 920.58 482.77 920.58C483.96 920.58 484.93 919.61 484.93 918.42C484.92 917.23 483.95 916.26 482.77 916.26ZM482.77 919.64C482.1 919.64 481.55 919.09 481.55 918.42C481.55 917.75 482.1 917.2 482.77 917.2C483.44 917.2 483.99 917.75 483.99 918.42C483.99 919.09 483.44 919.64 482.77 919.64Z" fill="url(#paint0_linear_434_647)"/>
<path d="M-6.84 34C-8.03 34 -9 34.97 -9 36.16C-9 37.35 -8.03 38.32 -6.84 38.32C-5.65 38.32 -4.68 37.35 -4.68 36.16C-4.69 34.97 -5.66 34 -6.84 34ZM-6.84 37.38C-7.51 37.38 -8.06 36.83 -8.06 36.16C-8.06 35.49 -7.51 34.94 -6.84 34.94C-6.17 34.94 -5.62 35.49 -5.62 36.16C-5.62 36.83 -6.17 37.38 -6.84 37.38ZM-6.84 229.84C-8.03 229.84 -9 230.81 -9 232C-9 233.19 -8.03 234.16 -6.84 234.16C-5.65 234.16 -4.68 233.19 -4.68 232C-4.69 230.81 -5.66 229.84 -6.84 229.84ZM-6.84 233.22C-7.51 233.22 -8.06 232.67 -8.06 232C-8.06 231.33 -7.51 230.78 -6.84 230.78C-6.17 230.78 -5.62 231.33 -5.62 232C-5.62 232.67 -6.17 233.22 -6.84 233.22ZM-6.84 426.07C-8.03 426.07 -9 427.04 -9 428.23C-9 429.42 -8.03 430.39 -6.84 430.39C-5.65 430.39 -4.68 429.42 -4.68 428.23C-4.68 427.04 -5.66 426.07 -6.84 426.07ZM-6.84 429.45C-7.51 429.45 -8.06 428.9 -8.06 428.23C-8.06 427.56 -7.52 427 -6.84 427C-6.16 427 -5.62 427.55 -5.62 428.22C-5.62 428.89 -6.17 429.45 -6.84 429.45ZM-6.84 523.76C-8.03 523.76 -9 524.73 -9 525.92C-9 527.11 -8.03 528.08 -6.84 528.08C-5.65 528.08 -4.68 527.11 -4.68 525.92C-4.69 524.73 -5.66 523.76 -6.84 523.76ZM-6.84 527.14C-7.51 527.14 -8.06 526.59 -8.06 525.92C-8.06 525.25 -7.51 524.7 -6.84 524.7C-6.17 524.7 -5.62 525.25 -5.62 525.92C-5.62 526.59 -6.17 527.14 -6.84 527.14ZM-6.84 327.96C-8.03 327.96 -9 328.93 -9 330.12C-9 331.31 -8.03 332.28 -6.84 332.28C-5.65 332.28 -4.68 331.31 -4.68 330.12C-4.69 328.92 -5.66 327.96 -6.84 327.96ZM-6.84 331.33C-7.51 331.33 -8.06 330.78 -8.06 330.11C-8.06 329.44 -7.51 328.89 -6.84 328.89C-6.17 328.89 -5.62 329.44 -5.62 330.11C-5.62 330.78 -6.17 331.33 -6.84 331.33ZM91.08 34C89.89 34 88.92 34.97 88.92 36.16C88.92 37.35 89.89 38.32 91.08 38.32C92.27 38.32 93.24 37.35 93.24 36.16C93.23 34.97 92.27 34 91.08 34ZM91.08 37.38C90.41 37.38 89.86 36.83 89.86 36.16C89.86 35.49 90.41 34.94 91.08 34.94C91.75 34.94 92.3 35.49 92.3 36.16C92.3 36.83 91.75 37.38 91.08 37.38ZM91.08 229.84C89.89 229.84 88.92 230.81 88.92 232C88.92 233.19 89.89 234.16 91.08 234.16C92.27 234.16 93.24 233.19 93.24 232C93.23 230.81 92.27 229.84 91.08 229.84ZM91.08 233.22C90.41 233.22 89.86 232.67 89.86 232C89.86 231.33 90.41 230.78 91.08 230.78C91.75 230.78 92.3 231.33 92.3 232C92.3 232.67 91.75 233.22 91.08 233.22ZM91.08 426.07C89.89 426.07 88.92 427.04 88.92 428.23C88.92 429.42 89.89 430.39 91.08 430.39C92.27 430.39 93.24 429.42 93.24 428.23C93.24 427.04 92.27 426.07 91.08 426.07ZM91.08 429.45C90.41 429.45 89.86 428.9 89.86 428.23C89.86 427.56 90.41 427.01 91.08 427.01C91.75 427.01 92.3 427.56 92.3 428.23C92.3 428.9 91.75 429.45 91.08 429.45ZM91.08 523.76C89.89 523.76 88.92 524.73 88.92 525.92C88.92 527.11 89.89 528.08 91.08 528.08C92.27 528.08 93.24 527.11 93.24 525.92C93.23 524.73 92.27 523.76 91.08 523.76ZM91.08 527.14C90.41 527.14 89.86 526.59 89.86 525.92C89.86 525.25 90.41 524.7 91.08 524.7C91.75 524.7 92.3 525.25 92.3 525.92C92.3 526.59 91.75 527.14 91.08 527.14ZM91.08 327.96C89.89 327.96 88.92 328.93 88.92 330.12C88.92 331.31 89.89 332.28 91.08 332.28C92.27 332.28 93.24 331.31 93.24 330.12C93.23 328.92 92.27 327.96 91.08 327.96ZM91.08 331.33C90.41 331.33 89.86 330.78 89.86 330.11C89.86 329.44 90.41 328.89 91.08 328.89C91.75 328.89 92.3 329.44 92.3 330.11C92.3 330.78 91.75 331.33 91.08 331.33ZM140.04 34C138.85 34 137.88 34.97 137.88 36.16C137.88 37.35 138.85 38.32 140.04 38.32C141.23 38.32 142.2 37.35 142.2 36.16C142.19 34.97 141.23 34 140.04 34ZM140.04 37.38C139.37 37.38 138.82 36.83 138.82 36.16C138.82 35.49 139.37 34.94 140.04 34.94C140.71 34.94 141.26 35.49 141.26 36.16C141.26 36.83 140.71 37.38 140.04 37.38ZM140.04 229.84C138.85 229.84 137.88 230.81 137.88 232C137.88 233.19 138.85 234.16 140.04 234.16C141.23 234.16 142.2 233.19 142.2 232C142.19 230.81 141.23 229.84 140.04 229.84ZM140.04 233.22C139.37 233.22 138.82 232.67 138.82 232C138.82 231.33 139.37 230.78 140.04 230.78C140.71 230.78 141.26 231.33 141.26 232C141.26 232.67 140.71 233.22 140.04 233.22ZM140.04 426.07C138.85 426.07 137.88 427.04 137.88 428.23C137.88 429.42 138.85 430.39 140.04 430.39C141.23 430.39 142.2 429.42 142.2 428.23C142.2 427.04 141.23 426.07 140.04 426.07ZM140.04 429.45C139.37 429.45 138.82 428.9 138.82 428.23C138.82 427.56 139.37 427.01 140.04 427.01C140.71 427.01 141.26 427.56 141.26 428.23C141.26 428.9 140.71 429.45 140.04 429.45ZM140.04 523.76C138.85 523.76 137.88 524.73 137.88 525.92C137.88 527.11 138.85 528.08 140.04 528.08C141.23 528.08 142.2 527.11 142.2 525.92C142.19 524.73 141.23 523.76 140.04 523.76ZM140.04 527.14C139.37 527.14 138.82 526.59 138.82 525.92C138.82 525.25 139.37 524.7 140.04 524.7C140.71 524.7 141.26 525.25 141.26 525.92C141.26 526.59 140.71 527.14 140.04 527.14ZM140.04 327.96C138.85 327.96 137.88 328.93 137.88 330.12C137.88 331.31 138.85 332.28 140.04 332.28C141.23 332.28 142.2 331.31 142.2 330.12C142.19 328.92 141.23 327.96 140.04 327.96ZM140.04 331.33C139.37 331.33 138.82 330.78 138.82 330.11C138.82 329.44 139.37 328.89 140.04 328.89C140.71 328.89 141.26 329.44 141.26 330.11C141.26 330.78 140.71 331.33 140.04 331.33ZM237.96 34C236.77 34 235.8 34.97 235.8 36.16C235.8 37.35 236.77 38.32 237.96 38.32C239.15 38.32 240.12 37.35 240.12 36.16C240.12 34.97 239.15 34 237.96 34ZM237.96 37.38C237.29 37.38 236.74 36.83 236.74 36.16C236.74 35.49 237.29 34.94 237.96 34.94C238.63 34.94 239.18 35.49 239.18 36.16C239.18 36.83 238.63 37.38 237.96 37.38ZM237.96 229.84C236.77 229.84 235.8 230.81 235.8 232C235.8 233.19 236.77 234.16 237.96 234.16C239.15 234.16 240.12 233.19 240.12 232C240.12 230.81 239.15 229.84 237.96 229.84ZM237.96 233.22C237.29 233.22 236.74 232.67 236.74 232C236.74 231.33 237.29 230.78 237.96 230.78C238.63 230.78 239.18 231.33 239.18 232C239.18 232.67 238.63 233.22 237.96 233.22ZM237.96 426.07C236.77 426.07 235.8 427.04 235.8 428.23C235.8 429.42 236.77 430.39 237.96 430.39C239.15 430.39 240.12 429.42 240.12 428.23C240.12 427.04 239.15 426.07 237.96 426.07ZM237.96 429.45C237.29 429.45 236.74 428.9 236.74 428.23C236.74 427.56 237.29 427.01 237.96 427.01C238.63 427.01 239.18 427.56 239.18 428.23C239.18 428.9 238.63 429.45 237.96 429.45ZM237.96 523.76C236.77 523.76 235.8 524.73 235.8 525.92C235.8 527.11 236.77 528.08 237.96 528.08C239.15 528.08 240.12 527.11 240.12 525.92C240.12 524.73 239.15 523.76 237.96 523.76ZM237.96 527.14C237.29 527.14 236.74 526.59 236.74 525.92C236.74 525.25 237.29 524.7 237.96 524.7C238.63 524.7 239.18 525.25 239.18 525.92C239.18 526.59 238.63 527.14 237.96 527.14ZM237.96 327.96C236.77 327.96 235.8 328.93 235.8 330.12C235.8 331.31 236.77 332.28 237.96 332.28C239.15 332.28 240.12 331.31 240.12 330.12C240.12 328.92 239.15 327.96 237.96 327.96ZM237.96 331.33C237.29 331.33 236.74 330.78 236.74 330.11C236.74 329.44 237.29 328.89 237.96 328.89C238.63 328.89 239.18 329.44 239.18 330.11C239.18 330.78 238.63 331.33 237.96 331.33ZM335.88 34C334.69 34 333.72 34.97 333.72 36.16C333.72 37.35 334.69 38.32 335.88 38.32C337.07 38.32 338.04 37.35 338.04 36.16C338.04 34.97 337.07 34 335.88 34ZM335.88 37.38C335.21 37.38 334.66 36.83 334.66 36.16C334.66 35.49 335.21 34.94 335.88 34.94C336.55 34.94 337.1 35.49 337.1 36.16C337.1 36.83 336.56 37.38 335.88 37.38ZM335.88 229.84C334.69 229.84 333.72 230.81 333.72 232C333.72 233.19 334.69 234.16 335.88 234.16C337.07 234.16 338.04 233.19 338.04 232C338.04 230.81 337.07 229.84 335.88 229.84ZM335.88 233.22C335.21 233.22 334.66 232.67 334.66 232C334.66 231.33 335.21 230.78 335.88 230.78C336.55 230.78 337.1 231.33 337.1 232C337.1 232.67 336.56 233.22 335.88 233.22ZM335.88 426.07C334.69 426.07 333.72 427.04 333.72 428.23C333.72 429.42 334.69 430.39 335.88 430.39C337.07 430.39 338.04 429.42 338.04 428.23C338.04 427.04 337.07 426.07 335.88 426.07ZM335.88 429.45C335.21 429.45 334.66 428.9 334.66 428.23C334.66 427.56 335.21 427.01 335.88 427.01C336.55 427.01 337.1 427.56 337.1 428.23C337.1 428.9 336.56 429.45 335.88 429.45ZM335.88 523.76C334.69 523.76 333.72 524.73 333.72 525.92C333.72 527.11 334.69 528.08 335.88 528.08C337.07 528.08 338.04 527.11 338.04 525.92C338.04 524.73 337.07 523.76 335.88 523.76ZM335.88 527.14C335.21 527.14 334.66 526.59 334.66 525.92C334.66 525.25 335.21 524.7 335.88 524.7C336.55 524.7 337.1 525.25 337.1 525.92C337.1 526.59 336.56 527.14 335.88 527.14ZM335.88 327.96C334.69 327.96 333.72 328.93 333.72 330.12C333.72 331.31 334.69 332.28 335.88 332.28C337.07 332.28 338.04 331.31 338.04 330.12C338.04 328.92 337.07 327.96 335.88 327.96ZM335.88 331.33C335.21 331.33 334.66 330.78 334.66 330.11C334.66 329.44 335.21 328.89 335.88 328.89C336.55 328.89 337.1 329.44 337.1 330.11C337.1 330.78 336.56 331.33 335.88 331.33ZM433.8 34C432.61 34 431.64 34.97 431.64 36.16C431.64 37.35 432.61 38.32 433.8 38.32C434.99 38.32 435.96 37.35 435.96 36.16C435.96 34.97 434.99 34 433.8 34ZM433.8 37.38C433.13 37.38 432.58 36.83 432.58 36.16C432.58 35.49 433.13 34.94 433.8 34.94C434.47 34.94 435.02 35.49 435.02 36.16C435.02 36.83 434.48 37.38 433.8 37.38ZM433.8 229.84C432.61 229.84 431.64 230.81 431.64 232C431.64 233.19 432.61 234.16 433.8 234.16C434.99 234.16 435.96 233.19 435.96 232C435.96 230.81 434.99 229.84 433.8 229.84ZM433.8 233.22C433.13 233.22 432.58 232.67 432.58 232C432.58 231.33 433.13 230.78 433.8 230.78C434.47 230.78 435.02 231.33 435.02 232C435.02 232.67 434.48 233.22 433.8 233.22ZM433.8 426.07C432.61 426.07 431.64 427.04 431.64 428.23C431.64 429.42 432.61 430.39 433.8 430.39C434.99 430.39 435.96 429.42 435.96 428.23C435.96 427.04 434.99 426.07 433.8 426.07ZM433.8 429.45C433.13 429.45 432.58 428.9 432.58 428.23C432.58 427.56 433.13 427.01 433.8 427.01C434.47 427.01 435.02 427.56 435.02 428.23C435.02 428.9 434.48 429.45 433.8 429.45ZM433.8 523.76C432.61 523.76 431.64 524.73 431.64 525.92C431.64 527.11 432.61 528.08 433.8 528.08C434.99 528.08 435.96 527.11 435.96 525.92C435.96 524.73 434.99 523.76 433.8 523.76ZM433.8 527.14C433.13 527.14 432.58 526.59 432.58 525.92C432.58 525.25 433.13 524.7 433.8 524.7C434.47 524.7 435.02 525.25 435.02 525.92C435.02 526.59 434.48 527.14 433.8 527.14ZM433.8 327.96C432.61 327.96 431.64 328.93 431.64 330.12C431.64 331.31 432.61 332.28 433.8 332.28C434.99 332.28 435.96 331.31 435.96 330.12C435.96 328.92 434.99 327.96 433.8 327.96ZM433.8 331.33C433.13 331.33 432.58 330.78 432.58 330.11C432.58 329.44 433.13 328.89 433.8 328.89C434.47 328.89 435.02 329.44 435.02 330.11C435.02 330.78 434.48 331.33 433.8 331.33ZM189 34.08C187.81 34.08 186.84 35.05 186.84 36.24C186.84 37.43 187.81 38.4 189 38.4C190.19 38.4 191.16 37.43 191.16 36.24C191.16 35.05 190.19 34.08 189 34.08ZM189 37.46C188.33 37.46 187.78 36.91 187.78 36.24C187.78 35.57 188.33 35.02 189 35.02C189.67 35.02 190.22 35.57 190.22 36.24C190.22 36.91 189.67 37.46 189 37.46ZM189 229.93C187.81 229.93 186.84 230.9 186.84 232.09C186.84 233.28 187.81 234.25 189 234.25C190.19 234.25 191.16 233.28 191.16 232.09C191.16 230.9 190.19 229.93 189 229.93ZM189 233.31C188.33 233.31 187.78 232.76 187.78 232.09C187.78 231.42 188.33 230.87 189 230.87C189.67 230.87 190.22 231.42 190.22 232.09C190.22 232.76 189.67 233.31 189 233.31ZM189 426.15C187.81 426.15 186.84 427.12 186.84 428.31C186.84 429.5 187.81 430.47 189 430.47C190.19 430.47 191.16 429.5 191.16 428.31C191.16 427.12 190.19 426.15 189 426.15ZM189 429.53C188.33 429.53 187.78 428.98 187.78 428.31C187.78 427.64 188.33 427.09 189 427.09C189.67 427.09 190.22 427.64 190.22 428.31C190.22 428.98 189.67 429.53 189 429.53ZM189 523.84C187.81 523.84 186.84 524.81 186.84 526C186.84 527.19 187.81 528.16 189 528.16C190.19 528.16 191.16 527.19 191.16 526C191.16 524.81 190.19 523.84 189 523.84ZM189 527.22C188.33 527.22 187.78 526.67 187.78 526C187.78 525.33 188.33 524.78 189 524.78C189.67 524.78 190.22 525.33 190.22 526C190.22 526.67 189.67 527.22 189 527.22ZM189 328.04C187.81 328.04 186.84 329.01 186.84 330.2C186.84 331.39 187.81 332.36 189 332.36C190.19 332.36 191.16 331.39 191.16 330.2C191.16 329.01 190.19 328.04 189 328.04ZM189 331.42C188.33 331.42 187.78 330.87 187.78 330.2C187.78 329.53 188.33 328.98 189 328.98C189.67 328.98 190.22 329.53 190.22 330.2C190.22 330.87 189.67 331.42 189 331.42ZM42.12 34.08C40.93 34.08 39.96 35.05 39.96 36.24C39.96 37.43 40.93 38.4 42.12 38.4C43.31 38.4 44.28 37.43 44.28 36.24C44.27 35.05 43.31 34.08 42.12 34.08ZM42.12 37.46C41.45 37.46 40.9 36.91 40.9 36.24C40.9 35.57 41.45 35.02 42.12 35.02C42.79 35.02 43.34 35.57 43.34 36.24C43.34 36.91 42.79 37.46 42.12 37.46ZM42.12 229.93C40.93 229.93 39.96 230.9 39.96 232.09C39.96 233.28 40.93 234.25 42.12 234.25C43.31 234.25 44.28 233.28 44.28 232.09C44.27 230.9 43.31 229.93 42.12 229.93ZM42.12 233.31C41.45 233.31 40.9 232.76 40.9 232.09C40.9 231.42 41.45 230.87 42.12 230.87C42.79 230.87 43.34 231.42 43.34 232.09C43.34 232.76 42.79 233.31 42.12 233.31ZM42.12 426.15C40.93 426.15 39.96 427.12 39.96 428.31C39.96 429.5 40.93 430.47 42.12 430.47C43.31 430.47 44.28 429.5 44.28 428.31C44.27 427.12 43.31 426.15 42.12 426.15ZM42.12 429.53C41.45 429.53 40.9 428.98 40.9 428.31C40.9 427.64 41.45 427.09 42.12 427.09C42.79 427.09 43.34 427.64 43.34 428.31C43.34 428.98 42.79 429.53 42.12 429.53ZM42.12 523.84C40.93 523.84 39.96 524.81 39.96 526C39.96 527.19 40.93 528.16 42.12 528.16C43.31 528.16 44.28 527.19 44.28 526C44.28 524.81 43.31 523.84 42.12 523.84ZM42.12 527.22C41.45 527.22 40.9 526.67 40.9 526C40.9 525.33 41.45 524.78 42.12 524.78C42.79 524.78 43.34 525.33 43.34 526C43.34 526.67 42.79 527.22 42.12 527.22ZM42.12 328.04C40.93 328.04 39.96 329.01 39.96 330.2C39.96 331.39 40.93 332.36 42.12 332.36C43.31 332.36 44.28 331.39 44.28 330.2C44.28 329.01 43.31 328.04 42.12 328.04ZM42.12 331.42C41.45 331.42 40.9 330.87 40.9 330.2C40.9 329.53 41.45 328.98 42.12 328.98C42.79 328.98 43.34 329.53 43.34 330.2C43.34 330.87 42.79 331.42 42.12 331.42ZM286.92 34.08C285.73 34.08 284.76 35.05 284.76 36.24C284.76 37.43 285.73 38.4 286.92 38.4C288.11 38.4 289.08 37.43 289.08 36.24C289.08 35.05 288.11 34.08 286.92 34.08ZM286.92 37.46C286.25 37.46 285.7 36.91 285.7 36.24C285.7 35.57 286.25 35.02 286.92 35.02C287.59 35.02 288.14 35.57 288.14 36.24C288.14 36.91 287.59 37.46 286.92 37.46ZM286.92 229.93C285.73 229.93 284.76 230.9 284.76 232.09C284.76 233.28 285.73 234.25 286.92 234.25C288.11 234.25 289.08 233.28 289.08 232.09C289.08 230.9 288.11 229.93 286.92 229.93ZM286.92 233.31C286.25 233.31 285.7 232.76 285.7 232.09C285.7 231.42 286.25 230.87 286.92 230.87C287.59 230.87 288.14 231.42 288.14 232.09C288.14 232.76 287.59 233.31 286.92 233.31ZM286.92 426.15C285.73 426.15 284.76 427.12 284.76 428.31C284.76 429.5 285.73 430.47 286.92 430.47C288.11 430.47 289.08 429.5 289.08 428.31C289.08 427.12 288.11 426.15 286.92 426.15ZM286.92 429.53C286.25 429.53 285.7 428.98 285.7 428.31C285.7 427.64 286.25 427.09 286.92 427.09C287.59 427.09 288.14 427.64 288.14 428.31C288.14 428.98 287.59 429.53 286.92 429.53ZM286.92 523.84C285.73 523.84 284.76 524.81 284.76 526C284.76 527.19 285.73 528.16 286.92 528.16C288.11 528.16 289.08 527.19 289.08 526C289.08 524.81 288.11 523.84 286.92 523.84ZM286.92 527.22C286.25 527.22 285.7 526.67 285.7 526C285.7 525.33 286.25 524.78 286.92 524.78C287.59 524.78 288.14 525.33 288.14 526C288.14 526.67 287.59 527.22 286.92 527.22ZM286.92 328.04C285.73 328.04 284.76 329.01 284.76 330.2C284.76 331.39 285.73 332.36 286.92 332.36C288.11 332.36 289.08 331.39 289.08 330.2C289.08 329.01 288.11 328.04 286.92 328.04ZM286.92 331.42C286.25 331.42 285.7 330.87 285.7 330.2C285.7 329.53 286.25 328.98 286.92 328.98C287.59 328.98 288.14 329.53 288.14 330.2C288.14 330.87 287.59 331.42 286.92 331.42ZM384.84 34.08C383.65 34.08 382.68 35.05 382.68 36.24C382.68 37.43 383.65 38.4 384.84 38.4C386.03 38.4 387 37.43 387 36.24C387 35.05 386.03 34.08 384.84 34.08ZM384.84 37.46C384.17 37.46 383.62 36.91 383.62 36.24C383.62 35.57 384.17 35.02 384.84 35.02C385.51 35.02 386.06 35.57 386.06 36.24C386.06 36.91 385.52 37.46 384.84 37.46ZM384.84 229.93C383.65 229.93 382.68 230.9 382.68 232.09C382.68 233.28 383.65 234.25 384.84 234.25C386.03 234.25 387 233.28 387 232.09C387 230.9 386.03 229.93 384.84 229.93ZM384.84 233.31C384.17 233.31 383.62 232.76 383.62 232.09C383.62 231.42 384.17 230.87 384.84 230.87C385.51 230.87 386.06 231.42 386.06 232.09C386.06 232.76 385.52 233.31 384.84 233.31ZM384.84 426.15C383.65 426.15 382.68 427.12 382.68 428.31C382.68 429.5 383.65 430.47 384.84 430.47C386.03 430.47 387 429.5 387 428.31C387 427.12 386.03 426.15 384.84 426.15ZM384.84 429.53C384.17 429.53 383.62 428.98 383.62 428.31C383.62 427.64 384.17 427.09 384.84 427.09C385.51 427.09 386.06 427.64 386.06 428.31C386.06 428.98 385.52 429.53 384.84 429.53ZM384.84 523.84C383.65 523.84 382.68 524.81 382.68 526C382.68 527.19 383.65 528.16 384.84 528.16C386.03 528.16 387 527.19 387 526C387 524.81 386.03 523.84 384.84 523.84ZM384.84 527.22C384.17 527.22 383.62 526.67 383.62 526C383.62 525.33 384.17 524.78 384.84 524.78C385.51 524.78 386.06 525.33 386.06 526C386.06 526.67 385.52 527.22 384.84 527.22ZM384.84 328.04C383.65 328.04 382.68 329.01 382.68 330.2C382.68 331.39 383.65 332.36 384.84 332.36C386.03 332.36 387 331.39 387 330.2C387 329.01 386.03 328.04 384.84 328.04ZM384.84 331.42C384.17 331.42 383.62 330.87 383.62 330.2C383.62 329.53 384.17 328.98 384.84 328.98C385.51 328.98 386.06 329.53 386.06 330.2C386.06 330.87 385.52 331.42 384.84 331.42ZM482.77 38.31C483.96 38.31 484.93 37.34 484.93 36.15C484.93 34.96 483.96 33.99 482.77 33.99C481.58 33.99 480.61 34.96 480.61 36.15C480.61 37.34 481.58 38.31 482.77 38.31ZM482.77 34.94C483.44 34.94 483.99 35.49 483.99 36.16C483.99 36.83 483.44 37.38 482.77 37.38C482.1 37.38 481.55 36.83 481.55 36.16C481.55 35.49 482.09 34.94 482.77 34.94ZM-6.84 131.88C-8.03 131.88 -9 132.85 -9 134.04C-9 135.23 -8.03 136.2 -6.84 136.2C-5.65 136.2 -4.68 135.23 -4.68 134.04C-4.69 132.85 -5.66 131.88 -6.84 131.88ZM-6.84 135.26C-7.51 135.26 -8.06 134.71 -8.06 134.04C-8.06 133.37 -7.51 132.82 -6.84 132.82C-6.17 132.82 -5.62 133.37 -5.62 134.04C-5.62 134.71 -6.17 135.26 -6.84 135.26ZM91.08 131.88C89.89 131.88 88.92 132.85 88.92 134.04C88.92 135.23 89.89 136.2 91.08 136.2C92.27 136.2 93.24 135.23 93.24 134.04C93.23 132.85 92.27 131.88 91.08 131.88ZM91.08 135.26C90.41 135.26 89.86 134.71 89.86 134.04C89.86 133.37 90.41 132.82 91.08 132.82C91.75 132.82 92.3 133.37 92.3 134.04C92.3 134.71 91.75 135.26 91.08 135.26ZM140.04 131.88C138.85 131.88 137.88 132.85 137.88 134.04C137.88 135.23 138.85 136.2 140.04 136.2C141.23 136.2 142.2 135.23 142.2 134.04C142.19 132.85 141.23 131.88 140.04 131.88ZM140.04 135.26C139.37 135.26 138.82 134.71 138.82 134.04C138.82 133.37 139.37 132.82 140.04 132.82C140.71 132.82 141.26 133.37 141.26 134.04C141.26 134.71 140.71 135.26 140.04 135.26ZM237.96 131.88C236.77 131.88 235.8 132.85 235.8 134.04C235.8 135.23 236.77 136.2 237.96 136.2C239.15 136.2 240.12 135.23 240.12 134.04C240.12 132.85 239.15 131.88 237.96 131.88ZM237.96 135.26C237.29 135.26 236.74 134.71 236.74 134.04C236.74 133.37 237.29 132.82 237.96 132.82C238.63 132.82 239.18 133.37 239.18 134.04C239.18 134.71 238.63 135.26 237.96 135.26ZM335.88 131.88C334.69 131.88 333.72 132.85 333.72 134.04C333.72 135.23 334.69 136.2 335.88 136.2C337.07 136.2 338.04 135.23 338.04 134.04C338.04 132.85 337.07 131.88 335.88 131.88ZM335.88 135.26C335.21 135.26 334.66 134.71 334.66 134.04C334.66 133.37 335.21 132.82 335.88 132.82C336.55 132.82 337.1 133.37 337.1 134.04C337.1 134.71 336.56 135.26 335.88 135.26ZM433.8 131.88C432.61 131.88 431.64 132.85 431.64 134.04C431.64 135.23 432.61 136.2 433.8 136.2C434.99 136.2 435.96 135.23 435.96 134.04C435.96 132.85 434.99 131.88 433.8 131.88ZM433.8 135.26C433.13 135.26 432.58 134.71 432.58 134.04C432.58 133.37 433.13 132.82 433.8 132.82C434.47 132.82 435.02 133.37 435.02 134.04C435.02 134.71 434.48 135.26 433.8 135.26ZM189 131.96C187.81 131.96 186.84 132.93 186.84 134.12C186.84 135.31 187.81 136.28 189 136.28C190.19 136.28 191.16 135.31 191.16 134.12C191.16 132.93 190.19 131.96 189 131.96ZM189 135.34C188.33 135.34 187.78 134.79 187.78 134.12C187.78 133.45 188.33 132.9 189 132.9C189.67 132.9 190.22 133.45 190.22 134.12C190.22 134.79 189.67 135.34 189 135.34ZM42.12 131.96C40.93 131.96 39.96 132.93 39.96 134.12C39.96 135.31 40.93 136.28 42.12 136.28C43.31 136.28 44.28 135.31 44.28 134.12C44.28 132.93 43.31 131.96 42.12 131.96ZM42.12 135.34C41.45 135.34 40.9 134.79 40.9 134.12C40.9 133.45 41.45 132.9 42.12 132.9C42.79 132.9 43.34 133.45 43.34 134.12C43.34 134.79 42.79 135.34 42.12 135.34ZM286.92 131.96C285.73 131.96 284.76 132.93 284.76 134.12C284.76 135.31 285.73 136.28 286.92 136.28C288.11 136.28 289.08 135.31 289.08 134.12C289.08 132.93 288.11 131.96 286.92 131.96ZM286.92 135.34C286.25 135.34 285.7 134.79 285.7 134.12C285.7 133.45 286.25 132.9 286.92 132.9C287.59 132.9 288.14 133.45 288.14 134.12C288.14 134.79 287.59 135.34 286.92 135.34ZM384.84 131.96C383.65 131.96 382.68 132.93 382.68 134.12C382.68 135.31 383.65 136.28 384.84 136.28C386.03 136.28 387 135.31 387 134.12C387 132.93 386.03 131.96 384.84 131.96ZM384.84 135.34C384.17 135.34 383.62 134.79 383.62 134.12C383.62 133.45 384.17 132.9 384.84 132.9C385.51 132.9 386.06 133.45 386.06 134.12C386.06 134.79 385.52 135.34 384.84 135.34ZM482.77 131.88C481.58 131.88 480.61 132.85 480.61 134.04C480.61 135.23 481.58 136.2 482.77 136.2C483.96 136.2 484.93 135.23 484.93 134.04C484.92 132.85 483.95 131.88 482.77 131.88ZM482.77 135.26C482.1 135.26 481.55 134.71 481.55 134.04C481.55 133.37 482.1 132.82 482.77 132.82C483.44 132.82 483.99 133.37 483.99 134.04C483.99 134.71 483.44 135.26 482.77 135.26ZM-6.84 83.11C-8.03 83.11 -9 84.08 -9 85.27C-9 86.46 -8.03 87.43 -6.84 87.43C-5.65 87.43 -4.68 86.46 -4.68 85.27C-4.68 84.08 -5.66 83.11 -6.84 83.11ZM-6.84 86.49C-7.51 86.49 -8.06 85.94 -8.06 85.27C-8.06 84.6 -7.51 84.05 -6.84 84.05C-6.17 84.05 -5.62 84.6 -5.62 85.27C-5.62 85.94 -6.17 86.49 -6.84 86.49ZM91.08 83.11C89.89 83.11 88.92 84.08 88.92 85.27C88.92 86.46 89.89 87.43 91.08 87.43C92.27 87.43 93.24 86.46 93.24 85.27C93.24 84.08 92.27 83.11 91.08 83.11ZM91.08 86.49C90.41 86.49 89.86 85.94 89.86 85.27C89.86 84.6 90.41 84.05 91.08 84.05C91.75 84.05 92.3 84.6 92.3 85.27C92.3 85.94 91.75 86.49 91.08 86.49ZM140.04 83.11C138.85 83.11 137.88 84.08 137.88 85.27C137.88 86.46 138.85 87.43 140.04 87.43C141.23 87.43 142.2 86.46 142.2 85.27C142.2 84.08 141.23 83.11 140.04 83.11ZM140.04 86.49C139.37 86.49 138.82 85.94 138.82 85.27C138.82 84.6 139.37 84.05 140.04 84.05C140.71 84.05 141.26 84.6 141.26 85.27C141.26 85.94 140.71 86.49 140.04 86.49ZM237.96 83.11C236.77 83.11 235.8 84.08 235.8 85.27C235.8 86.46 236.77 87.43 237.96 87.43C239.15 87.43 240.12 86.46 240.12 85.27C240.12 84.08 239.15 83.11 237.96 83.11ZM237.96 86.49C237.29 86.49 236.74 85.94 236.74 85.27C236.74 84.6 237.29 84.05 237.96 84.05C238.63 84.05 239.18 84.6 239.18 85.27C239.18 85.94 238.63 86.49 237.96 86.49ZM335.88 83.11C334.69 83.11 333.72 84.08 333.72 85.27C333.72 86.46 334.69 87.43 335.88 87.43C337.07 87.43 338.04 86.46 338.04 85.27C338.04 84.08 337.07 83.11 335.88 83.11ZM335.88 86.49C335.21 86.49 334.66 85.94 334.66 85.27C334.66 84.6 335.21 84.05 335.88 84.05C336.55 84.05 337.1 84.6 337.1 85.27C337.1 85.94 336.56 86.49 335.88 86.49ZM433.8 83.11C432.61 83.11 431.64 84.08 431.64 85.27C431.64 86.46 432.61 87.43 433.8 87.43C434.99 87.43 435.96 86.46 435.96 85.27C435.96 84.08 434.99 83.11 433.8 83.11ZM433.8 86.49C433.13 86.49 432.58 85.94 432.58 85.27C432.58 84.6 433.13 84.05 433.8 84.05C434.47 84.05 435.02 84.6 435.02 85.27C435.02 85.94 434.48 86.49 433.8 86.49ZM189 83.19C187.81 83.19 186.84 84.16 186.84 85.35C186.84 86.54 187.81 87.51 189 87.51C190.19 87.51 191.16 86.54 191.16 85.35C191.16 84.16 190.19 83.19 189 83.19ZM189 86.57C188.33 86.57 187.78 86.02 187.78 85.35C187.78 84.68 188.33 84.13 189 84.13C189.67 84.13 190.22 84.68 190.22 85.35C190.22 86.02 189.67 86.57 189 86.57ZM42.12 83.19C40.93 83.19 39.96 84.16 39.96 85.35C39.96 86.54 40.93 87.51 42.12 87.51C43.31 87.51 44.28 86.54 44.28 85.35C44.28 84.16 43.31 83.19 42.12 83.19ZM42.12 86.57C41.45 86.57 40.9 86.02 40.9 85.35C40.9 84.68 41.45 84.13 42.12 84.13C42.79 84.13 43.34 84.68 43.34 85.35C43.34 86.02 42.79 86.57 42.12 86.57ZM286.92 83.19C285.73 83.19 284.76 84.16 284.76 85.35C284.76 86.54 285.73 87.51 286.92 87.51C288.11 87.51 289.08 86.54 289.08 85.35C289.08 84.16 288.11 83.19 286.92 83.19ZM286.92 86.57C286.25 86.57 285.7 86.02 285.7 85.35C285.7 84.68 286.25 84.13 286.92 84.13C287.59 84.13 288.14 84.68 288.14 85.35C288.14 86.02 287.59 86.57 286.92 86.57ZM384.84 83.19C383.65 83.19 382.68 84.16 382.68 85.35C382.68 86.54 383.65 87.51 384.84 87.51C386.03 87.51 387 86.54 387 85.35C387 84.16 386.03 83.19 384.84 83.19ZM384.84 86.57C384.17 86.57 383.62 86.02 383.62 85.35C383.62 84.68 384.17 84.13 384.84 84.13C385.51 84.13 386.06 84.68 386.06 85.35C386.06 86.02 385.52 86.57 384.84 86.57ZM482.77 83.11C481.58 83.11 480.61 84.08 480.61 85.27C480.61 86.46 481.58 87.43 482.77 87.43C483.96 87.43 484.93 86.46 484.93 85.27C484.93 84.08 483.95 83.11 482.77 83.11ZM482.77 86.49C482.1 86.49 481.55 85.94 481.55 85.27C481.55 84.6 482.1 84.05 482.77 84.05C483.44 84.05 483.99 84.6 483.99 85.27C483.99 85.94 483.44 86.49 482.77 86.49ZM482.77 229.84C481.58 229.84 480.61 230.81 480.61 232C480.61 233.19 481.58 234.16 482.77 234.16C483.96 234.16 484.93 233.19 484.93 232C484.92 230.81 483.95 229.84 482.77 229.84ZM482.77 233.22C482.1 233.22 481.55 232.67 481.55 232C481.55 231.33 482.1 230.78 482.77 230.78C483.44 230.78 483.99 231.33 483.99 232C483.99 232.67 483.44 233.22 482.77 233.22ZM482.77 426.07C481.58 426.07 480.61 427.04 480.61 428.23C480.61 429.42 481.58 430.39 482.77 430.39C483.96 430.39 484.93 429.42 484.93 428.23C484.93 427.04 483.95 426.07 482.77 426.07ZM482.77 429.45C482.1 429.45 481.55 428.9 481.55 428.23C481.55 427.56 482.1 427.01 482.77 427.01C483.44 427.01 483.99 427.56 483.99 428.23C483.99 428.9 483.44 429.45 482.77 429.45ZM482.77 523.76C481.58 523.76 480.61 524.73 480.61 525.92C480.61 527.11 481.58 528.08 482.77 528.08C483.96 528.08 484.93 527.11 484.93 525.92C484.92 524.73 483.95 523.76 482.77 523.76ZM482.77 527.14C482.1 527.14 481.55 526.59 481.55 525.92C481.55 525.25 482.1 524.7 482.77 524.7C483.44 524.7 483.99 525.25 483.99 525.92C483.99 526.59 483.44 527.14 482.77 527.14ZM482.77 327.96C481.58 327.96 480.61 328.93 480.61 330.12C480.61 331.31 481.58 332.28 482.77 332.28C483.96 332.28 484.93 331.31 484.93 330.12C484.92 328.92 483.95 327.96 482.77 327.96ZM482.77 331.33C482.1 331.33 481.55 330.78 481.55 330.11C481.55 329.44 482.1 328.89 482.77 328.89C483.44 328.89 483.99 329.44 483.99 330.11C483.99 330.78 483.44 331.33 482.77 331.33ZM-6.84 180.84C-8.03 180.84 -9 181.81 -9 183C-9 184.19 -8.03 185.16 -6.84 185.16C-5.65 185.16 -4.68 184.19 -4.68 183C-4.69 181.81 -5.66 180.84 -6.84 180.84ZM-6.84 184.22C-7.51 184.22 -8.06 183.67 -8.06 183C-8.06 182.33 -7.51 181.78 -6.84 181.78C-6.17 181.78 -5.62 182.33 -5.62 183C-5.62 183.67 -6.17 184.22 -6.84 184.22ZM91.08 180.84C89.89 180.84 88.92 181.81 88.92 183C88.92 184.19 89.89 185.16 91.08 185.16C92.27 185.16 93.24 184.19 93.24 183C93.23 181.81 92.27 180.84 91.08 180.84ZM91.08 184.22C90.41 184.22 89.86 183.67 89.86 183C89.86 182.33 90.41 181.78 91.08 181.78C91.75 181.78 92.3 182.33 92.3 183C92.3 183.67 91.75 184.22 91.08 184.22ZM140.04 180.84C138.85 180.84 137.88 181.81 137.88 183C137.88 184.19 138.85 185.16 140.04 185.16C141.23 185.16 142.2 184.19 142.2 183C142.19 181.81 141.23 180.84 140.04 180.84ZM140.04 184.22C139.37 184.22 138.82 183.67 138.82 183C138.82 182.33 139.37 181.78 140.04 181.78C140.71 181.78 141.26 182.33 141.26 183C141.26 183.67 140.71 184.22 140.04 184.22ZM237.96 180.84C236.77 180.84 235.8 181.81 235.8 183C235.8 184.19 236.77 185.16 237.96 185.16C239.15 185.16 240.12 184.19 240.12 183C240.12 181.81 239.15 180.84 237.96 180.84ZM237.96 184.22C237.29 184.22 236.74 183.67 236.74 183C236.74 182.33 237.29 181.78 237.96 181.78C238.63 181.78 239.18 182.33 239.18 183C239.18 183.67 238.63 184.22 237.96 184.22ZM335.88 180.84C334.69 180.84 333.72 181.81 333.72 183C333.72 184.19 334.69 185.16 335.88 185.16C337.07 185.16 338.04 184.19 338.04 183C338.04 181.81 337.07 180.84 335.88 180.84ZM335.88 184.22C335.21 184.22 334.66 183.67 334.66 183C334.66 182.33 335.21 181.78 335.88 181.78C336.55 181.78 337.1 182.33 337.1 183C337.1 183.67 336.56 184.22 335.88 184.22ZM433.8 180.84C432.61 180.84 431.64 181.81 431.64 183C431.64 184.19 432.61 185.16 433.8 185.16C434.99 185.16 435.96 184.19 435.96 183C435.96 181.81 434.99 180.84 433.8 180.84ZM433.8 184.22C433.13 184.22 432.58 183.67 432.58 183C432.58 182.33 433.13 181.78 433.8 181.78C434.47 181.78 435.02 182.33 435.02 183C435.02 183.67 434.48 184.22 433.8 184.22ZM189 180.92C187.81 180.92 186.84 181.89 186.84 183.08C186.84 184.27 187.81 185.24 189 185.24C190.19 185.24 191.16 184.27 191.16 183.08C191.16 181.89 190.19 180.92 189 180.92ZM189 184.3C188.33 184.3 187.78 183.75 187.78 183.08C187.78 182.41 188.33 181.86 189 181.86C189.67 181.86 190.22 182.41 190.22 183.08C190.22 183.75 189.67 184.3 189 184.3ZM42.12 180.92C40.93 180.92 39.96 181.89 39.96 183.08C39.96 184.27 40.93 185.24 42.12 185.24C43.31 185.24 44.28 184.27 44.28 183.08C44.28 181.89 43.31 180.92 42.12 180.92ZM42.12 184.3C41.45 184.3 40.9 183.75 40.9 183.08C40.9 182.41 41.45 181.86 42.12 181.86C42.79 181.86 43.34 182.41 43.34 183.08C43.34 183.75 42.79 184.3 42.12 184.3ZM286.92 180.92C285.73 180.92 284.76 181.89 284.76 183.08C284.76 184.27 285.73 185.24 286.92 185.24C288.11 185.24 289.08 184.27 289.08 183.08C289.08 181.89 288.11 180.92 286.92 180.92ZM286.92 184.3C286.25 184.3 285.7 183.75 285.7 183.08C285.7 182.41 286.25 181.86 286.92 181.86C287.59 181.86 288.14 182.41 288.14 183.08C288.14 183.75 287.59 184.3 286.92 184.3ZM384.84 180.92C383.65 180.92 382.68 181.89 382.68 183.08C382.68 184.27 383.65 185.24 384.84 185.24C386.03 185.24 387 184.27 387 183.08C387 181.89 386.03 180.92 384.84 180.92ZM384.84 184.3C384.17 184.3 383.62 183.75 383.62 183.08C383.62 182.41 384.17 181.86 384.84 181.86C385.51 181.86 386.06 182.41 386.06 183.08C386.06 183.75 385.52 184.3 384.84 184.3ZM482.77 180.84C481.58 180.84 480.61 181.81 480.61 183C480.61 184.19 481.58 185.16 482.77 185.16C483.96 185.16 484.93 184.19 484.93 183C484.92 181.81 483.95 180.84 482.77 180.84ZM482.77 184.22C482.1 184.22 481.55 183.67 481.55 183C481.55 182.33 482.1 181.78 482.77 181.78C483.44 181.78 483.99 182.33 483.99 183C483.99 183.67 483.44 184.22 482.77 184.22ZM-6.84 278.57C-8.03 278.57 -9 279.54 -9 280.73C-9 281.92 -8.03 282.89 -6.84 282.89C-5.65 282.89 -4.68 281.92 -4.68 280.73C-4.69 279.54 -5.66 278.57 -6.84 278.57ZM-6.84 281.95C-7.51 281.95 -8.06 281.4 -8.06 280.73C-8.06 280.06 -7.51 279.51 -6.84 279.51C-6.17 279.51 -5.62 280.06 -5.62 280.73C-5.62 281.4 -6.17 281.95 -6.84 281.95ZM91.08 278.57C89.89 278.57 88.92 279.54 88.92 280.73C88.92 281.92 89.89 282.89 91.08 282.89C92.27 282.89 93.24 281.92 93.24 280.73C93.23 279.54 92.27 278.57 91.08 278.57ZM91.08 281.95C90.41 281.95 89.86 281.4 89.86 280.73C89.86 280.06 90.41 279.51 91.08 279.51C91.75 279.51 92.3 280.06 92.3 280.73C92.3 281.4 91.75 281.95 91.08 281.95ZM140.04 278.57C138.85 278.57 137.88 279.54 137.88 280.73C137.88 281.92 138.85 282.89 140.04 282.89C141.23 282.89 142.2 281.92 142.2 280.73C142.19 279.54 141.23 278.57 140.04 278.57ZM140.04 281.95C139.37 281.95 138.82 281.4 138.82 280.73C138.82 280.06 139.37 279.51 140.04 279.51C140.71 279.51 141.26 280.06 141.26 280.73C141.26 281.4 140.71 281.95 140.04 281.95ZM237.96 278.57C236.77 278.57 235.8 279.54 235.8 280.73C235.8 281.92 236.77 282.89 237.96 282.89C239.15 282.89 240.12 281.92 240.12 280.73C240.12 279.54 239.15 278.57 237.96 278.57ZM237.96 281.95C237.29 281.95 236.74 281.4 236.74 280.73C236.74 280.06 237.29 279.51 237.96 279.51C238.63 279.51 239.18 280.06 239.18 280.73C239.18 281.4 238.63 281.95 237.96 281.95ZM335.88 278.57C334.69 278.57 333.72 279.54 333.72 280.73C333.72 281.92 334.69 282.89 335.88 282.89C337.07 282.89 338.04 281.92 338.04 280.73C338.04 279.54 337.07 278.57 335.88 278.57ZM335.88 281.95C335.21 281.95 334.66 281.4 334.66 280.73C334.66 280.06 335.21 279.51 335.88 279.51C336.55 279.51 337.1 280.06 337.1 280.73C337.1 281.4 336.56 281.95 335.88 281.95ZM433.8 278.57C432.61 278.57 431.64 279.54 431.64 280.73C431.64 281.92 432.61 282.89 433.8 282.89C434.99 282.89 435.96 281.92 435.96 280.73C435.96 279.54 434.99 278.57 433.8 278.57ZM433.8 281.95C433.13 281.95 432.58 281.4 432.58 280.73C432.58 280.06 433.13 279.51 433.8 279.51C434.47 279.51 435.02 280.06 435.02 280.73C435.02 281.4 434.48 281.95 433.8 281.95ZM189 278.66C187.81 278.66 186.84 279.63 186.84 280.82C186.84 282.01 187.81 282.98 189 282.98C190.19 282.98 191.16 282.01 191.16 280.82C191.16 279.63 190.19 278.66 189 278.66ZM189 282.03C188.33 282.03 187.78 281.48 187.78 280.81C187.78 280.14 188.33 279.59 189 279.59C189.67 279.59 190.22 280.14 190.22 280.81C190.22 281.48 189.67 282.03 189 282.03ZM42.12 278.66C40.93 278.66 39.96 279.63 39.96 280.82C39.96 282.01 40.93 282.98 42.12 282.98C43.31 282.98 44.28 282.01 44.28 280.82C44.28 279.63 43.31 278.66 42.12 278.66ZM42.12 282.03C41.45 282.03 40.9 281.48 40.9 280.81C40.9 280.14 41.45 279.59 42.12 279.59C42.79 279.59 43.34 280.14 43.34 280.81C43.34 281.48 42.79 282.03 42.12 282.03ZM286.92 278.66C285.73 278.66 284.76 279.63 284.76 280.82C284.76 282.01 285.73 282.98 286.92 282.98C288.11 282.98 289.08 282.01 289.08 280.82C289.08 279.63 288.11 278.66 286.92 278.66ZM286.92 282.03C286.25 282.03 285.7 281.48 285.7 280.81C285.7 280.14 286.25 279.59 286.92 279.59C287.59 279.59 288.14 280.14 288.14 280.81C288.14 281.48 287.59 282.03 286.92 282.03ZM384.84 278.66C383.65 278.66 382.68 279.63 382.68 280.82C382.68 282.01 383.65 282.98 384.84 282.98C386.03 282.98 387 282.01 387 280.82C387 279.63 386.03 278.66 384.84 278.66ZM384.84 282.03C384.17 282.03 383.62 281.48 383.62 280.81C383.62 280.14 384.17 279.59 384.84 279.59C385.51 279.59 386.06 280.14 386.06 280.81C386.06 281.48 385.52 282.03 384.84 282.03ZM482.77 278.57C481.58 278.57 480.61 279.54 480.61 280.73C480.61 281.92 481.58 282.89 482.77 282.89C483.96 282.89 484.93 281.92 484.93 280.73C484.92 279.54 483.95 278.57 482.77 278.57ZM482.77 281.95C482.1 281.95 481.55 281.4 481.55 280.73C481.55 280.06 482.1 279.51 482.77 279.51C483.44 279.51 483.99 280.06 483.99 280.73C483.99 281.4 483.44 281.95 482.77 281.95ZM-6.84 376.92C-8.03 376.92 -9 377.89 -9 379.08C-9 380.27 -8.03 381.24 -6.84 381.24C-5.65 381.24 -4.68 380.27 -4.68 379.08C-4.69 377.88 -5.66 376.92 -6.84 376.92ZM-6.84 380.3C-7.51 380.3 -8.06 379.75 -8.06 379.08C-8.06 378.41 -7.51 377.86 -6.84 377.86C-6.17 377.86 -5.62 378.41 -5.62 379.08C-5.62 379.75 -6.17 380.3 -6.84 380.3ZM91.08 376.92C89.89 376.92 88.92 377.89 88.92 379.08C88.92 380.27 89.89 381.24 91.08 381.24C92.27 381.24 93.24 380.27 93.24 379.08C93.23 377.88 92.27 376.92 91.08 376.92ZM91.08 380.3C90.41 380.3 89.86 379.75 89.86 379.08C89.86 378.41 90.41 377.86 91.08 377.86C91.75 377.86 92.3 378.41 92.3 379.08C92.3 379.75 91.75 380.3 91.08 380.3ZM140.04 376.92C138.85 376.92 137.88 377.89 137.88 379.08C137.88 380.27 138.85 381.24 140.04 381.24C141.23 381.24 142.2 380.27 142.2 379.08C142.19 377.88 141.23 376.92 140.04 376.92ZM140.04 380.3C139.37 380.3 138.82 379.75 138.82 379.08C138.82 378.41 139.37 377.86 140.04 377.86C140.71 377.86 141.26 378.41 141.26 379.08C141.26 379.75 140.71 380.3 140.04 380.3ZM237.96 376.92C236.77 376.92 235.8 377.89 235.8 379.08C235.8 380.27 236.77 381.24 237.96 381.24C239.15 381.24 240.12 380.27 240.12 379.08C240.12 377.88 239.15 376.92 237.96 376.92ZM237.96 380.3C237.29 380.3 236.74 379.75 236.74 379.08C236.74 378.41 237.29 377.86 237.96 377.86C238.63 377.86 239.18 378.41 239.18 379.08C239.18 379.75 238.63 380.3 237.96 380.3ZM335.88 376.92C334.69 376.92 333.72 377.89 333.72 379.08C333.72 380.27 334.69 381.24 335.88 381.24C337.07 381.24 338.04 380.27 338.04 379.08C338.04 377.88 337.07 376.92 335.88 376.92ZM335.88 380.3C335.21 380.3 334.66 379.75 334.66 379.08C334.66 378.41 335.21 377.86 335.88 377.86C336.55 377.86 337.1 378.41 337.1 379.08C337.1 379.75 336.56 380.3 335.88 380.3ZM433.8 376.92C432.61 376.92 431.64 377.89 431.64 379.08C431.64 380.27 432.61 381.24 433.8 381.24C434.99 381.24 435.96 380.27 435.96 379.08C435.96 377.88 434.99 376.92 433.8 376.92ZM433.8 380.3C433.13 380.3 432.58 379.75 432.58 379.08C432.58 378.41 433.13 377.86 433.8 377.86C434.47 377.86 435.02 378.41 435.02 379.08C435.02 379.75 434.48 380.3 433.8 380.3ZM189 377C187.81 377 186.84 377.97 186.84 379.16C186.84 380.35 187.81 381.32 189 381.32C190.19 381.32 191.16 380.35 191.16 379.16C191.16 377.97 190.19 377 189 377ZM189 380.38C188.33 380.38 187.78 379.83 187.78 379.16C187.78 378.49 188.33 377.94 189 377.94C189.67 377.94 190.22 378.49 190.22 379.16C190.22 379.83 189.67 380.38 189 380.38ZM42.12 377C40.93 377 39.96 377.97 39.96 379.16C39.96 380.35 40.93 381.32 42.12 381.32C43.31 381.32 44.28 380.35 44.28 379.16C44.27 377.97 43.31 377 42.12 377ZM42.12 380.38C41.45 380.38 40.9 379.83 40.9 379.16C40.9 378.49 41.45 377.94 42.12 377.94C42.79 377.94 43.34 378.49 43.34 379.16C43.34 379.83 42.79 380.38 42.12 380.38ZM286.92 377C285.73 377 284.76 377.97 284.76 379.16C284.76 380.35 285.73 381.32 286.92 381.32C288.11 381.32 289.08 380.35 289.08 379.16C289.08 377.97 288.11 377 286.92 377ZM286.92 380.38C286.25 380.38 285.7 379.83 285.7 379.16C285.7 378.49 286.25 377.94 286.92 377.94C287.59 377.94 288.14 378.49 288.14 379.16C288.14 379.83 287.59 380.38 286.92 380.38ZM384.84 377C383.65 377 382.68 377.97 382.68 379.16C382.68 380.35 383.65 381.32 384.84 381.32C386.03 381.32 387 380.35 387 379.16C387 377.97 386.03 377 384.84 377ZM384.84 380.38C384.17 380.38 383.62 379.83 383.62 379.16C383.62 378.49 384.17 377.94 384.84 377.94C385.51 377.94 386.06 378.49 386.06 379.16C386.06 379.83 385.52 380.38 384.84 380.38ZM482.77 376.92C481.58 376.92 480.61 377.89 480.61 379.08C480.61 380.27 481.58 381.24 482.77 381.24C483.96 381.24 484.93 380.27 484.93 379.08C484.92 377.88 483.95 376.92 482.77 376.92ZM482.77 380.3C482.1 380.3 481.55 379.75 481.55 379.08C481.55 378.41 482.1 377.86 482.77 377.86C483.44 377.86 483.99 378.41 483.99 379.08C483.99 379.75 483.44 380.3 482.77 380.3ZM-6.84 475.26C-8.03 475.26 -9 476.23 -9 477.42C-9 478.61 -8.03 479.58 -6.84 479.58C-5.65 479.58 -4.68 478.61 -4.68 477.42C-4.69 476.23 -5.66 475.26 -6.84 475.26ZM-6.84 478.64C-7.51 478.64 -8.06 478.09 -8.06 477.42C-8.06 476.75 -7.51 476.2 -6.84 476.2C-6.17 476.2 -5.62 476.75 -5.62 477.42C-5.62 478.09 -6.17 478.64 -6.84 478.64ZM91.08 475.26C89.89 475.26 88.92 476.23 88.92 477.42C88.92 478.61 89.89 479.58 91.08 479.58C92.27 479.58 93.24 478.61 93.24 477.42C93.23 476.23 92.27 475.26 91.08 475.26ZM91.08 478.64C90.41 478.64 89.86 478.09 89.86 477.42C89.86 476.75 90.41 476.2 91.08 476.2C91.75 476.2 92.3 476.75 92.3 477.42C92.3 478.09 91.75 478.64 91.08 478.64ZM140.04 475.26C138.85 475.26 137.88 476.23 137.88 477.42C137.88 478.61 138.85 479.58 140.04 479.58C141.23 479.58 142.2 478.61 142.2 477.42C142.19 476.23 141.23 475.26 140.04 475.26ZM140.04 478.64C139.37 478.64 138.82 478.09 138.82 477.42C138.82 476.75 139.37 476.2 140.04 476.2C140.71 476.2 141.26 476.75 141.26 477.42C141.26 478.09 140.71 478.64 140.04 478.64ZM237.96 475.26C236.77 475.26 235.8 476.23 235.8 477.42C235.8 478.61 236.77 479.58 237.96 479.58C239.15 479.58 240.12 478.61 240.12 477.42C240.12 476.23 239.15 475.26 237.96 475.26ZM237.96 478.64C237.29 478.64 236.74 478.09 236.74 477.42C236.74 476.75 237.29 476.2 237.96 476.2C238.63 476.2 239.18 476.75 239.18 477.42C239.18 478.09 238.63 478.64 237.96 478.64ZM335.88 475.26C334.69 475.26 333.72 476.23 333.72 477.42C333.72 478.61 334.69 479.58 335.88 479.58C337.07 479.58 338.04 478.61 338.04 477.42C338.04 476.23 337.07 475.26 335.88 475.26ZM335.88 478.64C335.21 478.64 334.66 478.09 334.66 477.42C334.66 476.75 335.21 476.2 335.88 476.2C336.55 476.2 337.1 476.75 337.1 477.42C337.1 478.09 336.56 478.64 335.88 478.64ZM433.8 475.26C432.61 475.26 431.64 476.23 431.64 477.42C431.64 478.61 432.61 479.58 433.8 479.58C434.99 479.58 435.96 478.61 435.96 477.42C435.96 476.23 434.99 475.26 433.8 475.26ZM433.8 478.64C433.13 478.64 432.58 478.09 432.58 477.42C432.58 476.75 433.13 476.2 433.8 476.2C434.47 476.2 435.02 476.75 435.02 477.42C435.02 478.09 434.48 478.64 433.8 478.64ZM189 475.35C187.81 475.35 186.84 476.32 186.84 477.51C186.84 478.7 187.81 479.67 189 479.67C190.19 479.67 191.16 478.7 191.16 477.51C191.16 476.32 190.19 475.35 189 475.35ZM189 478.73C188.33 478.73 187.78 478.18 187.78 477.51C187.78 476.84 188.33 476.29 189 476.29C189.67 476.29 190.22 476.84 190.22 477.51C190.22 478.18 189.67 478.73 189 478.73ZM42.12 475.35C40.93 475.35 39.96 476.32 39.96 477.51C39.96 478.7 40.93 479.67 42.12 479.67C43.31 479.67 44.28 478.7 44.28 477.51C44.28 476.32 43.31 475.35 42.12 475.35ZM42.12 478.73C41.45 478.73 40.9 478.18 40.9 477.51C40.9 476.84 41.45 476.29 42.12 476.29C42.79 476.29 43.34 476.84 43.34 477.51C43.34 478.18 42.79 478.73 42.12 478.73ZM286.92 475.35C285.73 475.35 284.76 476.32 284.76 477.51C284.76 478.7 285.73 479.67 286.92 479.67C288.11 479.67 289.08 478.7 289.08 477.51C289.08 476.32 288.11 475.35 286.92 475.35ZM286.92 478.73C286.25 478.73 285.7 478.18 285.7 477.51C285.7 476.84 286.25 476.29 286.92 476.29C287.59 476.29 288.14 476.84 288.14 477.51C288.14 478.18 287.59 478.73 286.92 478.73ZM384.84 475.35C383.65 475.35 382.68 476.32 382.68 477.51C382.68 478.7 383.65 479.67 384.84 479.67C386.03 479.67 387 478.7 387 477.51C387 476.32 386.03 475.35 384.84 475.35ZM384.84 478.73C384.17 478.73 383.62 478.18 383.62 477.51C383.62 476.84 384.17 476.29 384.84 476.29C385.51 476.29 386.06 476.84 386.06 477.51C386.06 478.18 385.52 478.73 384.84 478.73ZM482.77 475.26C481.58 475.26 480.61 476.23 480.61 477.42C480.61 478.61 481.58 479.58 482.77 479.58C483.96 479.58 484.93 478.61 484.93 477.42C484.92 476.23 483.95 475.26 482.77 475.26ZM482.77 478.64C482.1 478.64 481.55 478.09 481.55 477.42C481.55 476.75 482.1 476.2 482.77 476.2C483.44 476.2 483.99 476.75 483.99 477.42C483.99 478.09 483.44 478.64 482.77 478.64Z" fill="url(#paint1_linear_434_647)"/>
<g filter="url(#filter0_dddddd_434_647)">
<path d="M309.168 634.141L309.168 586.191L325.428 586.191L325.428 615.732L334.266 615.732L334.266 590.537L349.549 590.537L349.549 615.732L359.266 615.732L359.266 585.752L375.574 585.752L375.574 634.141L309.168 634.141ZM309.119 572.92L309.119 553.486L351.355 537.617L351.355 537.373L309.119 521.455L309.119 502.021L375.574 529.268L375.574 545.723L309.119 572.92ZM309.168 485.918L309.168 437.969L325.428 437.969L325.428 467.51L334.266 467.51L334.266 442.314L349.549 442.314L349.549 467.51L359.266 467.51L359.266 437.529L375.574 437.529L375.574 485.918L309.168 485.918ZM309.168 419.082L309.168 402.92L345.74 375.234L309.168 375.234L309.168 356.875L375.574 356.875L375.574 372.842L338.855 400.674L375.574 400.674L375.574 419.082L309.168 419.082ZM325.477 321.924L325.477 339.453L309.168 339.453L309.168 286.133L325.477 286.133L325.477 303.613L375.574 303.613L375.574 321.924L325.477 321.924Z" fill="white"/>
</g>
</g>
<defs>
<filter id="filter0_dddddd_434_647" x="229.119" y="286.133" width="226.455" height="528.008" filterUnits="userSpaceOnUse" color-interpolation-filters="sRGB">
<feFlood flood-opacity="0" result="BackgroundImageFix"/>
<feColorMatrix in="SourceAlpha" type="matrix" values="0 0 0 0 0 0 0 0 0 0 0 0 0 0 0 0 0 0 127 0" result="hardAlpha"/>
<feOffset dy="2.76726"/>
<feGaussianBlur stdDeviation="1.1069"/>
<feColorMatrix type="matrix" values="0 0 0 0 0.784314 0 0 0 0 0.784314 0 0 0 0 0.784314 0 0 0 0.0196802 0"/>
<feBlend mode="normal" in2="BackgroundImageFix" result="effect1_dropShadow_434_647"/>
<feColorMatrix in="SourceAlpha" type="matrix" values="0 0 0 0 0 0 0 0 0 0 0 0 0 0 0 0 0 0 127 0" result="hardAlpha"/>
<feOffset dy="6.6501"/>
<feGaussianBlur stdDeviation="2.66004"/>
<feColorMatrix type="matrix" values="0 0 0 0 0.784314 0 0 0 0 0.784314 0 0 0 0 0.784314 0 0 0 0.0282725 0"/>
<feBlend mode="normal" in2="effect1_dropShadow_434_647" result="effect2_dropShadow_434_647"/>
<feColorMatrix in="SourceAlpha" type="matrix" values="0 0 0 0 0 0 0 0 0 0 0 0 0 0 0 0 0 0 127 0" result="hardAlpha"/>
<feOffset dy="12.5216"/>
<feGaussianBlur stdDeviation="5.00862"/>
<feColorMatrix type="matrix" values="0 0 0 0 0.784314 0 0 0 0 0.784314 0 0 0 0 0.784314 0 0 0 0.035 0"/>
<feBlend mode="normal" in2="effect2_dropShadow_434_647" result="effect3_dropShadow_434_647"/>
<feColorMatrix in="SourceAlpha" type="matrix" values="0 0 0 0 0 0 0 0 0 0 0 0 0 0 0 0 0 0 127 0" result="hardAlpha"/>
<feOffset dy="22.3363"/>
<feGaussianBlur stdDeviation="8.93452"/>
<feColorMatrix type="matrix" values="0 0 0 0 0.784314 0 0 0 0 0.784314 0 0 0 0 0.784314 0 0 0 0.0417275 0"/>
<feBlend mode="normal" in2="effect3_dropShadow_434_647" result="effect4_dropShadow_434_647"/>
<feColorMatrix in="SourceAlpha" type="matrix" values="0 0 0 0 0 0 0 0 0 0 0 0 0 0 0 0 0 0 127 0" result="hardAlpha"/>
<feOffset dy="41.7776"/>
<feGaussianBlur stdDeviation="16.711"/>
<feColorMatrix type="matrix" values="0 0 0 0 0.784314 0 0 0 0 0.784314 0 0 0 0 0.784314 0 0 0 0.0503198 0"/>
<feBlend mode="normal" in2="effect4_dropShadow_434_647" result="effect5_dropShadow_434_647"/>
<feColorMatrix in="SourceAlpha" type="matrix" values="0 0 0 0 0 0 0 0 0 0 0 0 0 0 0 0 0 0 127 0" result="hardAlpha"/>
<feOffset dy="100"/>
<feGaussianBlur stdDeviation="40"/>
<feColorMatrix type="matrix" values="0 0 0 0 0.784314 0 0 0 0 0.784314 0 0 0 0 0.784314 0 0 0 0.07 0"/>
<feBlend mode="normal" in2="effect5_dropShadow_434_647" result="effect6_dropShadow_434_647"/>
<feBlend mode="normal" in="SourceGraphic" in2="effect6_dropShadow_434_647" result="shape"/>
</filter>
<linearGradient id="paint0_linear_434_647" x1="398" y1="712.5" x2="99.5" y2="51.5" gradientUnits="userSpaceOnUse">
<stop stop-color="white" stop-opacity="0.7"/>
<stop offset="1" stop-color="white" stop-opacity="0.22"/>
</linearGradient>
<linearGradient id="paint1_linear_434_647" x1="398" y1="712.5" x2="99.5" y2="51.5" gradientUnits="userSpaceOnUse">
<stop stop-color="white" stop-opacity="0.7"/>
<stop offset="1" stop-color="white" stop-opacity="0.22"/>
</linearGradient>
</defs>
</svg>
