<svg width="691" height="107" viewBox="0 0 691 107" fill="none" xmlns="http://www.w3.org/2000/svg">
<g clip-path="url(#clip0_210_3)">
<path d="M27.6444 41.9263C32.1277 41.9263 36.1391 42.8846 39.6786 44.8197C43.2181 46.7547 45.9953 49.4454 47.9919 52.8732C49.9885 56.3195 50.9869 60.1896 50.9869 64.4836C50.9869 69.1278 50.0067 73.2191 48.0464 76.739C46.086 80.2775 43.3452 83.005 39.842 84.94C36.3388 86.8751 32.3455 87.8334 27.8985 87.8334H17.3707V105.452H0V41.9263H27.6444ZM30.2581 71.2287C31.2928 70.5468 32.1096 69.6069 32.7267 68.4275C33.3438 67.248 33.6524 65.9395 33.6524 64.502C33.6524 63.4147 33.3438 62.3274 32.7267 61.2585C32.1096 60.1896 31.2928 59.305 30.24 58.6047C29.2054 57.9044 28.0981 57.5542 26.9183 57.5542H17.3526V72.2607H26.882C28.0981 72.2423 29.2235 71.9106 30.2581 71.2287Z" fill="#FCFCFC"/>
<path d="M85.0207 41.9263C89.5222 41.9263 93.5518 42.8477 97.0731 44.7091C100.594 46.5704 103.353 49.1505 105.35 52.4862C107.347 55.8219 108.345 59.6367 108.345 63.9307C108.345 68.0405 107.365 71.7263 105.405 74.9698C103.444 78.2318 100.74 80.7566 97.3091 82.5627L109.924 105.452H90.0849L80.3377 85.3271H77.2157H74.5474V105.47H57.1948V41.9263H85.0207ZM87.6526 69.7912C88.6873 69.2199 89.5222 68.409 90.1212 67.377C90.7202 66.345 91.0106 65.2024 91.0106 63.9123C91.0106 62.8619 90.702 61.8298 90.0849 60.8346C89.4678 59.8395 88.6509 59.0286 87.6163 58.4204C86.5817 57.8123 85.4745 57.5174 84.2765 57.5174H74.5293V70.639H84.2402C85.4745 70.6574 86.5999 70.381 87.6526 69.7912Z" fill="#FCFCFC"/>
<path d="M129.236 102.522C123.991 99.5363 119.834 95.4819 116.767 90.3585C113.699 85.2352 112.174 79.6512 112.174 73.6064C112.174 67.5247 113.699 61.9591 116.767 56.8542C119.834 51.7678 123.991 47.7318 129.236 44.7462C134.482 41.7607 140.218 40.2864 146.444 40.2864C152.633 40.2864 158.369 41.7791 163.597 44.7462C168.824 47.7133 172.999 51.7493 176.085 56.8542C179.171 61.9591 180.713 67.5247 180.713 73.6064C180.713 79.6512 179.171 85.2352 176.085 90.3585C172.999 95.4819 168.843 99.5363 163.597 102.522C158.351 105.507 152.633 107 146.444 107C140.218 107 134.482 105.507 129.236 102.522ZM155.029 88.7368C157.625 87.2809 159.676 85.2168 161.165 82.5998C162.671 79.9645 163.415 76.9789 163.415 73.6617C163.415 70.3444 162.671 67.3405 161.165 64.7235C159.658 62.0881 157.607 60.0425 155.029 58.5866C152.434 57.1307 149.584 56.3935 146.444 56.3935C143.304 56.3935 140.454 57.1307 137.858 58.5866C135.263 60.0425 133.212 62.1066 131.723 64.7235C130.217 67.3589 129.472 70.3444 129.472 73.6617C129.472 76.9789 130.235 79.9645 131.741 82.5814C133.266 85.1984 135.317 87.244 137.913 88.7183C140.508 90.1927 143.358 90.9298 146.444 90.9298C149.584 90.9298 152.434 90.2111 155.029 88.7368Z" fill="#FCFCFC"/>
<path d="M188.083 41.9263H203.366L220.991 67.1927L238.979 41.9263H254.063V105.452H236.765V69.9202L223.097 90.0081H218.868L205.436 69.736V105.47H188.083V41.9263Z" fill="#FCFCFC"/>
<path d="M278.495 102.522C273.249 99.5363 269.092 95.4819 266.025 90.3585C262.957 85.2352 261.433 79.6512 261.433 73.6064C261.433 67.5247 262.957 61.9591 266.025 56.8542C269.092 51.7678 273.249 47.7318 278.495 44.7462C283.741 41.7791 289.476 40.2864 295.702 40.2864C301.892 40.2864 307.628 41.7791 312.855 44.7462C318.101 47.7133 322.258 51.7493 325.343 56.8542C328.429 61.9407 329.972 67.5247 329.972 73.6064C329.972 79.6512 328.429 85.2352 325.343 90.3585C322.258 95.4819 318.101 99.5363 312.855 102.522C307.609 105.507 301.892 107 295.702 107C289.476 107 283.741 105.507 278.495 102.522ZM304.288 88.7368C306.883 87.2809 308.934 85.2168 310.423 82.5998C311.929 79.9645 312.674 76.9789 312.674 73.6617C312.674 70.3444 311.929 67.3405 310.423 64.7235C308.916 62.0881 306.865 60.0425 304.288 58.5866C301.692 57.1307 298.842 56.3935 295.702 56.3935C292.562 56.3935 289.712 57.1307 287.117 58.5866C284.521 60.0425 282.47 62.1066 280.982 64.7235C279.475 67.3589 278.731 70.3444 278.731 73.6617C278.731 76.9789 279.493 79.9645 281 82.5814C282.506 85.1984 284.575 87.244 287.171 88.7183C289.767 90.1927 292.616 90.9298 295.702 90.9298C298.842 90.9298 301.692 90.2111 304.288 88.7368Z" fill="#FCFCFC"/>
<path d="M350.373 102.503C345.272 99.4991 341.225 95.4447 338.212 90.3398C335.199 85.2349 333.674 79.6508 333.674 73.6245C333.674 67.5428 335.199 61.9772 338.23 56.8723C341.261 51.7674 345.363 47.7498 350.536 44.7643C355.709 41.7788 361.336 40.3044 367.453 40.3044C371.991 40.3044 376.565 41.2812 381.194 43.2163C385.822 45.1513 389.779 47.971 393.083 51.6568C396.405 55.3243 398.419 59.6367 399.164 64.5941H381.502C380.068 61.9403 378.108 59.9131 375.658 58.4941C373.207 57.075 370.303 56.3747 366.963 56.3747C364.041 56.3747 361.373 57.0566 358.959 58.4019C356.544 59.7657 354.602 61.7376 353.168 64.3361C351.734 66.9347 351.008 70.0492 351.008 73.6613C351.008 77.4025 351.716 80.5538 353.15 83.1524C354.584 85.7325 356.508 87.686 358.922 88.9944C361.354 90.3029 364.023 90.9479 366.981 90.9479C370.176 90.9479 372.917 90.3582 375.24 89.1787C377.564 87.9992 379.143 86.1563 379.996 83.6684H366.328V69.9386H399.508C399.635 77.7526 398.419 84.4424 395.878 90.008C393.337 95.5737 389.598 99.7939 384.697 102.687C379.796 105.581 373.897 107.037 367.036 107.037C360.991 107 355.455 105.507 350.373 102.503Z" fill="#FCFCFC"/>
<path d="M434.65 41.9263C439.152 41.9263 443.181 42.8477 446.703 44.7091C450.224 46.5704 452.983 49.1505 454.98 52.4862C456.976 55.8219 457.974 59.6367 457.974 63.9307C457.974 68.0405 456.994 71.7263 455.034 74.9698C453.074 78.2318 450.369 80.7566 446.939 82.5627L459.554 105.452H439.714L429.967 85.3086H426.845H424.177V105.452H406.824V41.9263H434.65ZM437.282 69.7912C438.317 69.2199 439.152 68.409 439.751 67.377C440.35 66.345 440.64 65.2024 440.64 63.9123C440.64 62.8619 440.331 61.8298 439.714 60.8346C439.097 59.8395 438.28 59.0286 437.246 58.4204C436.211 57.8122 435.104 57.5174 433.906 57.5174H424.159V70.639H433.87C435.104 70.6574 436.229 70.381 437.282 69.7912Z" fill="#FCFCFC"/>
<path d="M478.866 102.522C473.621 99.5363 469.464 95.4819 466.396 90.3585C463.329 85.2352 461.804 79.6512 461.804 73.6064C461.804 67.5247 463.329 61.9591 466.396 56.8542C469.464 51.7678 473.621 47.7318 478.866 44.7462C484.112 41.7607 489.848 40.2864 496.074 40.2864C502.263 40.2864 507.999 41.7791 513.227 44.7462C518.454 47.7133 522.629 51.7493 525.715 56.8542C528.8 61.9591 530.343 67.5247 530.343 73.6064C530.343 79.6512 528.8 85.2352 525.715 90.3585C522.629 95.4819 518.472 99.5363 513.227 102.522C507.981 105.507 502.263 107 496.074 107C489.848 107 484.112 105.507 478.866 102.522ZM504.659 88.7368C507.255 87.2809 509.306 85.2168 510.794 82.5998C512.301 79.9645 513.045 76.9789 513.045 73.6617C513.045 70.3444 512.301 67.3405 510.794 64.7235C509.288 62.0881 507.237 60.0425 504.659 58.5866C502.064 57.1307 499.214 56.3935 496.074 56.3935C492.952 56.3935 490.084 57.1307 487.488 58.5866C484.893 60.0425 482.841 62.1066 481.353 64.7235C479.865 67.3405 479.102 70.3444 479.102 73.6617C479.102 76.9789 479.865 79.9645 481.371 82.5814C482.878 85.1984 484.947 87.244 487.543 88.7183C490.138 90.1927 492.988 90.9298 496.074 90.9298C499.214 90.9298 502.064 90.2111 504.659 88.7368Z" fill="#FCFCFC"/>
<path d="M550.6 103.83C546.298 101.711 542.94 98.6882 540.471 94.7444C538.021 90.8005 536.787 86.2117 536.787 80.9778V41.9263H554.085V79.6693C554.085 83.0971 555.029 85.8431 556.934 87.944C558.84 90.0449 561.527 91.077 564.994 91.077C568.406 91.077 571.056 90.0265 572.962 87.9256C574.868 85.8246 575.812 83.0603 575.812 79.6324V41.9263H593.164V80.9778C593.164 85.9537 592.021 90.4319 589.716 94.3758C587.41 98.3381 584.125 101.416 579.878 103.646C575.612 105.876 570.657 106.981 565.012 106.981C559.693 107 554.902 105.949 550.6 103.83Z" fill="#FCFCFC"/>
<path d="M630.938 41.9263C635.421 41.9263 639.433 42.8846 642.972 44.8197C646.512 46.7547 649.289 49.4454 651.285 52.8732C653.282 56.3195 654.28 60.1896 654.28 64.4836C654.28 69.1278 653.3 73.2191 651.34 76.739C649.379 80.2775 646.639 83.005 643.135 84.94C639.632 86.8751 635.639 87.8334 631.192 87.8334H620.664V105.452H603.312V41.9263H630.938ZM633.533 71.2287C634.568 70.5468 635.385 69.6069 636.002 68.4275C636.619 67.248 636.928 65.9395 636.928 64.502C636.928 63.4147 636.619 62.3274 636.002 61.2585C635.385 60.1896 634.568 59.305 633.515 58.6047C632.481 57.9044 631.373 57.5542 630.194 57.5542H620.628V72.2607H630.157C631.373 72.2423 632.499 71.9106 633.533 71.2287Z" fill="#FCFCFC"/>
<path d="M642.119 0H636.583V30.2792H642.119V0Z" fill="#FCFCFC"/>
<path d="M624.438 12.33V17.9509L654.261 17.9509V12.33L624.438 12.33Z" fill="#FCFCFC"/>
<path d="M691.002 45.9018L687.088 41.9272L666 63.3377L669.915 67.3122L691.002 45.9018Z" fill="#FCFCFC"/>
<path d="M669.895 41.9143L665.988 45.8962L687.035 67.3466L690.942 63.3647L669.895 41.9143Z" fill="#FCFCFC"/>
<path d="M678.602 21.7651C682.201 21.7651 685.119 18.803 685.119 15.149C685.119 11.4951 682.201 8.53296 678.602 8.53296C675.003 8.53296 672.086 11.4951 672.086 15.149C672.086 18.803 675.003 21.7651 678.602 21.7651Z" fill="#FCFCFC"/>
</g>
<defs>
<clipPath id="clip0_210_3">
<rect width="691" height="107" fill="white"/>
</clipPath>
</defs>
</svg>
