<svg width="446" height="816" viewBox="0 0 446 816" fill="none" xmlns="http://www.w3.org/2000/svg">
<rect width="363.609" height="667" fill="#0000FF"/>
<mask id="mask0_1_2" style="mask-type:alpha" maskUnits="userSpaceOnUse" x="45" y="26" width="274" height="641">
<rect x="45.4511" y="26.8589" width="273.12" height="639.978" fill="#0000FF"/>
</mask>
<g mask="url(#mask0_1_2)">
</g>
<g clip-path="url(#clip0_1_2)">
<path d="M0.527819 65.2001L2.18459 63.0317L3.84135 65.2001L4.36917 64.5189L2.7124 62.3408L4.3765 60.1628L3.84868 59.4816L2.18459 61.65L0.527819 59.4816L0 60.1628L1.6641 62.3408L0 64.5189L0.527819 65.2001ZM36.4195 65.2001L38.0763 63.0317L39.7331 65.2001L40.2609 64.5189L38.5968 62.3408L40.2609 60.1628L39.7404 59.4816L38.0836 61.65L36.4195 59.4816L35.8917 60.1628L37.5558 62.3408L35.8917 64.5189L36.4195 65.2001ZM72.3112 65.2001L73.968 63.0317L75.6248 65.2001L76.1526 64.5189L74.4885 62.3408L76.1526 60.1628L75.6321 59.4816L73.9753 61.65L72.3112 59.4816L71.7834 60.1628L73.4475 62.3408L71.7834 64.5189L72.3112 65.2001ZM108.203 65.2001L109.86 63.0317L111.516 65.2001L112.044 64.5189L110.38 62.3408L112.044 60.1628L111.524 59.4816L109.867 61.65L108.203 59.4816L107.675 60.1628L109.339 62.3408L107.675 64.5189L108.203 65.2001ZM144.095 65.2001L145.751 63.0317L147.408 65.2001L147.936 64.5189L146.272 62.3408L147.936 60.1628L147.416 59.4816L145.759 61.65L144.095 59.4816L143.567 60.1628L145.231 62.3408L143.567 64.5189L144.095 65.2001ZM179.994 65.2001L181.65 63.0317L183.307 65.2001L183.835 64.5189L182.171 62.3408L183.835 60.1628L183.307 59.4816L181.65 61.65L179.994 59.4816L179.466 60.1628L181.13 62.3408L179.466 64.5189L179.994 65.2001ZM215.885 65.2001L217.542 63.0317L219.199 65.2001L219.727 64.5189L218.063 62.3408L219.727 60.1628L219.199 59.4816L217.542 61.65L215.885 59.4816L215.358 60.1628L217.022 62.3408L215.358 64.5189L215.885 65.2001ZM251.777 65.2001L253.434 63.0317L255.091 65.2001L255.618 64.5189L253.954 62.3408L255.618 60.1628L255.098 59.4816L253.441 61.65L251.777 59.4816L251.249 60.1628L252.913 62.3408L251.249 64.5189L251.777 65.2001ZM287.669 65.2001L289.326 63.0317L290.982 65.2001L291.51 64.5189L289.846 62.3408L291.51 60.1628L290.99 59.4816L289.333 61.65L287.669 59.4816L287.141 60.1628L288.805 62.3408L287.141 64.5189L287.669 65.2001ZM323.561 65.2001L325.217 63.0317L326.874 65.2001L327.402 64.5189L325.738 62.3408L327.402 60.1628L326.881 59.4816L325.225 61.65L323.561 59.4816L323.033 60.1628L324.697 62.3408L323.033 64.5189L323.561 65.2001ZM359.452 65.2001L361.109 63.0317L362.766 65.2001L363.294 64.5189L361.629 62.3408L363.294 60.1628L362.773 59.4816L361.116 61.65L359.452 59.4816L358.924 60.1628L360.589 62.3408L358.924 64.5189L359.452 65.2001ZM3.84868 106.487L2.19192 108.655L0.53515 106.487L0 107.178L1.6641 109.356L0 111.524L0.527819 112.215L2.18459 110.047L3.84135 112.215L4.36917 111.524L2.7124 109.346L4.3765 107.168L3.84868 106.487ZM39.7404 106.487L38.0836 108.655L36.4269 106.487L35.899 107.178L37.5631 109.356L35.899 111.534L36.4269 112.225L38.0836 110.056L39.7404 112.225L40.2682 111.534L38.6041 109.356L40.2682 107.178L39.7404 106.487ZM75.6321 106.487L73.9753 108.655L72.3186 106.487L71.7907 107.178L73.4548 109.356L71.7907 111.534L72.3186 112.225L73.9753 110.056L75.6321 112.225L76.1599 111.534L74.4958 109.356L76.1599 107.178L75.6321 106.487ZM111.524 106.487L109.867 108.655L108.21 106.487L107.682 107.178L109.347 109.356L107.682 111.534L108.21 112.225L109.867 110.056L111.524 112.225L112.052 111.534L110.388 109.356L112.052 107.178L111.524 106.487ZM147.416 106.487L145.759 108.655L144.102 106.487L143.574 107.178L145.238 109.356L143.574 111.534L144.102 112.225L145.759 110.056L147.416 112.225L147.943 111.534L146.279 109.356L147.943 107.178L147.416 106.487ZM183.307 106.487L181.65 108.655L179.994 106.487L179.466 107.178L181.13 109.356L179.466 111.534L179.994 112.225L181.65 110.056L183.307 112.225L183.835 111.534L182.171 109.356L183.835 107.178L183.307 106.487ZM219.206 106.487L217.55 108.655L215.893 106.487L215.365 107.178L217.029 109.356L215.365 111.534L215.893 112.225L217.55 110.056L219.206 112.225L219.734 111.534L218.07 109.356L219.734 107.178L219.206 106.487ZM255.098 106.487L253.441 108.655L251.784 106.487L251.257 107.178L252.921 109.356L251.257 111.534L251.784 112.225L253.441 110.056L255.098 112.225L255.626 111.534L253.962 109.356L255.626 107.178L255.098 106.487ZM290.99 106.487L289.333 108.655L287.676 106.487L287.148 107.178L288.812 109.356L287.148 111.534L287.676 112.225L289.333 110.056L290.99 112.225L291.518 111.534L289.853 109.356L291.518 107.178L290.99 106.487ZM326.881 106.487L325.225 108.655L323.568 106.487L323.04 107.178L324.704 109.356L323.04 111.534L323.568 112.225L325.225 110.056L326.881 112.225L327.409 111.534L325.745 109.356L327.409 107.178L326.881 106.487ZM362.773 106.487L361.116 108.655L359.46 106.487L358.932 107.178L360.596 109.356L358.932 111.534L359.46 112.225L361.116 110.056L362.773 112.225L363.301 111.534L361.637 109.356L363.301 107.178L362.773 106.487ZM0.527819 159.211L2.18459 157.042L3.84135 159.211L4.36917 158.529L2.70507 156.351L4.36917 154.173L3.84135 153.492L2.18459 155.661L0.527819 153.492L0 154.183L1.6641 156.361L0 158.529L0.527819 159.211ZM36.4195 159.211L38.0763 157.042L39.7331 159.211L40.2609 158.529L38.5968 156.351L40.2609 154.173L39.7331 153.492L38.0763 155.661L36.4195 153.492L35.8917 154.173L37.5558 156.351L35.8917 158.529L36.4195 159.211ZM72.3112 159.211L73.968 157.042L75.6248 159.211L76.1526 158.529L74.4885 156.351L76.1526 154.173L75.6248 153.492L73.968 155.661L72.3112 153.492L71.7834 154.173L73.4475 156.351L71.7834 158.529L72.3112 159.211ZM108.203 159.211L109.86 157.042L111.516 159.211L112.044 158.529L110.38 156.351L112.044 154.173L111.516 153.492L109.86 155.661L108.203 153.492L107.675 154.173L109.339 156.351L107.675 158.529L108.203 159.211ZM144.095 159.211L145.751 157.042L147.408 159.211L147.936 158.529L146.272 156.351L147.936 154.173L147.408 153.492L145.751 155.661L144.095 153.492L143.567 154.173L145.231 156.351L143.567 158.529L144.095 159.211ZM179.994 159.211L181.65 157.042L183.307 159.211L183.835 158.529L182.171 156.351L183.835 154.173L183.307 153.492L181.65 155.661L179.994 153.492L179.466 154.173L181.13 156.351L179.466 158.529L179.994 159.211ZM215.885 159.211L217.542 157.042L219.199 159.211L219.727 158.529L218.063 156.351L219.727 154.173L219.199 153.492L217.542 155.661L215.885 153.492L215.358 154.173L217.022 156.351L215.358 158.529L215.885 159.211ZM251.777 159.211L253.434 157.042L255.091 159.211L255.618 158.529L253.954 156.351L255.618 154.173L255.091 153.492L253.434 155.661L251.777 153.492L251.249 154.173L252.913 156.351L251.249 158.529L251.777 159.211ZM287.669 159.211L289.326 157.042L290.982 159.211L291.51 158.529L289.846 156.351L291.51 154.173L290.982 153.492L289.326 155.661L287.669 153.492L287.141 154.173L288.805 156.351L287.141 158.529L287.669 159.211ZM323.561 159.211L325.217 157.042L326.874 159.211L327.402 158.529L325.738 156.351L327.402 154.173L326.874 153.492L325.217 155.661L323.561 153.492L323.033 154.173L324.697 156.351L323.033 158.529L323.561 159.211ZM359.452 159.211L361.109 157.042L362.766 159.211L363.294 158.529L361.629 156.351L363.294 154.173L362.766 153.492L361.109 155.661L359.452 153.492L358.924 154.173L360.589 156.351L358.924 158.529L359.452 159.211ZM3.84868 200.497L2.19192 202.666L0.53515 200.497L0 201.188L1.6641 203.366L0 205.535L0.527819 206.226L2.18459 204.057L3.84135 206.226L4.36917 205.535L2.70507 203.357L4.36917 201.179L3.84868 200.497ZM39.7404 200.497L38.0836 202.666L36.4269 200.497L35.899 201.188L37.5631 203.366L35.899 205.544L36.4269 206.235L38.0836 204.067L39.7404 206.235L40.2682 205.544L38.6041 203.366L40.2682 201.188L39.7404 200.497ZM75.6321 200.497L73.9753 202.666L72.3186 200.497L71.7907 201.188L73.4548 203.366L71.7907 205.544L72.3186 206.235L73.9753 204.067L75.6321 206.235L76.1599 205.544L74.4958 203.366L76.1599 201.188L75.6321 200.497ZM111.524 200.497L109.867 202.666L108.21 200.497L107.682 201.188L109.347 203.366L107.682 205.544L108.21 206.235L109.867 204.067L111.524 206.235L112.052 205.544L110.388 203.366L112.052 201.188L111.524 200.497ZM147.416 200.497L145.759 202.666L144.102 200.497L143.574 201.188L145.238 203.366L143.574 205.544L144.102 206.235L145.759 204.067L147.416 206.235L147.943 205.544L146.279 203.366L147.943 201.188L147.416 200.497ZM183.307 200.497L181.65 202.666L179.994 200.497L179.466 201.188L181.13 203.366L179.466 205.544L179.994 206.235L181.65 204.067L183.307 206.235L183.835 205.544L182.171 203.366L183.835 201.188L183.307 200.497ZM219.206 200.497L217.55 202.666L215.893 200.497L215.365 201.188L217.029 203.366L215.365 205.544L215.893 206.235L217.55 204.067L219.206 206.235L219.734 205.544L218.07 203.366L219.734 201.188L219.206 200.497ZM255.098 200.497L253.441 202.666L251.784 200.497L251.257 201.188L252.921 203.366L251.257 205.544L251.784 206.235L253.441 204.067L255.098 206.235L255.626 205.544L253.962 203.366L255.626 201.188L255.098 200.497ZM290.99 200.497L289.333 202.666L287.676 200.497L287.148 201.188L288.812 203.366L287.148 205.544L287.676 206.235L289.333 204.067L290.99 206.235L291.518 205.544L289.853 203.366L291.518 201.188L290.99 200.497ZM326.881 200.497L325.225 202.666L323.568 200.497L323.04 201.188L324.704 203.366L323.04 205.544L323.568 206.235L325.225 204.067L326.881 206.235L327.409 205.544L325.745 203.366L327.409 201.188L326.881 200.497ZM362.773 200.497L361.116 202.666L359.46 200.497L358.932 201.188L360.596 203.366L358.932 205.544L359.46 206.235L361.116 204.067L362.773 206.235L363.301 205.544L361.637 203.366L363.301 201.188L362.773 200.497ZM0.527819 253.221L2.18459 251.053L3.84135 253.221L4.36917 252.54L2.70507 250.362L4.36917 248.184L3.84135 247.503L2.18459 249.671L0.527819 247.503L0 248.193L1.6641 250.372L0 252.54L0.527819 253.221ZM36.4195 253.221L38.0763 251.053L39.7331 253.221L40.2609 252.54L38.5968 250.362L40.2609 248.184L39.7331 247.503L38.0763 249.671L36.4195 247.503L35.8917 248.184L37.5558 250.362L35.8917 252.54L36.4195 253.221ZM72.3112 253.221L73.968 251.053L75.6248 253.221L76.1526 252.54L74.4885 250.362L76.1526 248.184L75.6248 247.503L73.968 249.671L72.3112 247.503L71.7834 248.184L73.4475 250.362L71.7834 252.54L72.3112 253.221ZM108.203 253.221L109.86 251.053L111.516 253.221L112.044 252.54L110.38 250.362L112.044 248.184L111.516 247.503L109.86 249.671L108.203 247.503L107.675 248.184L109.339 250.362L107.675 252.54L108.203 253.221ZM144.095 253.221L145.751 251.053L147.408 253.221L147.936 252.54L146.272 250.362L147.936 248.184L147.408 247.503L145.751 249.671L144.095 247.503L143.567 248.184L145.231 250.362L143.567 252.54L144.095 253.221ZM179.994 253.221L181.65 251.053L183.307 253.221L183.835 252.54L182.171 250.362L183.835 248.184L183.307 247.503L181.65 249.671L179.994 247.503L179.466 248.184L181.13 250.362L179.466 252.54L179.994 253.221ZM215.885 253.221L217.542 251.053L219.199 253.221L219.727 252.54L218.063 250.362L219.727 248.184L219.199 247.503L217.542 249.671L215.885 247.503L215.358 248.184L217.022 250.362L215.358 252.54L215.885 253.221ZM251.777 253.221L253.434 251.053L255.091 253.221L255.618 252.54L253.954 250.362L255.618 248.184L255.091 247.503L253.434 249.671L251.777 247.503L251.249 248.184L252.913 250.362L251.249 252.54L251.777 253.221ZM287.669 253.221L289.326 251.053L290.982 253.221L291.51 252.54L289.846 250.362L291.51 248.184L290.982 247.503L289.326 249.671L287.669 247.503L287.141 248.184L288.805 250.362L287.141 252.54L287.669 253.221ZM323.561 253.221L325.217 251.053L326.874 253.221L327.402 252.54L325.738 250.362L327.402 248.184L326.874 247.503L325.217 249.671L323.561 247.503L323.033 248.184L324.697 250.362L323.033 252.54L323.561 253.221ZM359.452 253.221L361.109 251.053L362.766 253.221L363.294 252.54L361.629 250.362L363.294 248.184L362.766 247.503L361.109 249.671L359.452 247.503L358.924 248.184L360.589 250.362L358.924 252.54L359.452 253.221ZM4.3765 295.199L3.84868 294.508L2.19192 296.676L0.53515 294.508L0 295.199L1.6641 297.377L0 299.545L0.527819 300.226L2.18459 298.058L3.84135 300.226L4.36917 299.545L2.70507 297.367L4.3765 295.199ZM40.2682 295.199L39.7404 294.508L38.0836 296.676L36.4269 294.508L35.899 295.199L37.5631 297.377L35.899 299.555L36.4269 300.236L38.0836 298.068L39.7404 300.236L40.2682 299.555L38.6041 297.377L40.2682 295.199ZM76.1599 295.199L75.6321 294.508L73.9753 296.676L72.3186 294.508L71.7907 295.199L73.4548 297.377L71.7907 299.555L72.3186 300.236L73.9753 298.068L75.6321 300.236L76.1599 299.555L74.4958 297.377L76.1599 295.199ZM112.052 295.199L111.524 294.508L109.867 296.676L108.21 294.508L107.682 295.199L109.347 297.377L107.682 299.555L108.21 300.236L109.867 298.068L111.524 300.236L112.052 299.555L110.388 297.377L112.052 295.199ZM147.943 295.199L147.416 294.508L145.759 296.676L144.102 294.508L143.574 295.199L145.238 297.377L143.574 299.555L144.102 300.236L145.759 298.068L147.416 300.236L147.943 299.555L146.279 297.377L147.943 295.199ZM183.835 295.199L183.307 294.508L181.65 296.676L179.994 294.508L179.466 295.199L181.13 297.377L179.466 299.555L179.994 300.236L181.65 298.068L183.307 300.236L183.835 299.555L182.171 297.377L183.835 295.199ZM219.727 295.199L219.199 294.508L217.542 296.676L215.885 294.508L215.358 295.199L217.022 297.377L215.358 299.555L215.885 300.236L217.542 298.068L219.199 300.236L219.727 299.555L218.063 297.377L219.727 295.199ZM255.626 295.199L255.098 294.508L253.441 296.676L251.784 294.508L251.257 295.199L252.921 297.377L251.257 299.555L251.784 300.236L253.441 298.068L255.098 300.236L255.626 299.555L253.962 297.377L255.626 295.199ZM291.518 295.199L290.99 294.508L289.333 296.676L287.676 294.508L287.148 295.199L288.812 297.377L287.148 299.555L287.676 300.236L289.333 298.068L290.99 300.236L291.518 299.555L289.853 297.377L291.518 295.199ZM327.409 295.199L326.881 294.508L325.225 296.676L323.568 294.508L323.04 295.199L324.704 297.377L323.04 299.555L323.568 300.236L325.225 298.068L326.881 300.236L327.409 299.555L325.745 297.377L327.409 295.199ZM361.109 298.058L362.766 300.226L363.294 299.545L361.629 297.367L363.294 295.189L362.766 294.498L361.109 296.667L359.452 294.498L358.924 295.189L360.589 297.367L358.924 299.545L359.452 300.226L361.109 298.058ZM0.527819 347.241L2.18459 345.073L3.84135 347.241L4.36917 346.551L2.70507 344.373L4.36917 342.194L3.84135 341.504L2.18459 343.672L0.527819 341.504L0 342.204L1.6641 344.382L0 346.551L0.527819 347.241ZM36.4195 347.241L38.0763 345.073L39.7331 347.241L40.2609 346.551L38.5968 344.373L40.2609 342.194L39.7331 341.504L38.0763 343.672L36.4195 341.504L35.8917 342.194L37.5558 344.373L35.8917 346.551L36.4195 347.241ZM72.3112 347.241L73.968 345.073L75.6248 347.241L76.1526 346.551L74.4885 344.373L76.1526 342.194L75.6248 341.504L73.968 343.672L72.3112 341.504L71.7834 342.194L73.4475 344.373L71.7834 346.551L72.3112 347.241ZM108.203 347.241L109.86 345.073L111.516 347.241L112.044 346.551L110.38 344.373L112.044 342.194L111.516 341.504L109.86 343.672L108.203 341.504L107.675 342.194L109.339 344.373L107.675 346.551L108.203 347.241ZM144.095 347.241L145.751 345.073L147.408 347.241L147.936 346.551L146.272 344.373L147.936 342.194L147.408 341.504L145.751 343.672L144.095 341.504L143.567 342.194L145.231 344.373L143.567 346.551L144.095 347.241ZM179.986 347.241L181.643 345.073L183.3 347.241L183.828 346.551L182.164 344.373L183.828 342.194L183.3 341.504L181.643 343.672L179.986 341.504L179.459 342.194L181.123 344.373L179.459 346.551L179.986 347.241ZM215.885 347.241L217.542 345.073L219.199 347.241L219.727 346.551L218.063 344.373L219.727 342.194L219.199 341.504L217.542 343.672L215.885 341.504L215.358 342.194L217.022 344.373L215.358 346.551L215.885 347.241ZM251.777 347.241L253.434 345.073L255.091 347.241L255.618 346.551L253.954 344.373L255.618 342.194L255.091 341.504L253.434 343.672L251.777 341.504L251.249 342.194L252.913 344.373L251.249 346.551L251.777 347.241ZM287.669 347.241L289.326 345.073L290.982 347.241L291.51 346.551L289.846 344.373L291.51 342.194L290.982 341.504L289.326 343.672L287.669 341.504L287.141 342.194L288.805 344.373L287.141 346.551L287.669 347.241ZM323.561 347.241L325.217 345.073L326.874 347.241L327.402 346.551L325.738 344.373L327.402 342.194L326.874 341.504L325.217 343.672L323.561 341.504L323.033 342.194L324.697 344.373L323.033 346.551L323.561 347.241ZM362.773 341.513L361.116 343.682L359.46 341.513L358.932 342.204L360.596 344.382L358.932 346.56L359.46 347.251L361.116 345.083L362.773 347.251L363.301 346.56L361.637 344.382L363.301 342.204L362.773 341.513ZM0.527819 394.247L2.18459 392.078L3.84135 394.247L4.36917 393.556L2.70507 391.378L4.36917 389.2L3.84135 388.509L2.18459 390.677L0.527819 388.509L0 389.209L1.6641 391.387L0 393.556L0.527819 394.247ZM36.4195 394.247L38.0763 392.078L39.7331 394.247L40.2609 393.556L38.5968 391.378L40.2609 389.2L39.7331 388.509L38.0763 390.677L36.4195 388.509L35.8917 389.2L37.5558 391.378L35.8917 393.556L36.4195 394.247ZM72.3112 394.247L73.968 392.078L75.6248 394.247L76.1526 393.556L74.4885 391.378L76.1526 389.2L75.6248 388.509L73.968 390.677L72.3112 388.509L71.7834 389.2L73.4475 391.378L71.7834 393.556L72.3112 394.247ZM108.203 394.247L109.86 392.078L111.516 394.247L112.044 393.556L110.38 391.378L112.044 389.2L111.516 388.509L109.86 390.677L108.203 388.509L107.675 389.2L109.339 391.378L107.675 393.556L108.203 394.247ZM144.095 394.247L145.751 392.078L147.408 394.247L147.936 393.556L146.272 391.378L147.936 389.2L147.408 388.509L145.751 390.677L144.095 388.509L143.567 389.2L145.231 391.378L143.567 393.556L144.095 394.247ZM179.986 394.247L181.643 392.078L183.3 394.247L183.828 393.556L182.164 391.378L183.828 389.2L183.3 388.509L181.643 390.677L179.986 388.509L179.459 389.2L181.123 391.378L179.459 393.556L179.986 394.247ZM215.885 394.247L217.542 392.078L219.199 394.247L219.727 393.556L218.063 391.378L219.727 389.2L219.199 388.509L217.542 390.677L215.885 388.509L215.358 389.2L217.022 391.378L215.358 393.556L215.885 394.247ZM251.777 394.247L253.434 392.078L255.091 394.247L255.618 393.556L253.954 391.378L255.618 389.2L255.091 388.509L253.434 390.677L251.777 388.509L251.249 389.2L252.913 391.378L251.249 393.556L251.777 394.247ZM287.669 394.247L289.326 392.078L290.982 394.247L291.51 393.556L289.846 391.378L291.51 389.2L290.982 388.509L289.326 390.677L287.669 388.509L287.141 389.2L288.805 391.378L287.141 393.556L287.669 394.247ZM323.561 394.247L325.217 392.078L326.874 394.247L327.402 393.556L325.738 391.378L327.402 389.2L326.874 388.509L325.217 390.677L323.561 388.509L323.033 389.2L324.697 391.378L323.033 393.556L323.561 394.247ZM362.773 388.518L361.116 390.687L359.46 388.518L358.932 389.209L360.596 391.387L358.932 393.565L359.46 394.256L361.116 392.088L362.773 394.256L363.301 393.565L361.637 391.387L363.301 389.209L362.773 388.518ZM0.527819 441.252L2.18459 439.083L3.84135 441.252L4.36917 440.561L2.7124 438.383L4.3765 436.205L3.84868 435.514L2.19192 437.683L0.53515 435.514L0 436.215L1.6641 438.393L0 440.561L0.527819 441.252ZM36.4195 441.252L38.0763 439.083L39.7331 441.252L40.2609 440.561L38.5968 438.383L40.2609 436.205L39.7331 435.514L38.0763 437.683L36.4195 435.514L35.8917 436.205L37.5558 438.383L35.8917 440.561L36.4195 441.252ZM72.3112 441.252L73.968 439.083L75.6248 441.252L76.1526 440.561L74.4885 438.383L76.1526 436.205L75.6248 435.514L73.968 437.683L72.3112 435.514L71.7834 436.205L73.4475 438.383L71.7834 440.561L72.3112 441.252ZM108.203 441.252L109.86 439.083L111.516 441.252L112.044 440.561L110.38 438.383L112.044 436.205L111.516 435.514L109.86 437.683L108.203 435.514L107.675 436.205L109.339 438.383L107.675 440.561L108.203 441.252ZM144.095 441.252L145.751 439.083L147.408 441.252L147.936 440.561L146.272 438.383L147.936 436.205L147.408 435.514L145.751 437.683L144.095 435.514L143.567 436.205L145.231 438.383L143.567 440.561L144.095 441.252ZM179.986 441.252L181.643 439.083L183.3 441.252L183.828 440.561L182.164 438.383L183.828 436.205L183.3 435.514L181.643 437.683L179.986 435.514L179.459 436.205L181.123 438.383L179.459 440.561L179.986 441.252ZM215.885 441.252L217.542 439.083L219.199 441.252L219.727 440.561L218.063 438.383L219.727 436.205L219.199 435.514L217.542 437.683L215.885 435.514L215.358 436.205L217.022 438.383L215.358 440.561L215.885 441.252ZM251.777 441.252L253.434 439.083L255.091 441.252L255.618 440.561L253.954 438.383L255.618 436.205L255.091 435.514L253.434 437.683L251.777 435.514L251.249 436.205L252.913 438.383L251.249 440.561L251.777 441.252ZM287.669 441.252L289.326 439.083L290.982 441.252L291.51 440.561L289.846 438.383L291.51 436.205L290.982 435.514L289.326 437.683L287.669 435.514L287.141 436.205L288.805 438.383L287.141 440.561L287.669 441.252ZM323.561 441.252L325.217 439.083L326.874 441.252L327.402 440.561L325.738 438.383L327.402 436.205L326.874 435.514L325.217 437.683L323.561 435.514L323.033 436.205L324.697 438.383L323.033 440.561L323.561 441.252ZM362.773 435.524L361.116 437.692L359.46 435.524L358.932 436.215L360.596 438.393L358.932 440.571L359.46 441.261L361.116 439.093L362.773 441.261L363.301 440.571L361.637 438.393L363.301 436.215L362.773 435.524ZM4.3765 483.22L3.84868 482.529L2.19192 484.697L0.53515 482.529L0 483.22L1.6641 485.398L0 487.566L0.527819 488.248L2.18459 486.079L3.84135 488.248L4.36917 487.566L2.7124 485.398L4.3765 483.22ZM40.2682 483.22L39.7404 482.529L38.0836 484.697L36.4269 482.529L35.899 483.22L37.5631 485.398L35.899 487.576L36.4269 488.257L38.0836 486.089L39.7404 488.257L40.2682 487.576L38.6041 485.398L40.2682 483.22ZM76.1599 483.22L75.6321 482.529L73.9753 484.697L72.3186 482.529L71.7907 483.22L73.4548 485.398L71.7907 487.576L72.3186 488.257L73.9753 486.089L75.6321 488.257L76.1599 487.576L74.4958 485.398L76.1599 483.22ZM112.052 483.22L111.524 482.529L109.867 484.697L108.21 482.529L107.682 483.22L109.347 485.398L107.682 487.576L108.21 488.257L109.867 486.089L111.524 488.257L112.052 487.576L110.388 485.398L112.052 483.22ZM147.943 483.22L147.416 482.529L145.759 484.697L144.102 482.529L143.574 483.22L145.238 485.398L143.574 487.576L144.102 488.257L145.759 486.089L147.416 488.257L147.943 487.576L146.279 485.398L147.943 483.22ZM183.835 483.22L183.307 482.529L181.65 484.697L179.994 482.529L179.466 483.22L181.13 485.398L179.466 487.576L179.994 488.257L181.65 486.089L183.307 488.257L183.835 487.576L182.171 485.398L183.835 483.22ZM219.727 483.22L219.199 482.529L217.542 484.697L215.885 482.529L215.358 483.22L217.022 485.398L215.358 487.576L215.885 488.257L217.542 486.089L219.199 488.257L219.727 487.576L218.063 485.398L219.727 483.22ZM255.626 483.22L255.098 482.529L253.441 484.697L251.784 482.529L251.257 483.22L252.921 485.398L251.257 487.576L251.784 488.257L253.441 486.089L255.098 488.257L255.626 487.576L253.962 485.398L255.626 483.22ZM291.518 483.22L290.99 482.529L289.333 484.697L287.676 482.529L287.148 483.22L288.812 485.398L287.148 487.576L287.676 488.257L289.333 486.089L290.99 488.257L291.518 487.576L289.853 485.398L291.518 483.22ZM327.409 483.22L326.881 482.529L325.225 484.697L323.568 482.529L323.04 483.22L324.704 485.398L323.04 487.576L323.568 488.257L325.225 486.089L326.881 488.257L327.409 487.576L325.745 485.398L327.409 483.22ZM363.301 483.22L362.773 482.529L361.116 484.697L359.46 482.529L358.932 483.22L360.596 485.398L358.932 487.576L359.46 488.257L361.116 486.089L362.773 488.257L363.301 487.576L361.637 485.398L363.301 483.22ZM3.84868 529.534L2.19192 531.703L0.53515 529.534L0 530.225L1.6641 532.403L0 534.572L0.527819 535.262L2.18459 533.094L3.84135 535.262L4.36917 534.572L2.70507 532.394L4.36917 530.216L3.84868 529.534ZM39.7404 529.534L38.0836 531.703L36.4269 529.534L35.899 530.225L37.5631 532.403L35.899 534.581L36.4269 535.272L38.0836 533.104L39.7404 535.272L40.2682 534.581L38.6041 532.403L40.2682 530.225L39.7404 529.534ZM75.6321 529.534L73.9753 531.703L72.3186 529.534L71.7907 530.225L73.4548 532.403L71.7907 534.581L72.3186 535.272L73.9753 533.104L75.6321 535.272L76.1599 534.581L74.4958 532.403L76.1599 530.225L75.6321 529.534ZM111.524 529.534L109.867 531.703L108.21 529.534L107.682 530.225L109.347 532.403L107.682 534.581L108.21 535.272L109.867 533.104L111.524 535.272L112.052 534.581L110.388 532.403L112.052 530.225L111.524 529.534ZM147.416 529.534L145.759 531.703L144.102 529.534L143.574 530.225L145.238 532.403L143.574 534.581L144.102 535.272L145.759 533.104L147.416 535.272L147.943 534.581L146.279 532.403L147.943 530.225L147.416 529.534ZM183.307 529.534L181.65 531.703L179.994 529.534L179.466 530.225L181.13 532.403L179.466 534.581L179.994 535.272L181.65 533.104L183.307 535.272L183.835 534.581L182.171 532.403L183.835 530.225L183.307 529.534ZM219.206 529.534L217.55 531.703L215.893 529.534L215.365 530.225L217.029 532.403L215.365 534.581L215.893 535.272L217.55 533.104L219.206 535.272L219.734 534.581L218.07 532.403L219.734 530.225L219.206 529.534ZM255.098 529.534L253.441 531.703L251.784 529.534L251.257 530.225L252.921 532.403L251.257 534.581L251.784 535.272L253.441 533.104L255.098 535.272L255.626 534.581L253.962 532.403L255.626 530.225L255.098 529.534ZM290.99 529.534L289.333 531.703L287.676 529.534L287.148 530.225L288.812 532.403L287.148 534.581L287.676 535.272L289.333 533.104L290.99 535.272L291.518 534.581L289.853 532.403L291.518 530.225L290.99 529.534ZM326.881 529.534L325.225 531.703L323.568 529.534L323.04 530.225L324.704 532.403L323.04 534.581L323.568 535.272L325.225 533.104L326.881 535.272L327.409 534.581L325.745 532.403L327.409 530.225L326.881 529.534ZM362.773 529.534L361.116 531.703L359.46 529.534L358.932 530.225L360.596 532.403L358.932 534.581L359.46 535.272L361.116 533.104L362.773 535.272L363.301 534.581L361.637 532.403L363.301 530.225L362.773 529.534Z" fill="url(#paint0_linear_1_2)"/>
<path d="M0.527819 441.319L2.18459 439.151L3.84135 441.319L4.36917 440.638L2.7124 438.46L4.3765 436.282L3.84868 435.601L2.18459 437.769L0.527819 435.601L0 436.282L1.6641 438.46L0 440.638L0.527819 441.319ZM36.4195 441.319L38.0763 439.151L39.7331 441.319L40.2609 440.638L38.5968 438.46L40.2609 436.282L39.7404 435.601L38.0836 437.769L36.4195 435.601L35.8917 436.282L37.5558 438.46L35.8917 440.638L36.4195 441.319ZM72.3112 441.319L73.968 439.151L75.6248 441.319L76.1526 440.638L74.4885 438.46L76.1526 436.282L75.6321 435.601L73.9753 437.769L72.3112 435.601L71.7834 436.282L73.4475 438.46L71.7834 440.638L72.3112 441.319ZM108.203 441.319L109.86 439.151L111.516 441.319L112.044 440.638L110.38 438.46L112.044 436.282L111.524 435.601L109.867 437.769L108.203 435.601L107.675 436.282L109.339 438.46L107.675 440.638L108.203 441.319ZM144.095 441.319L145.751 439.151L147.408 441.319L147.936 440.638L146.272 438.46L147.936 436.282L147.416 435.601L145.759 437.769L144.095 435.601L143.567 436.282L145.231 438.46L143.567 440.638L144.095 441.319ZM179.994 441.319L181.65 439.151L183.307 441.319L183.835 440.638L182.171 438.46L183.835 436.282L183.307 435.601L181.65 437.769L179.994 435.601L179.466 436.282L181.13 438.46L179.466 440.638L179.994 441.319ZM215.885 441.319L217.542 439.151L219.199 441.319L219.727 440.638L218.063 438.46L219.727 436.282L219.199 435.601L217.542 437.769L215.885 435.601L215.358 436.282L217.022 438.46L215.358 440.638L215.885 441.319ZM251.777 441.319L253.434 439.151L255.091 441.319L255.618 440.638L253.954 438.46L255.618 436.282L255.098 435.601L253.441 437.769L251.777 435.601L251.249 436.282L252.913 438.46L251.249 440.638L251.777 441.319ZM287.669 441.319L289.326 439.151L290.982 441.319L291.51 440.638L289.846 438.46L291.51 436.282L290.99 435.601L289.333 437.769L287.669 435.601L287.141 436.282L288.805 438.46L287.141 440.638L287.669 441.319ZM323.561 441.319L325.217 439.151L326.874 441.319L327.402 440.638L325.738 438.46L327.402 436.282L326.881 435.601L325.225 437.769L323.561 435.601L323.033 436.282L324.697 438.46L323.033 440.638L323.561 441.319ZM359.452 441.319L361.109 439.151L362.766 441.319L363.294 440.638L361.629 438.46L363.294 436.282L362.773 435.601L361.116 437.769L359.452 435.601L358.924 436.282L360.589 438.46L358.924 440.638L359.452 441.319ZM3.84868 482.606L2.19192 484.774L0.53515 482.606L0 483.297L1.6641 485.475L0 487.643L0.527819 488.334L2.18459 486.166L3.84135 488.334L4.36917 487.643L2.7124 485.465L4.3765 483.287L3.84868 482.606ZM39.7404 482.606L38.0836 484.774L36.4269 482.606L35.899 483.297L37.5631 485.475L35.899 487.653L36.4269 488.344L38.0836 486.175L39.7404 488.344L40.2682 487.653L38.6041 485.475L40.2682 483.297L39.7404 482.606ZM75.6321 482.606L73.9753 484.774L72.3186 482.606L71.7907 483.297L73.4548 485.475L71.7907 487.653L72.3186 488.344L73.9753 486.175L75.6321 488.344L76.1599 487.653L74.4958 485.475L76.1599 483.297L75.6321 482.606ZM111.524 482.606L109.867 484.774L108.21 482.606L107.682 483.297L109.347 485.475L107.682 487.653L108.21 488.344L109.867 486.175L111.524 488.344L112.052 487.653L110.388 485.475L112.052 483.297L111.524 482.606ZM147.416 482.606L145.759 484.774L144.102 482.606L143.574 483.297L145.238 485.475L143.574 487.653L144.102 488.344L145.759 486.175L147.416 488.344L147.943 487.653L146.279 485.475L147.943 483.297L147.416 482.606ZM183.307 482.606L181.65 484.774L179.994 482.606L179.466 483.297L181.13 485.475L179.466 487.653L179.994 488.344L181.65 486.175L183.307 488.344L183.835 487.653L182.171 485.475L183.835 483.297L183.307 482.606ZM219.206 482.606L217.55 484.774L215.893 482.606L215.365 483.297L217.029 485.475L215.365 487.653L215.893 488.344L217.55 486.175L219.206 488.344L219.734 487.653L218.07 485.475L219.734 483.297L219.206 482.606ZM255.098 482.606L253.441 484.774L251.784 482.606L251.257 483.297L252.921 485.475L251.257 487.653L251.784 488.344L253.441 486.175L255.098 488.344L255.626 487.653L253.962 485.475L255.626 483.297L255.098 482.606ZM290.99 482.606L289.333 484.774L287.676 482.606L287.148 483.297L288.812 485.475L287.148 487.653L287.676 488.344L289.333 486.175L290.99 488.344L291.518 487.653L289.853 485.475L291.518 483.297L290.99 482.606ZM326.881 482.606L325.225 484.774L323.568 482.606L323.04 483.297L324.704 485.475L323.04 487.653L323.568 488.344L325.225 486.175L326.881 488.344L327.409 487.653L325.745 485.475L327.409 483.297L326.881 482.606ZM362.773 482.606L361.116 484.774L359.46 482.606L358.932 483.297L360.596 485.475L358.932 487.653L359.46 488.344L361.116 486.175L362.773 488.344L363.301 487.653L361.637 485.475L363.301 483.297L362.773 482.606ZM0.527819 535.33L2.18459 533.161L3.84135 535.33L4.36917 534.648L2.70507 532.47L4.36917 530.292L3.84135 529.611L2.18459 531.78L0.527819 529.611L0 530.302L1.6641 532.48L0 534.648L0.527819 535.33ZM36.4195 535.33L38.0763 533.161L39.7331 535.33L40.2609 534.648L38.5968 532.47L40.2609 530.292L39.7331 529.611L38.0763 531.78L36.4195 529.611L35.8917 530.292L37.5558 532.47L35.8917 534.648L36.4195 535.33ZM72.3112 535.33L73.968 533.161L75.6248 535.33L76.1526 534.648L74.4885 532.47L76.1526 530.292L75.6248 529.611L73.968 531.78L72.3112 529.611L71.7834 530.292L73.4475 532.47L71.7834 534.648L72.3112 535.33ZM108.203 535.33L109.86 533.161L111.516 535.33L112.044 534.648L110.38 532.47L112.044 530.292L111.516 529.611L109.86 531.78L108.203 529.611L107.675 530.292L109.339 532.47L107.675 534.648L108.203 535.33ZM144.095 535.33L145.751 533.161L147.408 535.33L147.936 534.648L146.272 532.47L147.936 530.292L147.408 529.611L145.751 531.78L144.095 529.611L143.567 530.292L145.231 532.47L143.567 534.648L144.095 535.33ZM179.994 535.33L181.65 533.161L183.307 535.33L183.835 534.648L182.171 532.47L183.835 530.292L183.307 529.611L181.65 531.78L179.994 529.611L179.466 530.292L181.13 532.47L179.466 534.648L179.994 535.33ZM215.885 535.33L217.542 533.161L219.199 535.33L219.727 534.648L218.063 532.47L219.727 530.292L219.199 529.611L217.542 531.78L215.885 529.611L215.358 530.292L217.022 532.47L215.358 534.648L215.885 535.33ZM251.777 535.33L253.434 533.161L255.091 535.33L255.618 534.648L253.954 532.47L255.618 530.292L255.091 529.611L253.434 531.78L251.777 529.611L251.249 530.292L252.913 532.47L251.249 534.648L251.777 535.33ZM287.669 535.33L289.326 533.161L290.982 535.33L291.51 534.648L289.846 532.47L291.51 530.292L290.982 529.611L289.326 531.78L287.669 529.611L287.141 530.292L288.805 532.47L287.141 534.648L287.669 535.33ZM323.561 535.33L325.217 533.161L326.874 535.33L327.402 534.648L325.738 532.47L327.402 530.292L326.874 529.611L325.217 531.78L323.561 529.611L323.033 530.292L324.697 532.47L323.033 534.648L323.561 535.33ZM359.452 535.33L361.109 533.161L362.766 535.33L363.294 534.648L361.629 532.47L363.294 530.292L362.766 529.611L361.109 531.78L359.452 529.611L358.924 530.292L360.589 532.47L358.924 534.648L359.452 535.33ZM3.84868 576.616L2.19192 578.785L0.53515 576.616L0 577.307L1.6641 579.485L0 581.654L0.527819 582.344L2.18459 580.176L3.84135 582.344L4.36917 581.654L2.70507 579.476L4.36917 577.298L3.84868 576.616ZM39.7404 576.616L38.0836 578.785L36.4269 576.616L35.899 577.307L37.5631 579.485L35.899 581.663L36.4269 582.354L38.0836 580.186L39.7404 582.354L40.2682 581.663L38.6041 579.485L40.2682 577.307L39.7404 576.616ZM75.6321 576.616L73.9753 578.785L72.3186 576.616L71.7907 577.307L73.4548 579.485L71.7907 581.663L72.3186 582.354L73.9753 580.186L75.6321 582.354L76.1599 581.663L74.4958 579.485L76.1599 577.307L75.6321 576.616ZM111.524 576.616L109.867 578.785L108.21 576.616L107.682 577.307L109.347 579.485L107.682 581.663L108.21 582.354L109.867 580.186L111.524 582.354L112.052 581.663L110.388 579.485L112.052 577.307L111.524 576.616ZM147.416 576.616L145.759 578.785L144.102 576.616L143.574 577.307L145.238 579.485L143.574 581.663L144.102 582.354L145.759 580.186L147.416 582.354L147.943 581.663L146.279 579.485L147.943 577.307L147.416 576.616ZM183.307 576.616L181.65 578.785L179.994 576.616L179.466 577.307L181.13 579.485L179.466 581.663L179.994 582.354L181.65 580.186L183.307 582.354L183.835 581.663L182.171 579.485L183.835 577.307L183.307 576.616ZM219.206 576.616L217.55 578.785L215.893 576.616L215.365 577.307L217.029 579.485L215.365 581.663L215.893 582.354L217.55 580.186L219.206 582.354L219.734 581.663L218.07 579.485L219.734 577.307L219.206 576.616ZM255.098 576.616L253.441 578.785L251.784 576.616L251.257 577.307L252.921 579.485L251.257 581.663L251.784 582.354L253.441 580.186L255.098 582.354L255.626 581.663L253.962 579.485L255.626 577.307L255.098 576.616ZM290.99 576.616L289.333 578.785L287.676 576.616L287.148 577.307L288.812 579.485L287.148 581.663L287.676 582.354L289.333 580.186L290.99 582.354L291.518 581.663L289.853 579.485L291.518 577.307L290.99 576.616ZM326.881 576.616L325.225 578.785L323.568 576.616L323.04 577.307L324.704 579.485L323.04 581.663L323.568 582.354L325.225 580.186L326.881 582.354L327.409 581.663L325.745 579.485L327.409 577.307L326.881 576.616ZM362.773 576.616L361.116 578.785L359.46 576.616L358.932 577.307L360.596 579.485L358.932 581.663L359.46 582.354L361.116 580.186L362.773 582.354L363.301 581.663L361.637 579.485L363.301 577.307L362.773 576.616ZM0.527819 629.34L2.18459 627.172L3.84135 629.34L4.36917 628.659L2.70507 626.481L4.36917 624.303L3.84135 623.622L2.18459 625.79L0.527819 623.622L0 624.312L1.6641 626.491L0 628.659L0.527819 629.34ZM36.4195 629.34L38.0763 627.172L39.7331 629.34L40.2609 628.659L38.5968 626.481L40.2609 624.303L39.7331 623.622L38.0763 625.79L36.4195 623.622L35.8917 624.303L37.5558 626.481L35.8917 628.659L36.4195 629.34ZM72.3112 629.34L73.968 627.172L75.6248 629.34L76.1526 628.659L74.4885 626.481L76.1526 624.303L75.6248 623.622L73.968 625.79L72.3112 623.622L71.7834 624.303L73.4475 626.481L71.7834 628.659L72.3112 629.34ZM108.203 629.34L109.86 627.172L111.516 629.34L112.044 628.659L110.38 626.481L112.044 624.303L111.516 623.622L109.86 625.79L108.203 623.622L107.675 624.303L109.339 626.481L107.675 628.659L108.203 629.34ZM144.095 629.34L145.751 627.172L147.408 629.34L147.936 628.659L146.272 626.481L147.936 624.303L147.408 623.622L145.751 625.79L144.095 623.622L143.567 624.303L145.231 626.481L143.567 628.659L144.095 629.34ZM179.994 629.34L181.65 627.172L183.307 629.34L183.835 628.659L182.171 626.481L183.835 624.303L183.307 623.622L181.65 625.79L179.994 623.622L179.466 624.303L181.13 626.481L179.466 628.659L179.994 629.34ZM215.885 629.34L217.542 627.172L219.199 629.34L219.727 628.659L218.063 626.481L219.727 624.303L219.199 623.622L217.542 625.79L215.885 623.622L215.358 624.303L217.022 626.481L215.358 628.659L215.885 629.34ZM251.777 629.34L253.434 627.172L255.091 629.34L255.618 628.659L253.954 626.481L255.618 624.303L255.091 623.622L253.434 625.79L251.777 623.622L251.249 624.303L252.913 626.481L251.249 628.659L251.777 629.34ZM287.669 629.34L289.326 627.172L290.982 629.34L291.51 628.659L289.846 626.481L291.51 624.303L290.982 623.622L289.326 625.79L287.669 623.622L287.141 624.303L288.805 626.481L287.141 628.659L287.669 629.34ZM323.561 629.34L325.217 627.172L326.874 629.34L327.402 628.659L325.738 626.481L327.402 624.303L326.874 623.622L325.217 625.79L323.561 623.622L323.033 624.303L324.697 626.481L323.033 628.659L323.561 629.34ZM359.452 629.34L361.109 627.172L362.766 629.34L363.294 628.659L361.629 626.481L363.294 624.303L362.766 623.622L361.109 625.79L359.452 623.622L358.924 624.303L360.589 626.481L358.924 628.659L359.452 629.34ZM4.3765 671.318L3.84868 670.627L2.19192 672.795L0.53515 670.627L0 671.318L1.6641 673.496L0 675.664L0.527819 676.345L2.18459 674.177L3.84135 676.345L4.36917 675.664L2.70507 673.486L4.3765 671.318ZM40.2682 671.318L39.7404 670.627L38.0836 672.795L36.4269 670.627L35.899 671.318L37.5631 673.496L35.899 675.674L36.4269 676.355L38.0836 674.187L39.7404 676.355L40.2682 675.674L38.6041 673.496L40.2682 671.318ZM76.1599 671.318L75.6321 670.627L73.9753 672.795L72.3186 670.627L71.7907 671.318L73.4548 673.496L71.7907 675.674L72.3186 676.355L73.9753 674.187L75.6321 676.355L76.1599 675.674L74.4958 673.496L76.1599 671.318ZM112.052 671.318L111.524 670.627L109.867 672.795L108.21 670.627L107.682 671.318L109.347 673.496L107.682 675.674L108.21 676.355L109.867 674.187L111.524 676.355L112.052 675.674L110.388 673.496L112.052 671.318ZM147.943 671.318L147.416 670.627L145.759 672.795L144.102 670.627L143.574 671.318L145.238 673.496L143.574 675.674L144.102 676.355L145.759 674.187L147.416 676.355L147.943 675.674L146.279 673.496L147.943 671.318ZM183.835 671.318L183.307 670.627L181.65 672.795L179.994 670.627L179.466 671.318L181.13 673.496L179.466 675.674L179.994 676.355L181.65 674.187L183.307 676.355L183.835 675.674L182.171 673.496L183.835 671.318ZM219.727 671.318L219.199 670.627L217.542 672.795L215.885 670.627L215.358 671.318L217.022 673.496L215.358 675.674L215.885 676.355L217.542 674.187L219.199 676.355L219.727 675.674L218.063 673.496L219.727 671.318ZM255.626 671.318L255.098 670.627L253.441 672.795L251.784 670.627L251.257 671.318L252.921 673.496L251.257 675.674L251.784 676.355L253.441 674.187L255.098 676.355L255.626 675.674L253.962 673.496L255.626 671.318ZM291.518 671.318L290.99 670.627L289.333 672.795L287.676 670.627L287.148 671.318L288.812 673.496L287.148 675.674L287.676 676.355L289.333 674.187L290.99 676.355L291.518 675.674L289.853 673.496L291.518 671.318ZM327.409 671.318L326.881 670.627L325.225 672.795L323.568 670.627L323.04 671.318L324.704 673.496L323.04 675.674L323.568 676.355L325.225 674.187L326.881 676.355L327.409 675.674L325.745 673.496L327.409 671.318ZM361.109 674.177L362.766 676.345L363.294 675.664L361.629 673.486L363.294 671.308L362.766 670.617L361.109 672.786L359.452 670.617L358.924 671.308L360.589 673.486L358.924 675.664L359.452 676.345L361.109 674.177ZM0.527819 723.36L2.18459 721.192L3.84135 723.36L4.36917 722.669L2.70507 720.491L4.36917 718.313L3.84135 717.623L2.18459 719.791L0.527819 717.623L0 718.323L1.6641 720.501L0 722.669L0.527819 723.36ZM36.4195 723.36L38.0763 721.192L39.7331 723.36L40.2609 722.669L38.5968 720.491L40.2609 718.313L39.7331 717.623L38.0763 719.791L36.4195 717.623L35.8917 718.313L37.5558 720.491L35.8917 722.669L36.4195 723.36ZM72.3112 723.36L73.968 721.192L75.6248 723.36L76.1526 722.669L74.4885 720.491L76.1526 718.313L75.6248 717.623L73.968 719.791L72.3112 717.623L71.7834 718.313L73.4475 720.491L71.7834 722.669L72.3112 723.36ZM108.203 723.36L109.86 721.192L111.516 723.36L112.044 722.669L110.38 720.491L112.044 718.313L111.516 717.623L109.86 719.791L108.203 717.623L107.675 718.313L109.339 720.491L107.675 722.669L108.203 723.36ZM144.095 723.36L145.751 721.192L147.408 723.36L147.936 722.669L146.272 720.491L147.936 718.313L147.408 717.623L145.751 719.791L144.095 717.623L143.567 718.313L145.231 720.491L143.567 722.669L144.095 723.36ZM179.986 723.36L181.643 721.192L183.3 723.36L183.828 722.669L182.164 720.491L183.828 718.313L183.3 717.623L181.643 719.791L179.986 717.623L179.459 718.313L181.123 720.491L179.459 722.669L179.986 723.36ZM215.885 723.36L217.542 721.192L219.199 723.36L219.727 722.669L218.063 720.491L219.727 718.313L219.199 717.623L217.542 719.791L215.885 717.623L215.358 718.313L217.022 720.491L215.358 722.669L215.885 723.36ZM251.777 723.36L253.434 721.192L255.091 723.36L255.618 722.669L253.954 720.491L255.618 718.313L255.091 717.623L253.434 719.791L251.777 717.623L251.249 718.313L252.913 720.491L251.249 722.669L251.777 723.36ZM287.669 723.36L289.326 721.192L290.982 723.36L291.51 722.669L289.846 720.491L291.51 718.313L290.982 717.623L289.326 719.791L287.669 717.623L287.141 718.313L288.805 720.491L287.141 722.669L287.669 723.36ZM323.561 723.36L325.217 721.192L326.874 723.36L327.402 722.669L325.738 720.491L327.402 718.313L326.874 717.623L325.217 719.791L323.561 717.623L323.033 718.313L324.697 720.491L323.033 722.669L323.561 723.36ZM362.773 717.632L361.116 719.801L359.46 717.632L358.932 718.323L360.596 720.501L358.932 722.679L359.46 723.37L361.116 721.202L362.773 723.37L363.301 722.679L361.637 720.501L363.301 718.323L362.773 717.632ZM0.527819 770.366L2.18459 768.197L3.84135 770.366L4.36917 769.675L2.70507 767.497L4.36917 765.319L3.84135 764.628L2.18459 766.796L0.527819 764.628L0 765.328L1.6641 767.506L0 769.675L0.527819 770.366ZM36.4195 770.366L38.0763 768.197L39.7331 770.366L40.2609 769.675L38.5968 767.497L40.2609 765.319L39.7331 764.628L38.0763 766.796L36.4195 764.628L35.8917 765.319L37.5558 767.497L35.8917 769.675L36.4195 770.366ZM72.3112 770.366L73.968 768.197L75.6248 770.366L76.1526 769.675L74.4885 767.497L76.1526 765.319L75.6248 764.628L73.968 766.796L72.3112 764.628L71.7834 765.319L73.4475 767.497L71.7834 769.675L72.3112 770.366ZM108.203 770.366L109.86 768.197L111.516 770.366L112.044 769.675L110.38 767.497L112.044 765.319L111.516 764.628L109.86 766.796L108.203 764.628L107.675 765.319L109.339 767.497L107.675 769.675L108.203 770.366ZM144.095 770.366L145.751 768.197L147.408 770.366L147.936 769.675L146.272 767.497L147.936 765.319L147.408 764.628L145.751 766.796L144.095 764.628L143.567 765.319L145.231 767.497L143.567 769.675L144.095 770.366ZM179.986 770.366L181.643 768.197L183.3 770.366L183.828 769.675L182.164 767.497L183.828 765.319L183.3 764.628L181.643 766.796L179.986 764.628L179.459 765.319L181.123 767.497L179.459 769.675L179.986 770.366ZM215.885 770.366L217.542 768.197L219.199 770.366L219.727 769.675L218.063 767.497L219.727 765.319L219.199 764.628L217.542 766.796L215.885 764.628L215.358 765.319L217.022 767.497L215.358 769.675L215.885 770.366ZM251.777 770.366L253.434 768.197L255.091 770.366L255.618 769.675L253.954 767.497L255.618 765.319L255.091 764.628L253.434 766.796L251.777 764.628L251.249 765.319L252.913 767.497L251.249 769.675L251.777 770.366ZM287.669 770.366L289.326 768.197L290.982 770.366L291.51 769.675L289.846 767.497L291.51 765.319L290.982 764.628L289.326 766.796L287.669 764.628L287.141 765.319L288.805 767.497L287.141 769.675L287.669 770.366ZM323.561 770.366L325.217 768.197L326.874 770.366L327.402 769.675L325.738 767.497L327.402 765.319L326.874 764.628L325.217 766.796L323.561 764.628L323.033 765.319L324.697 767.497L323.033 769.675L323.561 770.366ZM362.773 764.637L361.116 766.806L359.46 764.637L358.932 765.328L360.596 767.506L358.932 769.684L359.46 770.375L361.116 768.207L362.773 770.375L363.301 769.684L361.637 767.506L363.301 765.328L362.773 764.637ZM0.527819 817.371L2.18459 815.202L3.84135 817.371L4.36917 816.68L2.7124 814.502L4.3765 812.324L3.84868 811.633L2.19192 813.802L0.53515 811.633L0 812.334L1.6641 814.512L0 816.68L0.527819 817.371ZM36.4195 817.371L38.0763 815.202L39.7331 817.371L40.2609 816.68L38.5968 814.502L40.2609 812.324L39.7331 811.633L38.0763 813.802L36.4195 811.633L35.8917 812.324L37.5558 814.502L35.8917 816.68L36.4195 817.371ZM72.3112 817.371L73.968 815.202L75.6248 817.371L76.1526 816.68L74.4885 814.502L76.1526 812.324L75.6248 811.633L73.968 813.802L72.3112 811.633L71.7834 812.324L73.4475 814.502L71.7834 816.68L72.3112 817.371ZM108.203 817.371L109.86 815.202L111.516 817.371L112.044 816.68L110.38 814.502L112.044 812.324L111.516 811.633L109.86 813.802L108.203 811.633L107.675 812.324L109.339 814.502L107.675 816.68L108.203 817.371ZM144.095 817.371L145.751 815.202L147.408 817.371L147.936 816.68L146.272 814.502L147.936 812.324L147.408 811.633L145.751 813.802L144.095 811.633L143.567 812.324L145.231 814.502L143.567 816.68L144.095 817.371ZM179.986 817.371L181.643 815.202L183.3 817.371L183.828 816.68L182.164 814.502L183.828 812.324L183.3 811.633L181.643 813.802L179.986 811.633L179.459 812.324L181.123 814.502L179.459 816.68L179.986 817.371ZM215.885 817.371L217.542 815.202L219.199 817.371L219.727 816.68L218.063 814.502L219.727 812.324L219.199 811.633L217.542 813.802L215.885 811.633L215.358 812.324L217.022 814.502L215.358 816.68L215.885 817.371ZM251.777 817.371L253.434 815.202L255.091 817.371L255.618 816.68L253.954 814.502L255.618 812.324L255.091 811.633L253.434 813.802L251.777 811.633L251.249 812.324L252.913 814.502L251.249 816.68L251.777 817.371ZM287.669 817.371L289.326 815.202L290.982 817.371L291.51 816.68L289.846 814.502L291.51 812.324L290.982 811.633L289.326 813.802L287.669 811.633L287.141 812.324L288.805 814.502L287.141 816.68L287.669 817.371ZM323.561 817.371L325.217 815.202L326.874 817.371L327.402 816.68L325.738 814.502L327.402 812.324L326.874 811.633L325.217 813.802L323.561 811.633L323.033 812.324L324.697 814.502L323.033 816.68L323.561 817.371ZM362.773 811.643L361.116 813.811L359.46 811.643L358.932 812.334L360.596 814.512L358.932 816.69L359.46 817.38L361.116 815.212L362.773 817.38L363.301 816.69L361.637 814.512L363.301 812.334L362.773 811.643ZM4.3765 859.339L3.84868 858.648L2.19192 860.816L0.53515 858.648L0 859.339L1.6641 861.517L0 863.685L0.527819 864.367L2.18459 862.198L3.84135 864.367L4.36917 863.685L2.7124 861.517L4.3765 859.339ZM40.2682 859.339L39.7404 858.648L38.0836 860.816L36.4269 858.648L35.899 859.339L37.5631 861.517L35.899 863.695L36.4269 864.376L38.0836 862.208L39.7404 864.376L40.2682 863.695L38.6041 861.517L40.2682 859.339ZM76.1599 859.339L75.6321 858.648L73.9753 860.816L72.3186 858.648L71.7907 859.339L73.4548 861.517L71.7907 863.695L72.3186 864.376L73.9753 862.208L75.6321 864.376L76.1599 863.695L74.4958 861.517L76.1599 859.339ZM112.052 859.339L111.524 858.648L109.867 860.816L108.21 858.648L107.682 859.339L109.347 861.517L107.682 863.695L108.21 864.376L109.867 862.208L111.524 864.376L112.052 863.695L110.388 861.517L112.052 859.339ZM147.943 859.339L147.416 858.648L145.759 860.816L144.102 858.648L143.574 859.339L145.238 861.517L143.574 863.695L144.102 864.376L145.759 862.208L147.416 864.376L147.943 863.695L146.279 861.517L147.943 859.339ZM183.835 859.339L183.307 858.648L181.65 860.816L179.994 858.648L179.466 859.339L181.13 861.517L179.466 863.695L179.994 864.376L181.65 862.208L183.307 864.376L183.835 863.695L182.171 861.517L183.835 859.339ZM219.727 859.339L219.199 858.648L217.542 860.816L215.885 858.648L215.358 859.339L217.022 861.517L215.358 863.695L215.885 864.376L217.542 862.208L219.199 864.376L219.727 863.695L218.063 861.517L219.727 859.339ZM255.626 859.339L255.098 858.648L253.441 860.816L251.784 858.648L251.257 859.339L252.921 861.517L251.257 863.695L251.784 864.376L253.441 862.208L255.098 864.376L255.626 863.695L253.962 861.517L255.626 859.339ZM291.518 859.339L290.99 858.648L289.333 860.816L287.676 858.648L287.148 859.339L288.812 861.517L287.148 863.695L287.676 864.376L289.333 862.208L290.99 864.376L291.518 863.695L289.853 861.517L291.518 859.339ZM327.409 859.339L326.881 858.648L325.225 860.816L323.568 858.648L323.04 859.339L324.704 861.517L323.04 863.695L323.568 864.376L325.225 862.208L326.881 864.376L327.409 863.695L325.745 861.517L327.409 859.339ZM363.301 859.339L362.773 858.648L361.116 860.816L359.46 858.648L358.932 859.339L360.596 861.517L358.932 863.695L359.46 864.376L361.116 862.208L362.773 864.376L363.301 863.695L361.637 861.517L363.301 859.339ZM3.84868 905.653L2.19192 907.822L0.53515 905.653L0 906.344L1.6641 908.522L0 910.691L0.527819 911.381L2.18459 909.213L3.84135 911.381L4.36917 910.691L2.70507 908.513L4.36917 906.334L3.84868 905.653ZM39.7404 905.653L38.0836 907.822L36.4269 905.653L35.899 906.344L37.5631 908.522L35.899 910.7L36.4269 911.391L38.0836 909.223L39.7404 911.391L40.2682 910.7L38.6041 908.522L40.2682 906.344L39.7404 905.653ZM75.6321 905.653L73.9753 907.822L72.3186 905.653L71.7907 906.344L73.4548 908.522L71.7907 910.7L72.3186 911.391L73.9753 909.223L75.6321 911.391L76.1599 910.7L74.4958 908.522L76.1599 906.344L75.6321 905.653ZM111.524 905.653L109.867 907.822L108.21 905.653L107.682 906.344L109.347 908.522L107.682 910.7L108.21 911.391L109.867 909.223L111.524 911.391L112.052 910.7L110.388 908.522L112.052 906.344L111.524 905.653ZM147.416 905.653L145.759 907.822L144.102 905.653L143.574 906.344L145.238 908.522L143.574 910.7L144.102 911.391L145.759 909.223L147.416 911.391L147.943 910.7L146.279 908.522L147.943 906.344L147.416 905.653ZM183.307 905.653L181.65 907.822L179.994 905.653L179.466 906.344L181.13 908.522L179.466 910.7L179.994 911.391L181.65 909.223L183.307 911.391L183.835 910.7L182.171 908.522L183.835 906.344L183.307 905.653ZM219.206 905.653L217.55 907.822L215.893 905.653L215.365 906.344L217.029 908.522L215.365 910.7L215.893 911.391L217.55 909.223L219.206 911.391L219.734 910.7L218.07 908.522L219.734 906.344L219.206 905.653ZM255.098 905.653L253.441 907.822L251.784 905.653L251.257 906.344L252.921 908.522L251.257 910.7L251.784 911.391L253.441 909.223L255.098 911.391L255.626 910.7L253.962 908.522L255.626 906.344L255.098 905.653ZM290.99 905.653L289.333 907.822L287.676 905.653L287.148 906.344L288.812 908.522L287.148 910.7L287.676 911.391L289.333 909.223L290.99 911.391L291.518 910.7L289.853 908.522L291.518 906.344L290.99 905.653ZM326.881 905.653L325.225 907.822L323.568 905.653L323.04 906.344L324.704 908.522L323.04 910.7L323.568 911.391L325.225 909.223L326.881 911.391L327.409 910.7L325.745 908.522L327.409 906.344L326.881 905.653ZM362.773 905.653L361.116 907.822L359.46 905.653L358.932 906.344L360.596 908.522L358.932 910.7L359.46 911.391L361.116 909.223L362.773 911.391L363.301 910.7L361.637 908.522L363.301 906.344L362.773 905.653Z" fill="url(#paint1_linear_1_2)"/>
<path d="M336.995 94.2522L336.994 94.2529L333.029 98.3361C332.732 98.642 332.733 99.1368 333.032 99.4412C333.33 99.7457 333.813 99.7445 334.11 99.4386L336.772 96.6972L336.772 113.246C336.772 113.678 337.113 114.028 337.534 114.028C337.956 114.028 338.297 113.678 338.297 113.246L338.297 96.6972L340.959 99.4386C341.256 99.7445 341.739 99.7457 342.037 99.4412C342.336 99.1367 342.337 98.6419 342.04 98.3361L338.075 94.2529L338.074 94.2522C337.776 93.9461 337.292 93.9471 336.995 94.2522Z" fill="#F8F8F8"/>
<path opacity="0.9" d="M331.372 214.756L331.372 205.488L342 205.488L342 207.434L333.107 207.434L333.107 212.802L342 212.802L342 214.756L331.372 214.756ZM342.242 199.061C342.242 199.858 342.052 200.579 341.672 201.225C341.291 201.866 340.778 202.369 340.132 202.734C339.481 203.098 338.765 203.281 337.983 203.281C337.207 203.281 336.493 203.098 335.842 202.734C335.191 202.369 334.675 201.866 334.295 201.225C333.915 200.579 333.725 199.855 333.725 199.053C333.725 198.246 333.915 197.519 334.295 196.873C334.675 196.227 335.191 195.721 335.842 195.357C336.493 194.992 337.207 194.81 337.983 194.81C338.765 194.81 339.481 194.992 340.132 195.357C340.784 195.721 341.299 196.229 341.68 196.881C342.055 197.527 342.242 198.253 342.242 199.061ZM340.484 199.045C340.484 198.597 340.377 198.196 340.164 197.842C339.95 197.482 339.653 197.201 339.273 196.998C338.892 196.789 338.463 196.685 337.983 196.685C337.509 196.685 337.082 196.789 336.702 196.998C336.316 197.201 336.017 197.482 335.803 197.842C335.584 198.201 335.475 198.602 335.475 199.045C335.475 199.488 335.584 199.889 335.803 200.249C336.017 200.608 336.316 200.892 336.702 201.1C337.082 201.304 337.509 201.405 337.983 201.405C338.463 201.405 338.892 201.304 339.273 201.1C339.653 200.892 339.95 200.611 340.164 200.256C340.377 199.897 340.484 199.493 340.484 199.045ZM340.421 192.728C339.947 192.368 339.377 192.079 338.71 191.86C338.038 191.642 337.231 191.501 336.288 191.438L333.967 191.274L333.967 185.21L340.421 185.21L340.421 184.421L343.75 184.421L343.75 186.296L342 186.296L342 191.501L343.75 191.501L343.75 193.376L340.421 193.376L340.421 192.728ZM335.553 187.086L335.553 189.594L336.913 189.68C337.705 189.737 338.374 189.862 338.921 190.055C339.468 190.243 339.968 190.498 340.421 190.821L340.421 187.086L335.553 187.086ZM333.967 180.526L335.319 180.526C334.829 180.234 334.443 179.846 334.162 179.362C333.876 178.872 333.732 178.341 333.732 177.768C333.732 177.023 333.923 176.353 334.303 175.759C334.683 175.16 335.199 174.694 335.85 174.36C336.496 174.022 337.207 173.852 337.983 173.852C338.765 173.852 339.481 174.022 340.132 174.36C340.778 174.699 341.291 175.165 341.672 175.759C342.052 176.348 342.242 177.01 342.242 177.744C342.242 178.322 342.104 178.854 341.828 179.338C341.547 179.823 341.172 180.2 340.703 180.471L341.633 180.432L344.743 180.432L344.743 182.323L333.967 182.323L333.967 180.526ZM340.5 178.088C340.5 177.661 340.398 177.267 340.195 176.908C339.986 176.548 339.692 176.262 339.312 176.048C338.932 175.835 338.489 175.728 337.983 175.728C337.494 175.728 337.059 175.835 336.678 176.048C336.298 176.257 336.004 176.543 335.795 176.908C335.582 177.267 335.475 177.663 335.475 178.096C335.475 178.523 335.587 178.919 335.811 179.284C336.03 179.643 336.332 179.93 336.717 180.143C337.103 180.351 337.525 180.456 337.983 180.456C338.463 180.456 338.895 180.349 339.281 180.135C339.661 179.922 339.96 179.635 340.179 179.276C340.393 178.911 340.5 178.515 340.5 178.088ZM342.242 168.066C342.242 168.863 342.052 169.585 341.672 170.231C341.291 170.872 340.778 171.374 340.132 171.739C339.481 172.104 338.765 172.286 337.983 172.286C337.207 172.286 336.493 172.104 335.842 171.739C335.191 171.374 334.675 170.872 334.295 170.231C333.915 169.585 333.725 168.861 333.725 168.059C333.725 167.251 333.915 166.524 334.295 165.878C334.675 165.232 335.191 164.727 335.842 164.362C336.493 163.998 337.207 163.815 337.983 163.815C338.765 163.815 339.481 163.998 340.132 164.362C340.784 164.727 341.299 165.235 341.68 165.886C342.055 166.532 342.242 167.259 342.242 168.066ZM340.484 168.051C340.484 167.603 340.377 167.202 340.164 166.847C339.95 166.488 339.653 166.207 339.273 166.003C338.892 165.795 338.463 165.691 337.983 165.691C337.509 165.691 337.082 165.795 336.702 166.003C336.316 166.207 336.017 166.488 335.803 166.847C335.584 167.207 335.475 167.608 335.475 168.051C335.475 168.494 335.584 168.895 335.803 169.254C336.017 169.614 336.316 169.898 336.702 170.106C337.082 170.309 337.509 170.411 337.983 170.411C338.463 170.411 338.892 170.309 339.273 170.106C339.653 169.898 339.95 169.616 340.164 169.262C340.377 168.903 340.484 168.499 340.484 168.051ZM334.107 157.85C334.107 157.068 334.285 156.378 334.639 155.779C334.993 155.174 335.48 154.708 336.1 154.38C336.715 154.047 337.408 153.88 338.179 153.88C338.892 153.88 339.562 154.062 340.187 154.427C340.807 154.791 341.305 155.297 341.68 155.943C342.055 156.584 342.242 157.297 342.242 158.084C342.242 158.865 342.049 159.577 341.664 160.217C341.278 160.853 340.76 161.353 340.109 161.718C339.452 162.077 338.734 162.257 337.952 162.257L337.249 162.257C335.597 162.257 334.324 161.913 333.428 161.225C332.526 160.532 331.927 159.595 331.63 158.412L331.521 157.951C331.427 157.555 331.346 157.25 331.279 157.037C331.206 156.818 331.115 156.636 331.005 156.49C330.896 156.344 330.763 156.271 330.607 156.271L330.607 154.45C331.159 154.45 331.604 154.614 331.943 154.943C332.276 155.271 332.519 155.646 332.67 156.068C332.821 156.49 332.954 156.98 333.068 157.537L333.154 157.912C333.347 158.636 333.652 159.22 334.068 159.662C334.485 160.1 334.97 160.329 335.522 160.35C335.084 160.079 334.74 159.73 334.49 159.303C334.235 158.871 334.107 158.386 334.107 157.85ZM340.484 158.061C340.484 157.633 340.38 157.245 340.171 156.896C339.958 156.542 339.674 156.263 339.32 156.06C338.965 155.852 338.582 155.747 338.171 155.747C337.765 155.747 337.384 155.852 337.03 156.06C336.676 156.263 336.392 156.542 336.178 156.896C335.965 157.25 335.858 157.639 335.858 158.061C335.858 158.488 335.962 158.878 336.17 159.233C336.379 159.587 336.66 159.866 337.014 160.069C337.369 160.272 337.754 160.374 338.171 160.374C338.582 160.374 338.965 160.272 339.32 160.069C339.674 159.86 339.958 159.582 340.171 159.233C340.38 158.878 340.484 158.488 340.484 158.061ZM333.959 151.751L333.959 149.883L337.077 149.883L337.077 146.257L333.959 146.257L333.959 144.382L342 144.382L342 146.257L338.804 146.257L338.804 149.883L342 149.883L342 151.751L333.959 151.751ZM337.843 134.048C338.02 134.048 338.233 134.061 338.484 134.087L338.484 140.362C338.911 140.299 339.281 140.164 339.593 139.955C339.906 139.742 340.145 139.479 340.312 139.166C340.474 138.848 340.554 138.505 340.554 138.135C340.554 137.666 340.463 137.283 340.281 136.986C340.093 136.684 339.825 136.462 339.476 136.322L339.476 134.259C339.971 134.399 340.429 134.647 340.851 135.001C341.273 135.355 341.612 135.801 341.867 136.337C342.117 136.869 342.242 137.455 342.242 138.096C342.242 138.882 342.052 139.593 341.672 140.229C341.291 140.865 340.776 141.362 340.125 141.722C339.473 142.081 338.76 142.261 337.983 142.261C337.207 142.261 336.493 142.081 335.842 141.722C335.191 141.362 334.675 140.865 334.295 140.229C333.915 139.593 333.725 138.882 333.725 138.096C333.725 137.309 333.912 136.608 334.287 135.994C334.662 135.379 335.165 134.902 335.795 134.564C336.421 134.22 337.103 134.048 337.843 134.048ZM337.022 135.978C336.725 136.004 336.452 136.116 336.202 136.314C335.946 136.512 335.746 136.77 335.6 137.088C335.449 137.4 335.373 137.739 335.373 138.103C335.373 138.609 335.514 139.062 335.795 139.463C336.071 139.859 336.48 140.133 337.022 140.284L337.022 135.978ZM337.843 124.378C338.02 124.378 338.233 124.391 338.484 124.417L338.484 130.692C338.911 130.629 339.281 130.494 339.593 130.286C339.906 130.072 340.145 129.809 340.312 129.496C340.474 129.179 340.554 128.835 340.554 128.465C340.554 127.996 340.463 127.613 340.281 127.316C340.093 127.014 339.825 126.793 339.476 126.652L339.476 124.589C339.971 124.73 340.429 124.977 340.851 125.331C341.273 125.686 341.612 126.131 341.867 126.668C342.117 127.199 342.242 127.785 342.242 128.426C342.242 129.212 342.052 129.924 341.672 130.559C341.291 131.195 340.776 131.692 340.125 132.052C339.473 132.411 338.76 132.591 337.983 132.591C337.207 132.591 336.493 132.411 335.842 132.052C335.191 131.692 334.675 131.195 334.295 130.559C333.915 129.924 333.725 129.212 333.725 128.426C333.725 127.639 333.912 126.938 334.287 126.324C334.662 125.709 335.165 125.232 335.795 124.894C336.421 124.55 337.103 124.378 337.843 124.378ZM337.022 126.308C336.725 126.334 336.452 126.446 336.202 126.644C335.946 126.842 335.746 127.1 335.6 127.418C335.449 127.73 335.373 128.069 335.373 128.434C335.373 128.939 335.514 129.392 335.795 129.793C336.071 130.189 336.48 130.463 337.022 130.614L337.022 126.308Z" fill="#F8F8F8"/>
</g>
<g filter="url(#filter0_dddddd_1_2)">
<path d="M300.452 635.472L300.452 619.918L325.797 601.974L300.452 583.656L300.452 568.289L364.168 568.289L364.168 585.904L328.515 585.904L348.66 599.819L348.66 604.129L328.327 617.809L364.168 617.809L364.168 635.472L300.452 635.472ZM300.452 547.45L300.452 501.443L316.053 501.443L316.053 529.788L324.532 529.788L324.532 505.613L339.196 505.613L339.196 529.788L348.52 529.788L348.52 501.022L364.168 501.022L364.168 547.45L300.452 547.45ZM300.452 454.978C300.452 450.386 301.389 446.295 303.263 442.703C305.105 439.111 307.698 436.3 311.04 434.27C314.382 432.24 318.208 431.225 322.518 431.225C326.641 431.225 330.342 432.224 333.621 434.223C336.87 436.222 339.399 438.971 341.211 442.469L364.168 429.632L364.168 449.824L343.975 459.756L343.975 462.942L343.975 465.659L364.168 465.659L364.168 483.322L300.452 483.322L300.452 454.978ZM329.264 455.774C329.264 454.525 328.983 453.369 328.421 452.307C327.828 451.245 327.015 450.418 325.985 449.824C324.954 449.199 323.798 448.887 322.518 448.887C321.456 448.887 320.425 449.199 319.426 449.824C318.426 450.449 317.63 451.292 317.036 452.354C316.412 453.385 316.099 454.509 316.099 455.727L316.099 465.659L329.264 465.659L329.264 455.774ZM365.714 383.307C365.714 389.522 364.214 395.269 361.216 400.547C358.218 405.795 354.157 409.964 349.035 413.056C343.881 416.148 338.275 417.694 332.216 417.694C326.125 417.694 320.535 416.148 315.444 413.056C310.321 409.964 306.277 405.795 303.309 400.547C300.311 395.269 298.812 389.522 298.812 383.307C298.812 378.528 299.811 373.827 301.81 369.205C303.809 364.582 306.932 360.6 311.18 357.258C315.397 353.916 320.644 351.839 326.922 351.027L326.922 369.017C322.705 369.954 319.66 371.719 317.786 374.311C315.881 376.904 314.928 380.074 314.928 383.822C314.928 386.789 315.615 389.506 316.99 391.974C318.333 394.441 320.316 396.409 322.94 397.877C325.532 399.345 328.64 400.079 332.263 400.079C336.011 400.079 339.181 399.36 341.773 397.924C344.366 396.456 346.318 394.488 347.629 392.021C348.941 389.553 349.597 386.82 349.597 383.822C349.597 380.074 348.66 376.904 346.786 374.311C344.881 371.719 341.82 369.986 337.604 369.111L337.604 351.074C343.881 351.855 349.144 353.9 353.392 357.211C357.609 360.522 360.716 364.504 362.715 369.158C364.714 373.78 365.714 378.497 365.714 383.307ZM300.452 333.889L300.452 316.227L323.923 316.227L323.923 292.286L300.452 292.286L300.452 274.577L364.167 274.577L364.167 292.286L339.524 292.286L339.524 316.227L364.167 316.227L364.167 333.889L300.452 333.889Z" fill="white"/>
</g>
<defs>
<filter id="filter0_dddddd_1_2" x="218.812" y="274.577" width="226.902" height="540.895" filterUnits="userSpaceOnUse" color-interpolation-filters="sRGB">
<feFlood flood-opacity="0" result="BackgroundImageFix"/>
<feColorMatrix in="SourceAlpha" type="matrix" values="0 0 0 0 0 0 0 0 0 0 0 0 0 0 0 0 0 0 127 0" result="hardAlpha"/>
<feOffset dy="2.76726"/>
<feGaussianBlur stdDeviation="1.1069"/>
<feColorMatrix type="matrix" values="0 0 0 0 0.784314 0 0 0 0 0.784314 0 0 0 0 0.784314 0 0 0 0.0196802 0"/>
<feBlend mode="normal" in2="BackgroundImageFix" result="effect1_dropShadow_1_2"/>
<feColorMatrix in="SourceAlpha" type="matrix" values="0 0 0 0 0 0 0 0 0 0 0 0 0 0 0 0 0 0 127 0" result="hardAlpha"/>
<feOffset dy="6.6501"/>
<feGaussianBlur stdDeviation="2.66004"/>
<feColorMatrix type="matrix" values="0 0 0 0 0.784314 0 0 0 0 0.784314 0 0 0 0 0.784314 0 0 0 0.0282725 0"/>
<feBlend mode="normal" in2="effect1_dropShadow_1_2" result="effect2_dropShadow_1_2"/>
<feColorMatrix in="SourceAlpha" type="matrix" values="0 0 0 0 0 0 0 0 0 0 0 0 0 0 0 0 0 0 127 0" result="hardAlpha"/>
<feOffset dy="12.5216"/>
<feGaussianBlur stdDeviation="5.00862"/>
<feColorMatrix type="matrix" values="0 0 0 0 0.784314 0 0 0 0 0.784314 0 0 0 0 0.784314 0 0 0 0.035 0"/>
<feBlend mode="normal" in2="effect2_dropShadow_1_2" result="effect3_dropShadow_1_2"/>
<feColorMatrix in="SourceAlpha" type="matrix" values="0 0 0 0 0 0 0 0 0 0 0 0 0 0 0 0 0 0 127 0" result="hardAlpha"/>
<feOffset dy="22.3363"/>
<feGaussianBlur stdDeviation="8.93452"/>
<feColorMatrix type="matrix" values="0 0 0 0 0.784314 0 0 0 0 0.784314 0 0 0 0 0.784314 0 0 0 0.0417275 0"/>
<feBlend mode="normal" in2="effect3_dropShadow_1_2" result="effect4_dropShadow_1_2"/>
<feColorMatrix in="SourceAlpha" type="matrix" values="0 0 0 0 0 0 0 0 0 0 0 0 0 0 0 0 0 0 127 0" result="hardAlpha"/>
<feOffset dy="41.7776"/>
<feGaussianBlur stdDeviation="16.711"/>
<feColorMatrix type="matrix" values="0 0 0 0 0.784314 0 0 0 0 0.784314 0 0 0 0 0.784314 0 0 0 0.0503198 0"/>
<feBlend mode="normal" in2="effect4_dropShadow_1_2" result="effect5_dropShadow_1_2"/>
<feColorMatrix in="SourceAlpha" type="matrix" values="0 0 0 0 0 0 0 0 0 0 0 0 0 0 0 0 0 0 127 0" result="hardAlpha"/>
<feOffset dy="100"/>
<feGaussianBlur stdDeviation="40"/>
<feColorMatrix type="matrix" values="0 0 0 0 0.784314 0 0 0 0 0.784314 0 0 0 0 0.784314 0 0 0 0.07 0"/>
<feBlend mode="normal" in2="effect5_dropShadow_1_2" result="effect6_dropShadow_1_2"/>
<feBlend mode="normal" in="SourceGraphic" in2="effect6_dropShadow_1_2" result="shape"/>
</filter>
<linearGradient id="paint0_linear_1_2" x1="354.079" y1="752.711" x2="-48.2172" y2="157.993" gradientUnits="userSpaceOnUse">
<stop stop-color="white" stop-opacity="0.7"/>
<stop offset="1" stop-color="white" stop-opacity="0.2"/>
</linearGradient>
<linearGradient id="paint1_linear_1_2" x1="354.079" y1="752.711" x2="-48.2172" y2="157.993" gradientUnits="userSpaceOnUse">
<stop stop-color="white" stop-opacity="0.7"/>
<stop offset="1" stop-color="white" stop-opacity="0.2"/>
</linearGradient>
<clipPath id="clip0_1_2">
<rect width="363.609" height="607.355" fill="white" transform="translate(0 59.4816)"/>
</clipPath>
</defs>
</svg>
