<svg width="373" height="667" viewBox="0 0 373 667" fill="none" xmlns="http://www.w3.org/2000/svg">
<rect width="373" height="667" fill="#E5E5E5"/>
<g clip-path="url(#clip0_0_1)">
<rect width="1920" height="2923" transform="translate(-1445 -1404)" fill="#F8F8F8"/>
<g opacity="0.6" filter="url(#filter0_d_0_1)">
<path d="M-1241.34 -122.744C-1250.59 -122.744 -1259.11 -124.932 -1266.9 -129.307C-1274.7 -133.682 -1280.87 -139.606 -1285.43 -147.08C-1289.99 -154.6 -1292.27 -162.78 -1292.27 -171.621C-1292.27 -180.508 -1289.99 -188.665 -1285.43 -196.094C-1280.87 -203.568 -1274.7 -209.469 -1266.9 -213.799C-1259.11 -218.174 -1250.59 -220.361 -1241.34 -220.361C-1232.13 -220.361 -1223.63 -218.174 -1215.84 -213.799C-1208.05 -209.469 -1201.87 -203.568 -1197.31 -196.094C-1192.71 -188.665 -1190.41 -180.508 -1190.41 -171.621C-1190.41 -162.78 -1192.71 -154.6 -1197.31 -147.08C-1201.87 -139.606 -1208.05 -133.682 -1215.84 -129.307C-1223.63 -124.932 -1232.13 -122.744 -1241.34 -122.744ZM-1241.34 -146.26C-1236.69 -146.26 -1232.45 -147.331 -1228.62 -149.473C-1224.75 -151.615 -1221.7 -154.6 -1219.46 -158.428C-1217.23 -162.301 -1216.11 -166.676 -1216.11 -171.553C-1216.11 -176.429 -1217.23 -180.781 -1219.46 -184.609C-1221.7 -188.483 -1224.75 -191.491 -1228.62 -193.633C-1232.45 -195.775 -1236.69 -196.846 -1241.34 -196.846C-1245.99 -196.846 -1250.25 -195.775 -1254.12 -193.633C-1257.95 -191.491 -1260.98 -188.483 -1263.21 -184.609C-1265.45 -180.781 -1266.56 -176.429 -1266.56 -171.553C-1266.56 -166.676 -1265.45 -162.324 -1263.21 -158.496C-1260.93 -154.668 -1257.88 -151.66 -1254.05 -149.473C-1250.18 -147.331 -1245.94 -146.26 -1241.34 -146.26ZM-1134.44 -125C-1138.86 -125 -1142.91 -125.638 -1146.61 -126.914C-1150.3 -128.236 -1153.46 -130.993 -1156.11 -135.186C-1158.71 -139.378 -1160 -145.462 -1160 -153.438V-175.107H-1172.86V-196.299H-1160V-216.602L-1134.98 -216.738V-196.299H-1117.55V-175.107H-1134.98V-152.275C-1134.98 -150.133 -1134.44 -148.47 -1133.34 -147.285C-1132.25 -146.1 -1130.79 -145.508 -1128.97 -145.508H-1117.55V-125H-1134.44ZM-1068.21 -221.318V-199.102L-1068.83 -190.488C-1064 -195.957 -1057.27 -198.691 -1048.66 -198.691C-1039.18 -198.691 -1032.09 -195.547 -1027.4 -189.258C-1022.71 -183.014 -1020.36 -174.287 -1020.36 -163.076V-125H-1045.38V-162.529C-1045.38 -171.37 -1048.87 -175.791 -1055.84 -175.791C-1058.03 -175.791 -1060.08 -175.107 -1061.99 -173.74C-1063.86 -172.419 -1065.36 -170.505 -1066.5 -167.998C-1067.64 -165.537 -1068.21 -162.689 -1068.21 -159.453V-125L-1093.23 -125V-221.318H-1068.21ZM-920.773 -160.615C-920.773 -158.747 -920.933 -156.742 -921.252 -154.6H-971.018C-969.65 -147.354 -965.435 -143.73 -958.371 -143.73C-953.13 -143.73 -949.826 -145.508 -948.459 -149.063H-922.004C-922.961 -144.642 -925.035 -140.404 -928.225 -136.348C-931.369 -132.337 -935.493 -129.033 -940.598 -126.436C-945.702 -123.883 -951.467 -122.607 -957.893 -122.607C-965.321 -122.607 -971.952 -124.316 -977.785 -127.734C-983.573 -131.152 -988.085 -135.755 -991.32 -141.543C-994.51 -147.376 -996.105 -153.734 -996.105 -160.615C-996.105 -167.542 -994.51 -173.9 -991.32 -179.688C-988.085 -185.521 -983.573 -190.146 -977.785 -193.564C-971.997 -196.982 -965.367 -198.691 -957.893 -198.691C-950.419 -198.691 -943.879 -196.982 -938.273 -193.564C-932.622 -190.192 -928.293 -185.612 -925.285 -179.824C-922.277 -174.036 -920.773 -167.633 -920.773 -160.615ZM-946.34 -170.117C-946.659 -172.76 -947.889 -174.88 -950.031 -176.475C-952.173 -178.115 -954.702 -178.936 -957.619 -178.936C-960.445 -178.936 -962.951 -178.252 -965.139 -176.885C-967.326 -175.518 -968.99 -173.262 -970.129 -170.117H-946.34ZM-873.141 -196.299V-188.711C-871.409 -191.081 -869.381 -192.926 -867.057 -194.248C-864.732 -195.615 -861.816 -196.299 -858.307 -196.299H-849.488V-175.107H-856.871C-861.839 -175.107 -865.598 -173.604 -868.15 -170.596C-870.702 -167.633 -871.979 -163.258 -871.979 -157.471V-125H-897.066V-196.299H-873.141ZM-708.012 -160.615C-708.012 -158.747 -708.171 -156.742 -708.49 -154.6L-758.256 -154.6C-756.889 -147.354 -752.673 -143.73 -745.609 -143.73C-740.368 -143.73 -737.064 -145.508 -735.697 -149.063L-709.242 -149.063C-710.199 -144.642 -712.273 -140.404 -715.463 -136.348C-718.607 -132.337 -722.732 -129.033 -727.836 -126.436C-732.94 -123.883 -738.705 -122.607 -745.131 -122.607C-752.559 -122.607 -759.19 -124.316 -765.023 -127.734C-770.811 -131.152 -775.323 -135.755 -778.559 -141.543C-781.749 -147.376 -783.344 -153.734 -783.344 -160.615C-783.344 -167.542 -781.749 -173.9 -778.559 -179.688C-775.323 -185.521 -770.811 -190.146 -765.023 -193.564C-759.236 -196.982 -752.605 -198.691 -745.131 -198.691C-737.657 -198.691 -731.117 -196.982 -725.512 -193.564C-719.861 -190.192 -715.531 -185.612 -712.523 -179.824C-709.516 -174.036 -708.012 -167.633 -708.012 -160.615ZM-733.578 -170.117C-733.897 -172.76 -735.128 -174.88 -737.27 -176.475C-739.411 -178.115 -741.941 -178.936 -744.857 -178.936C-747.683 -178.936 -750.189 -178.252 -752.377 -176.885C-754.564 -175.518 -756.228 -173.262 -757.367 -170.117H-733.578ZM-684.305 -221.318L-659.285 -221.318V-125H-684.305V-221.318ZM-559.699 -160.615C-559.699 -158.747 -559.859 -156.742 -560.178 -154.6H-609.943C-608.576 -147.354 -604.361 -143.73 -597.297 -143.73C-592.056 -143.73 -588.752 -145.508 -587.385 -149.063H-560.93C-561.887 -144.642 -563.96 -140.404 -567.15 -136.348C-570.295 -132.337 -574.419 -129.033 -579.523 -126.436C-584.628 -123.883 -590.393 -122.607 -596.818 -122.607C-604.247 -122.607 -610.878 -124.316 -616.711 -127.734C-622.499 -131.152 -627.01 -135.755 -630.246 -141.543C-633.436 -147.376 -635.031 -153.734 -635.031 -160.615C-635.031 -167.542 -633.436 -173.9 -630.246 -179.688C-627.01 -185.521 -622.499 -190.146 -616.711 -193.564C-610.923 -196.982 -604.292 -198.691 -596.818 -198.691C-589.344 -198.691 -582.805 -196.982 -577.199 -193.564C-571.548 -190.192 -567.219 -185.612 -564.211 -179.824C-561.203 -174.036 -559.699 -167.633 -559.699 -160.615ZM-585.266 -170.117C-585.585 -172.76 -586.815 -174.88 -588.957 -176.475C-591.099 -178.115 -593.628 -178.936 -596.545 -178.936C-599.37 -178.936 -601.877 -178.252 -604.064 -176.885C-606.252 -175.518 -607.915 -173.262 -609.055 -170.117H-585.266ZM-448.082 -198.691C-439.241 -198.691 -432.656 -195.547 -428.326 -189.258C-423.951 -183.014 -421.764 -174.287 -421.764 -163.076V-125H-446.441V-162.529C-446.441 -167.178 -447.285 -170.55 -448.971 -172.646C-450.611 -174.743 -452.844 -175.791 -455.67 -175.791C-457.584 -175.791 -459.384 -175.107 -461.07 -173.74C-462.711 -172.419 -464.033 -170.505 -465.035 -167.998C-466.038 -165.537 -466.539 -162.689 -466.539 -159.453V-125H-491.217V-162.529C-491.217 -167.178 -492.06 -170.55 -493.746 -172.646C-495.387 -174.743 -497.62 -175.791 -500.445 -175.791C-502.359 -175.791 -504.16 -175.107 -505.846 -173.74C-507.486 -172.419 -508.808 -170.505 -509.811 -167.998C-510.813 -165.537 -511.314 -162.689 -511.314 -159.453V-125H-535.992V-196.299H-512.682L-512.34 -189.873C-510.426 -192.516 -507.76 -194.635 -504.342 -196.23C-500.924 -197.871 -497.096 -198.691 -492.857 -198.691C-482.695 -198.691 -475.426 -194.453 -471.051 -185.977C-467.724 -190.488 -464.192 -193.724 -460.455 -195.684C-456.718 -197.689 -452.594 -198.691 -448.082 -198.691ZM-322.109 -160.615C-322.109 -158.747 -322.269 -156.742 -322.588 -154.6L-372.354 -154.6C-370.986 -147.354 -366.771 -143.73 -359.707 -143.73C-354.466 -143.73 -351.162 -145.508 -349.795 -149.063H-323.34C-324.297 -144.642 -326.37 -140.404 -329.561 -136.348C-332.705 -132.337 -336.829 -129.033 -341.934 -126.436C-347.038 -123.883 -352.803 -122.607 -359.229 -122.607C-366.657 -122.607 -373.288 -124.316 -379.121 -127.734C-384.909 -131.152 -389.421 -135.755 -392.656 -141.543C-395.846 -147.376 -397.441 -153.734 -397.441 -160.615C-397.441 -167.542 -395.846 -173.9 -392.656 -179.688C-389.421 -185.521 -384.909 -190.146 -379.121 -193.564C-373.333 -196.982 -366.702 -198.691 -359.229 -198.691C-351.755 -198.691 -345.215 -196.982 -339.609 -193.564C-333.958 -190.192 -329.629 -185.612 -326.621 -179.824C-323.613 -174.036 -322.109 -167.633 -322.109 -160.615ZM-347.676 -170.117C-347.995 -172.76 -349.225 -174.88 -351.367 -176.475C-353.509 -178.115 -356.038 -178.936 -358.955 -178.936C-361.781 -178.936 -364.287 -178.252 -366.475 -176.885C-368.662 -175.518 -370.326 -173.262 -371.465 -170.117H-347.676ZM-274.613 -196.299V-189.873C-272.517 -192.562 -269.646 -194.704 -266 -196.299C-262.309 -197.894 -258.253 -198.691 -253.832 -198.691C-244.353 -198.691 -237.266 -195.547 -232.572 -189.258C-227.878 -183.014 -225.531 -174.287 -225.531 -163.076V-125H-250.551V-162.529C-250.551 -171.37 -254.037 -175.791 -261.01 -175.791C-264.564 -175.791 -267.527 -174.447 -269.896 -171.758C-272.221 -169.069 -273.383 -164.967 -273.383 -159.453V-125L-298.402 -125V-196.299H-274.613ZM-166.141 -125C-170.561 -125 -174.617 -125.638 -178.309 -126.914C-182 -128.236 -185.167 -130.993 -187.811 -135.186C-190.408 -139.378 -191.707 -145.462 -191.707 -153.438V-175.107H-204.559V-196.299H-191.707V-216.602L-166.688 -216.738V-196.299H-149.256V-175.107H-166.688V-152.275C-166.688 -150.133 -166.141 -148.47 -165.047 -147.285C-163.953 -146.1 -162.495 -145.508 -160.672 -145.508H-149.256V-125H-166.141ZM-96.0176 -122.539C-103.173 -122.539 -109.165 -123.792 -113.996 -126.299C-118.827 -128.805 -122.404 -132.064 -124.729 -136.074C-127.007 -140.085 -128.146 -144.391 -128.146 -148.994L-104.152 -148.857C-103.97 -146.67 -103.218 -144.984 -101.896 -143.799C-100.575 -142.66 -98.5469 -142.09 -95.8125 -142.09C-93.4427 -142.09 -91.8021 -142.454 -90.8906 -143.184C-89.9336 -143.958 -89.4551 -145.007 -89.4551 -146.328C-89.4551 -147.604 -90.2298 -148.584 -91.7793 -149.268C-93.2832 -149.951 -95.8581 -150.498 -99.5039 -150.908C-107.434 -151.82 -113.814 -154.189 -118.645 -158.018C-123.475 -161.891 -125.891 -167.451 -125.891 -174.697C-125.891 -182.399 -123.316 -188.324 -118.166 -192.471C-113.016 -196.618 -105.861 -198.691 -96.7012 -198.691C-90.64 -198.691 -85.2624 -197.643 -80.5684 -195.547C-75.8743 -193.451 -72.2285 -190.465 -69.6309 -186.592C-66.9876 -182.764 -65.666 -178.32 -65.666 -173.262L-90.1387 -173.398C-90.3665 -176.816 -92.5085 -178.525 -96.5645 -178.525C-99.8001 -178.525 -101.418 -177.454 -101.418 -175.313C-101.418 -174.31 -101.213 -173.581 -100.803 -173.125C-100.393 -172.669 -99.4583 -172.259 -98 -171.895C-96.5417 -171.576 -93.9668 -171.143 -90.2754 -170.596C-84.2142 -169.73 -79.2695 -168.431 -75.4414 -166.699C-71.5677 -164.967 -68.6738 -162.575 -66.7598 -159.521C-64.8001 -156.468 -63.8203 -152.572 -63.8203 -147.832C-63.8203 -142.227 -65.2559 -137.51 -68.127 -133.682C-70.9525 -129.899 -74.8034 -127.096 -79.6797 -125.273C-84.5104 -123.451 -89.9564 -122.539 -96.0176 -122.539Z" fill="white"/>
</g>
<rect width="372.563" height="667" fill="#0000FF"/>
<mask id="mask0_0_1" style="mask-type:alpha" maskUnits="userSpaceOnUse" x="0" y="0" width="373" height="667">
<rect width="372.563" height="667" fill="#161616"/>
</mask>
<g mask="url(#mask0_0_1)">
</g>
<g clip-path="url(#clip1_0_1)">
<path d="M40.29 35H39.27V38.35H35.92V39.37H39.27V42.72H40.29V39.37H43.64V38.35H40.29V35ZM89.26 35H88.24V38.35H84.89V39.37H88.24V42.72H89.26V39.37H92.61V38.35H89.26V35ZM285.1 35H284.08V38.35H280.73V39.37H284.08V42.72H285.1V39.37H288.45V38.35H285.1V35ZM383.03 35H382V38.35H378.65V39.37H382V42.72H383.02V39.37H386.37V38.35H383.02V35H383.03ZM138.22 35H137.2V38.35H133.85V39.37H137.2V42.72H138.22V39.37H141.57V38.35H138.22V35ZM187.18 35H186.16V38.35H182.81V39.37H186.16V42.72H187.18V39.37H190.53V38.35H187.18V35ZM334.07 35H333.05V38.35H329.7V39.37H333.05V42.72H334.07V39.37H337.42V38.35H334.07V35ZM-8.67 35H-9.69V38.35H-13.04V39.37H-9.69V42.72H-8.67V39.37H-5.32V38.35H-8.67V35ZM236.14 35H235.12V38.35H231.77V39.37H235.12V42.72H236.14V39.37H239.49V38.35H236.14V35ZM-57.63 35H-58.65V38.35H-62V39.37H-58.65V42.72H-57.63V39.37H-54.28V38.35H-57.63V35ZM431.99 38.35V35H430.97V38.35H427.62V39.37H430.97V42.72H431.99V39.37H435.34V38.35H431.99ZM138.22 524.91H137.2V528.26H133.85V529.28H137.2V532.63H138.22V529.28H141.57V528.26H138.22V524.91ZM-8.67 524.91H-9.69V528.26H-13.04V529.28H-9.69V532.63H-8.67V529.28H-5.32V528.26H-8.67V524.91ZM236.14 524.91H235.12V528.26H231.77V529.28H235.12V532.63H236.14V529.28H239.49V528.26H236.14V524.91ZM-57.63 524.91H-58.65V528.26H-62V529.28H-58.65V532.63H-57.63V529.28H-54.28V528.26H-57.63V524.91ZM383.03 524.91H382V528.26H378.65V529.28H382V532.63H383.02V529.28H386.37V528.26H383.02V524.91H383.03ZM89.26 524.91H88.24V528.26H84.89V529.28H88.24V532.63H89.26V529.28H92.61V528.26H89.26V524.91ZM431.99 524.91H430.97V528.26H427.62V529.28H430.97V532.63H431.99V529.28H435.34V528.26H431.99V524.91ZM285.1 524.91H284.08V528.26H280.73V529.28H284.08V532.63H285.1V529.28H288.45V528.26H285.1V524.91ZM187.18 524.91H186.16V528.26H182.81V529.28H186.16V532.63H187.18V529.28H190.53V528.26H187.18V524.91ZM334.07 524.91H333.05V528.26H329.7V529.28H333.05V532.63H334.07V529.28H337.42V528.26H334.07V524.91ZM40.29 524.91H39.27V528.26H35.92V529.28H39.27V532.63H40.29V529.28H43.64V528.26H40.29V524.91ZM236.14 426.93H235.12V430.28H231.77V431.3H235.12V434.65H236.14V431.3H239.49V430.28H236.14V426.93ZM334.07 426.93H333.05V430.28H329.7V431.3H333.05V434.65H334.07V431.3H337.42V430.28H334.07V426.93ZM187.18 426.93H186.16V430.28H182.81V431.3H186.16V434.65H187.18V431.3H190.53V430.28H187.18V426.93ZM285.1 426.93H284.08V430.28H280.73V431.3H284.08V434.65H285.1V431.3H288.45V430.28H285.1V426.93ZM89.26 426.93H88.24V430.28H84.89V431.3H88.24V434.65H89.26V431.3H92.61V430.28H89.26V426.93ZM40.29 426.93H39.27V430.28H35.92V431.3H39.27V434.65H40.29V431.3H43.64V430.28H40.29V426.93ZM-8.67 426.93H-9.69V430.28H-13.04V431.3H-9.69V434.65H-8.67V431.3H-5.32V430.28H-8.67V426.93ZM138.22 426.93H137.2V430.28H133.85V431.3H137.2V434.65H138.22V431.3H141.57V430.28H138.22V426.93ZM383.03 426.93H382V430.28H378.65V431.3H382V434.65H383.02V431.3H386.37V430.28H383.02V426.93H383.03ZM431.99 426.93H430.97V430.28H427.62V431.3H430.97V434.65H431.99V431.3H435.34V430.28H431.99V426.93ZM-57.63 426.93H-58.65V430.28H-62V431.3H-58.65V434.65H-57.63V431.3H-54.28V430.28H-57.63V426.93ZM-8.67 475.92H-9.69V479.27H-13.04V480.29H-9.69V483.64H-8.67V480.29H-5.32V479.27H-8.67V475.92ZM285.1 475.92H284.08V479.27H280.73V480.29H284.08V483.64H285.1V480.29H288.45V479.27H285.1V475.92ZM236.14 475.92H235.12V479.27H231.77V480.29H235.12V483.64H236.14V480.29H239.49V479.27H236.14V475.92ZM187.18 475.92H186.16V479.27H182.81V480.29H186.16V483.64H187.18V480.29H190.53V479.27H187.18V475.92ZM89.26 475.92H88.24V479.27H84.89V480.29H88.24V483.64H89.26V480.29H92.61V479.27H89.26V475.92ZM40.29 475.92H39.27V479.27H35.92V480.29H39.27V483.64H40.29V480.29H43.64V479.27H40.29V475.92ZM138.22 475.92H137.2V479.27H133.85V480.29H137.2V483.64H138.22V480.29H141.57V479.27H138.22V475.92ZM-57.63 475.92H-58.65V479.27H-62V480.29H-58.65V483.64H-57.63V480.29H-54.28V479.27H-57.63V475.92ZM334.07 475.92H333.05V479.27H329.7V480.29H333.05V483.64H334.07V480.29H337.42V479.27H334.07V475.92ZM383.03 475.92H382V479.27H378.65V480.29H382V483.64H383.02V480.29H386.37V479.27H383.02V475.92H383.03ZM431.99 475.92H430.97V479.27H427.62V480.29H430.97V483.64H431.99V480.29H435.34V479.27H431.99V475.92ZM-57.63 377.94H-58.65V381.29H-62V382.31H-58.65V385.66H-57.63V382.31H-54.28V381.29H-57.63V377.94ZM383.03 377.94H382V381.29H378.65V382.31H382V385.66H383.02V382.31H386.37V381.29H383.02V377.94H383.03ZM236.14 377.94H235.12V381.29H231.77V382.31H235.12V385.66H236.14V382.31H239.49V381.29H236.14V377.94ZM285.1 377.94H284.08V381.29H280.73V382.31H284.08V385.66H285.1V382.31H288.45V381.29H285.1V377.94ZM334.07 377.94H333.05V381.29H329.7V382.31H333.05V385.66H334.07V382.31H337.42V381.29H334.07V377.94ZM40.29 377.94H39.27V381.29H35.92V382.31H39.27V385.66H40.29V382.31H43.64V381.29H40.29V377.94ZM89.26 377.94H88.24V381.29H84.89V382.31H88.24V385.66H89.26V382.31H92.61V381.29H89.26V377.94ZM138.22 377.94H137.2V381.29H133.85V382.31H137.2V385.66H138.22V382.31H141.57V381.29H138.22V377.94ZM-8.67 377.94H-9.69V381.29H-13.04V382.31H-9.69V385.66H-8.67V382.31H-5.32V381.29H-8.67V377.94ZM187.18 377.94H186.16V381.29H182.81V382.31H186.16V385.66H187.18V382.31H190.53V381.29H187.18V377.94ZM431.99 377.94H430.97V381.29H427.62V382.31H430.97V385.66H431.99V382.31H435.34V381.29H431.99V377.94ZM138.22 328.95H137.2V332.3H133.85V333.32H137.2V336.67H138.22V333.32H141.57V332.3H138.22V328.95ZM383.03 328.95H382V332.3H378.65V333.32H382V336.67H383.02V333.32H386.37V332.3H383.02V328.95H383.03ZM431.99 328.95H430.97V332.3H427.62V333.32H430.97V336.67H431.99V333.32H435.34V332.3H431.99V328.95ZM-8.67 328.95H-9.69V332.3H-13.04V333.32H-9.69V336.67H-8.67V333.32H-5.32V332.3H-8.67V328.95ZM89.26 328.95H88.24V332.3H84.89V333.32H88.24V336.67H89.26V333.32H92.61V332.3H89.26V328.95ZM40.29 328.95H39.27V332.3H35.92V333.32H39.27V336.67H40.29V333.32H43.64V332.3H40.29V328.95ZM236.14 328.95H235.12V332.3H231.77V333.32H235.12V336.67H236.14V333.32H239.49V332.3H236.14V328.95ZM-57.63 328.95H-58.65V332.3H-62V333.32H-58.65V336.67H-57.63V333.32H-54.28V332.3H-57.63V328.95ZM187.18 328.95H186.16V332.3H182.81V333.32H186.16V336.67H187.18V333.32H190.53V332.3H187.18V328.95ZM334.07 328.95H333.05V332.3H329.7V333.32H333.05V336.67H334.07V333.32H337.42V332.3H334.07V328.95ZM285.1 328.95H284.08V332.3H280.73V333.32H284.08V336.67H285.1V333.32H288.45V332.3H285.1V328.95ZM431.99 279.95H430.97V283.3H427.62V284.32H430.97V287.67H431.99V284.32H435.34V283.3H431.99V279.95ZM236.14 279.95H235.12V283.3H231.77V284.32H235.12V287.67H236.14V284.32H239.49V283.3H236.14V279.95ZM383.03 279.95H382V283.3H378.65V284.32H382V287.67H383.02V284.32H386.37V283.3H383.02V279.95H383.03ZM334.07 279.95H333.05V283.3H329.7V284.32H333.05V287.67H334.07V284.32H337.42V283.3H334.07V279.95ZM89.26 279.95H88.24V283.3H84.89V284.32H88.24V287.67H89.26V284.32H92.61V283.3H89.26V279.95ZM187.18 279.95H186.16V283.3H182.81V284.32H186.16V287.67H187.18V284.32H190.53V283.3H187.18V279.95ZM138.22 279.95H137.2V283.3H133.85V284.32H137.2V287.67H138.22V284.32H141.57V283.3H138.22V279.95ZM285.1 279.95H284.08V283.3H280.73V284.32H284.08V287.67H285.1V284.32H288.45V283.3H285.1V279.95ZM40.29 279.95H39.27V283.3H35.92V284.32H39.27V287.67H40.29V284.32H43.64V283.3H40.29V279.95ZM-8.67 279.95H-9.69V283.3H-13.04V284.32H-9.69V287.67H-8.67V284.32H-5.32V283.3H-8.67V279.95ZM-57.63 279.95H-58.65V283.3H-62V284.32H-58.65V287.67H-57.63V284.32H-54.28V283.3H-57.63V279.95ZM236.14 230.96H235.12V234.31H231.77V235.33H235.12V238.68H236.14V235.33H239.49V234.31H236.14V230.96ZM383.03 230.96H382V234.31H378.65V235.33H382V238.68H383.02V235.33H386.37V234.31H383.02V230.96H383.03ZM89.26 230.96H88.24V234.31H84.89V235.33H88.24V238.68H89.26V235.33H92.61V234.31H89.26V230.96ZM-57.63 230.96H-58.65V234.31H-62V235.33H-58.65V238.68H-57.63V235.33H-54.28V234.31H-57.63V230.96ZM285.1 230.96H284.08V234.31H280.73V235.33H284.08V238.68H285.1V235.33H288.45V234.31H285.1V230.96ZM431.99 230.96H430.97V234.31H427.62V235.33H430.97V238.68H431.99V235.33H435.34V234.31H431.99V230.96ZM187.18 230.96H186.16V234.31H182.81V235.33H186.16V238.68H187.18V235.33H190.53V234.31H187.18V230.96ZM138.22 230.96H137.2V234.31H133.85V235.33H137.2V238.68H138.22V235.33H141.57V234.31H138.22V230.96ZM-8.67 230.96H-9.69V234.31H-13.04V235.33H-9.69V238.68H-8.67V235.33H-5.32V234.31H-8.67V230.96ZM40.29 230.96H39.27V234.31H35.92V235.33H39.27V238.68H40.29V235.33H43.64V234.31H40.29V230.96ZM334.07 230.96H333.05V234.31H329.7V235.33H333.05V238.68H334.07V235.33H337.42V234.31H334.07V230.96ZM285.1 181.97H284.08V185.32H280.73V186.34H284.08V189.69H285.1V186.34H288.45V185.32H285.1V181.97ZM236.14 181.97H235.12V185.32H231.77V186.34H235.12V189.69H236.14V186.34H239.49V185.32H236.14V181.97ZM-8.67 181.97H-9.69V185.32H-13.04V186.34H-9.69V189.69H-8.67V186.34H-5.32V185.32H-8.67V181.97ZM40.29 181.97H39.27V185.32H35.92V186.34H39.27V189.69H40.29V186.34H43.64V185.32H40.29V181.97ZM187.18 181.97H186.16V185.32H182.81V186.34H186.16V189.69H187.18V186.34H190.53V185.32H187.18V181.97ZM334.07 181.97H333.05V185.32H329.7V186.34H333.05V189.69H334.07V186.34H337.42V185.32H334.07V181.97ZM431.99 181.97H430.97V185.32H427.62V186.34H430.97V189.69H431.99V186.34H435.34V185.32H431.99V181.97ZM138.22 181.97H137.2V185.32H133.85V186.34H137.2V189.69H138.22V186.34H141.57V185.32H138.22V181.97ZM-57.63 181.97H-58.65V185.32H-62V186.34H-58.65V189.69H-57.63V186.34H-54.28V185.32H-57.63V181.97ZM383.03 181.97H382V185.32H378.65V186.34H382V189.69H383.02V186.34H386.37V185.32H383.02V181.97H383.03ZM89.26 181.97H88.24V185.32H84.89V186.34H88.24V189.69H89.26V186.34H92.61V185.32H89.26V181.97ZM431.99 132.98H430.97V136.33H427.62V137.35H430.97V140.7H431.99V137.35H435.34V136.33H431.99V132.98ZM-8.67 132.98H-9.69V136.33H-13.04V137.35H-9.69V140.7H-8.67V137.35H-5.32V136.33H-8.67V132.98ZM89.26 132.98H88.24V136.33H84.89V137.35H88.24V140.7H89.26V137.35H92.61V136.33H89.26V132.98ZM187.18 132.98H186.16V136.33H182.81V137.35H186.16V140.7H187.18V137.35H190.53V136.33H187.18V132.98ZM138.22 132.98H137.2V136.33H133.85V137.35H137.2V140.7H138.22V137.35H141.57V136.33H138.22V132.98ZM334.07 132.98H333.05V136.33H329.7V137.35H333.05V140.7H334.07V137.35H337.42V136.33H334.07V132.98ZM236.14 132.98H235.12V136.33H231.77V137.35H235.12V140.7H236.14V137.35H239.49V136.33H236.14V132.98ZM-57.63 132.98H-58.65V136.33H-62V137.35H-58.65V140.7H-57.63V137.35H-54.28V136.33H-57.63V132.98ZM383.03 132.98H382V136.33H378.65V137.35H382V140.7H383.02V137.35H386.37V136.33H383.02V132.98H383.03ZM285.1 132.98H284.08V136.33H280.73V137.35H284.08V140.7H285.1V137.35H288.45V136.33H285.1V132.98ZM40.29 132.98H39.27V136.33H35.92V137.35H39.27V140.7H40.29V137.35H43.64V136.33H40.29V132.98ZM-57.63 83.99H-58.65V87.34H-62V88.36H-58.65V91.71H-57.63V88.36H-54.28V87.34H-57.63V83.99ZM236.14 83.99H235.12V87.34H231.77V88.36H235.12V91.71H236.14V88.36H239.49V87.34H236.14V83.99ZM383.03 83.99H382V87.34H378.65V88.36H382V91.71H383.02V88.36H386.37V87.34H383.02V83.99H383.03ZM334.07 83.99H333.05V87.34H329.7V88.36H333.05V91.71H334.07V88.36H337.42V87.34H334.07V83.99ZM431.99 83.99H430.97V87.34H427.62V88.36H430.97V91.71H431.99V88.36H435.34V87.34H431.99V83.99ZM285.1 83.99H284.08V87.34H280.73V88.36H284.08V91.71H285.1V88.36H288.45V87.34H285.1V83.99ZM89.26 83.99H88.24V87.34H84.89V88.36H88.24V91.71H89.26V88.36H92.61V87.34H89.26V83.99ZM-8.67 83.99H-9.69V87.34H-13.04V88.36H-9.69V91.71H-8.67V88.36H-5.32V87.34H-8.67V83.99ZM40.29 83.99H39.27V87.34H35.92V88.36H39.27V91.71H40.29V88.36H43.64V87.34H40.29V83.99ZM187.18 83.99H186.16V87.34H182.81V88.36H186.16V91.71H187.18V88.36H190.53V87.34H187.18V83.99ZM138.22 83.99H137.2V87.34H133.85V88.36H137.2V91.71H138.22V88.36H141.57V87.34H138.22V83.99Z" fill="url(#paint0_linear_0_1)"/>
<path d="M40.29 378H39.27V381.35H35.92V382.37H39.27V385.72H40.29V382.37H43.64V381.35H40.29V378ZM89.26 378H88.24V381.35H84.89V382.37H88.24V385.72H89.26V382.37H92.61V381.35H89.26V378ZM285.1 378H284.08V381.35H280.73V382.37H284.08V385.72H285.1V382.37H288.45V381.35H285.1V378ZM383.03 378H382V381.35H378.65V382.37H382V385.72H383.02V382.37H386.37V381.35H383.02V378H383.03ZM138.22 378H137.2V381.35H133.85V382.37H137.2V385.72H138.22V382.37H141.57V381.35H138.22V378ZM187.18 378H186.16V381.35H182.81V382.37H186.16V385.72H187.18V382.37H190.53V381.35H187.18V378ZM334.07 378H333.05V381.35H329.7V382.37H333.05V385.72H334.07V382.37H337.42V381.35H334.07V378ZM-8.67 378H-9.69V381.35H-13.04V382.37H-9.69V385.72H-8.67V382.37H-5.32V381.35H-8.67V378ZM236.14 378H235.12V381.35H231.77V382.37H235.12V385.72H236.14V382.37H239.49V381.35H236.14V378ZM-57.63 378H-58.65V381.35H-62V382.37H-58.65V385.72H-57.63V382.37H-54.28V381.35H-57.63V378ZM431.99 381.35V378H430.97V381.35H427.62V382.37H430.97V385.72H431.99V382.37H435.34V381.35H431.99ZM138.22 867.91H137.2V871.26H133.85V872.28H137.2V875.63H138.22V872.28H141.57V871.26H138.22V867.91ZM-8.67 867.91H-9.69V871.26H-13.04V872.28H-9.69V875.63H-8.67V872.28H-5.32V871.26H-8.67V867.91ZM236.14 867.91H235.12V871.26H231.77V872.28H235.12V875.63H236.14V872.28H239.49V871.26H236.14V867.91ZM-57.63 867.91H-58.65V871.26H-62V872.28H-58.65V875.63H-57.63V872.28H-54.28V871.26H-57.63V867.91ZM383.03 867.91H382V871.26H378.65V872.28H382V875.63H383.02V872.28H386.37V871.26H383.02V867.91H383.03ZM89.26 867.91H88.24V871.26H84.89V872.28H88.24V875.63H89.26V872.28H92.61V871.26H89.26V867.91ZM431.99 867.91H430.97V871.26H427.62V872.28H430.97V875.63H431.99V872.28H435.34V871.26H431.99V867.91ZM285.1 867.91H284.08V871.26H280.73V872.28H284.08V875.63H285.1V872.28H288.45V871.26H285.1V867.91ZM187.18 867.91H186.16V871.26H182.81V872.28H186.16V875.63H187.18V872.28H190.53V871.26H187.18V867.91ZM334.07 867.91H333.05V871.26H329.7V872.28H333.05V875.63H334.07V872.28H337.42V871.26H334.07V867.91ZM40.29 867.91H39.27V871.26H35.92V872.28H39.27V875.63H40.29V872.28H43.64V871.26H40.29V867.91ZM236.14 769.93H235.12V773.28H231.77V774.3H235.12V777.65H236.14V774.3H239.49V773.28H236.14V769.93ZM334.07 769.93H333.05V773.28H329.7V774.3H333.05V777.65H334.07V774.3H337.42V773.28H334.07V769.93ZM187.18 769.93H186.16V773.28H182.81V774.3H186.16V777.65H187.18V774.3H190.53V773.28H187.18V769.93ZM285.1 769.93H284.08V773.28H280.73V774.3H284.08V777.65H285.1V774.3H288.45V773.28H285.1V769.93ZM89.26 769.93H88.24V773.28H84.89V774.3H88.24V777.65H89.26V774.3H92.61V773.28H89.26V769.93ZM40.29 769.93H39.27V773.28H35.92V774.3H39.27V777.65H40.29V774.3H43.64V773.28H40.29V769.93ZM-8.67 769.93H-9.69V773.28H-13.04V774.3H-9.69V777.65H-8.67V774.3H-5.32V773.28H-8.67V769.93ZM138.22 769.93H137.2V773.28H133.85V774.3H137.2V777.65H138.22V774.3H141.57V773.28H138.22V769.93ZM383.03 769.93H382V773.28H378.65V774.3H382V777.65H383.02V774.3H386.37V773.28H383.02V769.93H383.03ZM431.99 769.93H430.97V773.28H427.62V774.3H430.97V777.65H431.99V774.3H435.34V773.28H431.99V769.93ZM-57.63 769.93H-58.65V773.28H-62V774.3H-58.65V777.65H-57.63V774.3H-54.28V773.28H-57.63V769.93ZM-8.67 818.92H-9.69V822.27H-13.04V823.29H-9.69V826.64H-8.67V823.29H-5.32V822.27H-8.67V818.92ZM285.1 818.92H284.08V822.27H280.73V823.29H284.08V826.64H285.1V823.29H288.45V822.27H285.1V818.92ZM236.14 818.92H235.12V822.27H231.77V823.29H235.12V826.64H236.14V823.29H239.49V822.27H236.14V818.92ZM187.18 818.92H186.16V822.27H182.81V823.29H186.16V826.64H187.18V823.29H190.53V822.27H187.18V818.92ZM89.26 818.92H88.24V822.27H84.89V823.29H88.24V826.64H89.26V823.29H92.61V822.27H89.26V818.92ZM40.29 818.92H39.27V822.27H35.92V823.29H39.27V826.64H40.29V823.29H43.64V822.27H40.29V818.92ZM138.22 818.92H137.2V822.27H133.85V823.29H137.2V826.64H138.22V823.29H141.57V822.27H138.22V818.92ZM-57.63 818.92H-58.65V822.27H-62V823.29H-58.65V826.64H-57.63V823.29H-54.28V822.27H-57.63V818.92ZM334.07 818.92H333.05V822.27H329.7V823.29H333.05V826.64H334.07V823.29H337.42V822.27H334.07V818.92ZM383.03 818.92H382V822.27H378.65V823.29H382V826.64H383.02V823.29H386.37V822.27H383.02V818.92H383.03ZM431.99 818.92H430.97V822.27H427.62V823.29H430.97V826.64H431.99V823.29H435.34V822.27H431.99V818.92ZM-57.63 720.94H-58.65V724.29H-62V725.31H-58.65V728.66H-57.63V725.31H-54.28V724.29H-57.63V720.94ZM383.03 720.94H382V724.29H378.65V725.31H382V728.66H383.02V725.31H386.37V724.29H383.02V720.94H383.03ZM236.14 720.94H235.12V724.29H231.77V725.31H235.12V728.66H236.14V725.31H239.49V724.29H236.14V720.94ZM285.1 720.94H284.08V724.29H280.73V725.31H284.08V728.66H285.1V725.31H288.45V724.29H285.1V720.94ZM334.07 720.94H333.05V724.29H329.7V725.31H333.05V728.66H334.07V725.31H337.42V724.29H334.07V720.94ZM40.29 720.94H39.27V724.29H35.92V725.31H39.27V728.66H40.29V725.31H43.64V724.29H40.29V720.94ZM89.26 720.94H88.24V724.29H84.89V725.31H88.24V728.66H89.26V725.31H92.61V724.29H89.26V720.94ZM138.22 720.94H137.2V724.29H133.85V725.31H137.2V728.66H138.22V725.31H141.57V724.29H138.22V720.94ZM-8.67 720.94H-9.69V724.29H-13.04V725.31H-9.69V728.66H-8.67V725.31H-5.32V724.29H-8.67V720.94ZM187.18 720.94H186.16V724.29H182.81V725.31H186.16V728.66H187.18V725.31H190.53V724.29H187.18V720.94ZM431.99 720.94H430.97V724.29H427.62V725.31H430.97V728.66H431.99V725.31H435.34V724.29H431.99V720.94ZM138.22 671.95H137.2V675.3H133.85V676.32H137.2V679.67H138.22V676.32H141.57V675.3H138.22V671.95ZM383.03 671.95H382V675.3H378.65V676.32H382V679.67H383.02V676.32H386.37V675.3H383.02V671.95H383.03ZM431.99 671.95H430.97V675.3H427.62V676.32H430.97V679.67H431.99V676.32H435.34V675.3H431.99V671.95ZM-8.67 671.95H-9.69V675.3H-13.04V676.32H-9.69V679.67H-8.67V676.32H-5.32V675.3H-8.67V671.95ZM89.26 671.95H88.24V675.3H84.89V676.32H88.24V679.67H89.26V676.32H92.61V675.3H89.26V671.95ZM40.29 671.95H39.27V675.3H35.92V676.32H39.27V679.67H40.29V676.32H43.64V675.3H40.29V671.95ZM236.14 671.95H235.12V675.3H231.77V676.32H235.12V679.67H236.14V676.32H239.49V675.3H236.14V671.95ZM-57.63 671.95H-58.65V675.3H-62V676.32H-58.65V679.67H-57.63V676.32H-54.28V675.3H-57.63V671.95ZM187.18 671.95H186.16V675.3H182.81V676.32H186.16V679.67H187.18V676.32H190.53V675.3H187.18V671.95ZM334.07 671.95H333.05V675.3H329.7V676.32H333.05V679.67H334.07V676.32H337.42V675.3H334.07V671.95ZM285.1 671.95H284.08V675.3H280.73V676.32H284.08V679.67H285.1V676.32H288.45V675.3H285.1V671.95ZM431.99 622.95H430.97V626.3H427.62V627.32H430.97V630.67H431.99V627.32H435.34V626.3H431.99V622.95ZM236.14 622.95H235.12V626.3H231.77V627.32H235.12V630.67H236.14V627.32H239.49V626.3H236.14V622.95ZM383.03 622.95H382V626.3H378.65V627.32H382V630.67H383.02V627.32H386.37V626.3H383.02V622.95H383.03ZM334.07 622.95H333.05V626.3H329.7V627.32H333.05V630.67H334.07V627.32H337.42V626.3H334.07V622.95ZM89.26 622.95H88.24V626.3H84.89V627.32H88.24V630.67H89.26V627.32H92.61V626.3H89.26V622.95ZM187.18 622.95H186.16V626.3H182.81V627.32H186.16V630.67H187.18V627.32H190.53V626.3H187.18V622.95ZM138.22 622.95H137.2V626.3H133.85V627.32H137.2V630.67H138.22V627.32H141.57V626.3H138.22V622.95ZM285.1 622.95H284.08V626.3H280.73V627.32H284.08V630.67H285.1V627.32H288.45V626.3H285.1V622.95ZM40.29 622.95H39.27V626.3H35.92V627.32H39.27V630.67H40.29V627.32H43.64V626.3H40.29V622.95ZM-8.67 622.95H-9.69V626.3H-13.04V627.32H-9.69V630.67H-8.67V627.32H-5.32V626.3H-8.67V622.95ZM-57.63 622.95H-58.65V626.3H-62V627.32H-58.65V630.67H-57.63V627.32H-54.28V626.3H-57.63V622.95ZM236.14 573.96H235.12V577.31H231.77V578.33H235.12V581.68H236.14V578.33H239.49V577.31H236.14V573.96ZM383.03 573.96H382V577.31H378.65V578.33H382V581.68H383.02V578.33H386.37V577.31H383.02V573.96H383.03ZM89.26 573.96H88.24V577.31H84.89V578.33H88.24V581.68H89.26V578.33H92.61V577.31H89.26V573.96ZM-57.63 573.96H-58.65V577.31H-62V578.33H-58.65V581.68H-57.63V578.33H-54.28V577.31H-57.63V573.96ZM285.1 573.96H284.08V577.31H280.73V578.33H284.08V581.68H285.1V578.33H288.45V577.31H285.1V573.96ZM431.99 573.96H430.97V577.31H427.62V578.33H430.97V581.68H431.99V578.33H435.34V577.31H431.99V573.96ZM187.18 573.96H186.16V577.31H182.81V578.33H186.16V581.68H187.18V578.33H190.53V577.31H187.18V573.96ZM138.22 573.96H137.2V577.31H133.85V578.33H137.2V581.68H138.22V578.33H141.57V577.31H138.22V573.96ZM-8.67 573.96H-9.69V577.31H-13.04V578.33H-9.69V581.68H-8.67V578.33H-5.32V577.31H-8.67V573.96ZM40.29 573.96H39.27V577.31H35.92V578.33H39.27V581.68H40.29V578.33H43.64V577.31H40.29V573.96ZM334.07 573.96H333.05V577.31H329.7V578.33H333.05V581.68H334.07V578.33H337.42V577.31H334.07V573.96ZM285.1 524.97H284.08V528.32H280.73V529.34H284.08V532.69H285.1V529.34H288.45V528.32H285.1V524.97ZM236.14 524.97H235.12V528.32H231.77V529.34H235.12V532.69H236.14V529.34H239.49V528.32H236.14V524.97ZM-8.67 524.97H-9.69V528.32H-13.04V529.34H-9.69V532.69H-8.67V529.34H-5.32V528.32H-8.67V524.97ZM40.29 524.97H39.27V528.32H35.92V529.34H39.27V532.69H40.29V529.34H43.64V528.32H40.29V524.97ZM187.18 524.97H186.16V528.32H182.81V529.34H186.16V532.69H187.18V529.34H190.53V528.32H187.18V524.97ZM334.07 524.97H333.05V528.32H329.7V529.34H333.05V532.69H334.07V529.34H337.42V528.32H334.07V524.97ZM431.99 524.97H430.97V528.32H427.62V529.34H430.97V532.69H431.99V529.34H435.34V528.32H431.99V524.97ZM138.22 524.97H137.2V528.32H133.85V529.34H137.2V532.69H138.22V529.34H141.57V528.32H138.22V524.97ZM-57.63 524.97H-58.65V528.32H-62V529.34H-58.65V532.69H-57.63V529.34H-54.28V528.32H-57.63V524.97ZM383.03 524.97H382V528.32H378.65V529.34H382V532.69H383.02V529.34H386.37V528.32H383.02V524.97H383.03ZM89.26 524.97H88.24V528.32H84.89V529.34H88.24V532.69H89.26V529.34H92.61V528.32H89.26V524.97ZM431.99 475.98H430.97V479.33H427.62V480.35H430.97V483.7H431.99V480.35H435.34V479.33H431.99V475.98ZM-8.67 475.98H-9.69V479.33H-13.04V480.35H-9.69V483.7H-8.67V480.35H-5.32V479.33H-8.67V475.98ZM89.26 475.98H88.24V479.33H84.89V480.35H88.24V483.7H89.26V480.35H92.61V479.33H89.26V475.98ZM187.18 475.98H186.16V479.33H182.81V480.35H186.16V483.7H187.18V480.35H190.53V479.33H187.18V475.98ZM138.22 475.98H137.2V479.33H133.85V480.35H137.2V483.7H138.22V480.35H141.57V479.33H138.22V475.98ZM334.07 475.98H333.05V479.33H329.7V480.35H333.05V483.7H334.07V480.35H337.42V479.33H334.07V475.98ZM236.14 475.98H235.12V479.33H231.77V480.35H235.12V483.7H236.14V480.35H239.49V479.33H236.14V475.98ZM-57.63 475.98H-58.65V479.33H-62V480.35H-58.65V483.7H-57.63V480.35H-54.28V479.33H-57.63V475.98ZM383.03 475.98H382V479.33H378.65V480.35H382V483.7H383.02V480.35H386.37V479.33H383.02V475.98H383.03ZM285.1 475.98H284.08V479.33H280.73V480.35H284.08V483.7H285.1V480.35H288.45V479.33H285.1V475.98ZM40.29 475.98H39.27V479.33H35.92V480.35H39.27V483.7H40.29V480.35H43.64V479.33H40.29V475.98ZM-57.63 426.99H-58.65V430.34H-62V431.36H-58.65V434.71H-57.63V431.36H-54.28V430.34H-57.63V426.99ZM236.14 426.99H235.12V430.34H231.77V431.36H235.12V434.71H236.14V431.36H239.49V430.34H236.14V426.99ZM383.03 426.99H382V430.34H378.65V431.36H382V434.71H383.02V431.36H386.37V430.34H383.02V426.99H383.03ZM334.07 426.99H333.05V430.34H329.7V431.36H333.05V434.71H334.07V431.36H337.42V430.34H334.07V426.99ZM431.99 426.99H430.97V430.34H427.62V431.36H430.97V434.71H431.99V431.36H435.34V430.34H431.99V426.99ZM285.1 426.99H284.08V430.34H280.73V431.36H284.08V434.71H285.1V431.36H288.45V430.34H285.1V426.99ZM89.26 426.99H88.24V430.34H84.89V431.36H88.24V434.71H89.26V431.36H92.61V430.34H89.26V426.99ZM-8.67 426.99H-9.69V430.34H-13.04V431.36H-9.69V434.71H-8.67V431.36H-5.32V430.34H-8.67V426.99ZM40.29 426.99H39.27V430.34H35.92V431.36H39.27V434.71H40.29V431.36H43.64V430.34H40.29V426.99ZM187.18 426.99H186.16V430.34H182.81V431.36H186.16V434.71H187.18V431.36H190.53V430.34H187.18V426.99ZM138.22 426.99H137.2V430.34H133.85V431.36H137.2V434.71H138.22V431.36H141.57V430.34H138.22V426.99Z" fill="url(#paint1_linear_0_1)"/>
</g>
<g filter="url(#filter1_dddddd_0_1)">
<path d="M309.168 604.795C309.168 600.042 310.177 595.794 312.195 592.051C314.214 588.275 317.029 585.329 320.643 583.213C324.223 581.097 328.26 580.039 332.752 580.039C337.602 580.039 341.883 581.081 345.594 583.164C349.272 585.247 352.12 588.161 354.139 591.904C356.157 595.615 357.166 599.831 357.166 604.551L357.166 615.732L375.574 615.732L375.574 634.141L309.168 634.141L309.168 604.795ZM340.857 605.625C340.857 604.323 340.499 603.135 339.783 602.061C339.067 600.954 338.09 600.075 336.854 599.424C335.617 598.773 334.249 598.447 332.752 598.447C331.613 598.447 330.49 598.773 329.383 599.424C328.243 600.075 327.316 600.954 326.6 602.061C325.851 603.167 325.477 604.339 325.477 605.576L325.477 615.732L340.857 615.732L340.857 605.625ZM377.186 530.928C377.186 537.536 375.623 543.623 372.498 549.189C369.373 554.756 365.141 559.167 359.803 562.422C354.432 565.677 348.589 567.305 342.273 567.305C335.926 567.305 330.099 565.677 324.793 562.422C319.454 559.167 315.239 554.756 312.146 549.189C309.021 543.623 307.459 537.536 307.459 530.928C307.459 524.352 309.021 518.281 312.146 512.715C315.239 507.148 319.454 502.738 324.793 499.482C330.099 496.195 335.926 494.551 342.273 494.551C348.589 494.551 354.432 496.195 359.803 499.482C365.141 502.738 369.373 507.148 372.498 512.715C375.623 518.281 377.186 524.352 377.186 530.928ZM360.389 530.928C360.389 527.607 359.624 524.58 358.094 521.846C356.564 519.079 354.432 516.898 351.697 515.303C348.93 513.708 345.805 512.91 342.322 512.91C338.839 512.91 335.73 513.708 332.996 515.303C330.229 516.898 328.081 519.079 326.551 521.846C325.021 524.58 324.256 527.607 324.256 530.928C324.256 534.248 325.021 537.292 326.551 540.059C328.081 542.793 330.229 544.958 332.996 546.553C335.73 548.148 338.839 548.945 342.322 548.945C345.805 548.945 348.914 548.148 351.648 546.553C354.383 544.925 356.531 542.744 358.094 540.01C359.624 537.243 360.389 534.215 360.389 530.928ZM377.332 451.152C377.332 457.891 376.242 463.408 374.061 467.705C371.88 471.969 369.064 475.062 365.613 476.982C362.163 478.87 358.436 479.814 354.432 479.814L354.432 461.455C356.873 461.455 358.745 460.576 360.047 458.818C361.316 457.061 361.951 454.538 361.951 451.25C361.951 447.604 361.512 445.065 360.633 443.633C359.754 442.201 358.354 441.484 356.434 441.484C355.392 441.484 354.497 441.891 353.748 442.705C352.967 443.486 352.267 444.691 351.648 446.318C351.03 447.946 350.33 450.192 349.549 453.057C348.247 457.874 346.814 462.041 345.252 465.557C343.657 469.072 341.411 472.067 338.514 474.541C335.617 476.982 331.938 478.203 327.479 478.203C323.344 478.203 319.78 477.194 316.785 475.176C313.79 473.158 311.495 470.195 309.9 466.289C308.273 462.35 307.459 457.549 307.459 451.885C307.459 442.998 309.38 436.292 313.221 431.768C317.029 427.21 322.352 424.932 329.187 424.932L329.187 443.389C327.592 443.389 326.225 444.023 325.086 445.293C323.947 446.562 323.377 448.841 323.377 452.129C323.377 455.124 323.768 457.158 324.549 458.232C325.33 459.274 326.339 459.795 327.576 459.795C328.618 459.795 329.529 459.372 330.311 458.525C331.092 457.679 331.808 456.312 332.459 454.424C333.11 452.536 333.794 449.915 334.51 446.562C336.137 438.945 338.709 433.086 342.225 428.984C345.708 424.883 350.46 422.832 356.482 422.832C360.942 422.832 364.734 424.036 367.859 426.445C370.984 428.822 373.344 432.142 374.939 436.406C376.534 440.671 377.332 445.586 377.332 451.152ZM309.168 404.434L309.168 388.223L335.584 369.521L309.168 350.43L309.168 334.414L375.574 334.414L375.574 352.773L338.416 352.773L359.412 367.275L359.412 371.768L338.221 386.025L375.574 386.025L375.574 404.434L309.168 404.434Z" fill="white"/>
</g>
<path opacity="0.9" d="M339.375 179.703L339.375 170.437L350 170.437L350 172.383L341.109 172.383L341.109 177.75L350 177.75L350 179.703L339.375 179.703ZM350.242 164.012C350.242 164.809 350.052 165.53 349.672 166.176C349.292 166.817 348.779 167.319 348.133 167.684C347.482 168.049 346.766 168.231 345.984 168.231C345.208 168.231 344.495 168.049 343.844 167.684C343.193 167.319 342.677 166.817 342.297 166.176C341.917 165.53 341.727 164.806 341.727 164.004C341.727 163.197 341.917 162.471 342.297 161.825C342.677 161.179 343.193 160.674 343.844 160.309C344.495 159.944 345.208 159.762 345.984 159.762C346.766 159.762 347.482 159.944 348.133 160.309C348.784 160.674 349.299 161.181 349.68 161.832C350.055 162.478 350.242 163.205 350.242 164.012ZM348.484 163.997C348.484 163.549 348.378 163.148 348.164 162.793C347.951 162.434 347.654 162.153 347.273 161.95C346.893 161.741 346.464 161.637 345.984 161.637C345.51 161.637 345.083 161.741 344.703 161.95C344.318 162.153 344.018 162.434 343.805 162.793C343.586 163.153 343.477 163.554 343.477 163.997C343.477 164.439 343.586 164.84 343.805 165.2C344.018 165.559 344.318 165.843 344.703 166.051C345.083 166.254 345.51 166.356 345.984 166.356C346.464 166.356 346.893 166.254 347.273 166.051C347.654 165.843 347.951 165.562 348.164 165.207C348.378 164.848 348.484 164.444 348.484 163.997ZM348.422 157.681C347.948 157.321 347.378 157.032 346.711 156.813C346.039 156.595 345.232 156.454 344.289 156.392L341.969 156.228L341.969 150.165L348.422 150.165L348.422 149.376L351.75 149.376L351.75 151.251L350 151.251L350 156.454L351.75 156.454L351.75 158.329L348.422 158.329L348.422 157.681ZM343.555 152.04L343.555 154.548L344.914 154.634C345.706 154.691 346.375 154.816 346.922 155.009C347.469 155.196 347.969 155.451 348.422 155.774L348.422 152.04L343.555 152.04ZM341.969 145.482L343.32 145.482C342.831 145.19 342.445 144.802 342.164 144.318C341.878 143.828 341.734 143.297 341.734 142.724C341.734 141.979 341.924 141.31 342.305 140.716C342.685 140.117 343.201 139.651 343.852 139.318C344.497 138.979 345.208 138.81 345.984 138.81C346.766 138.81 347.482 138.979 348.133 139.318C348.779 139.656 349.292 140.123 349.672 140.716C350.052 141.305 350.242 141.966 350.242 142.701C350.242 143.279 350.104 143.81 349.828 144.294C349.547 144.779 349.172 145.156 348.703 145.427L349.633 145.388L352.742 145.388L352.742 147.279L341.969 147.279L341.969 145.482ZM348.5 143.044C348.5 142.617 348.398 142.224 348.195 141.865C347.987 141.505 347.693 141.219 347.312 141.005C346.932 140.792 346.49 140.685 345.984 140.685C345.495 140.685 345.06 140.792 344.68 141.005C344.299 141.214 344.005 141.5 343.797 141.865C343.583 142.224 343.477 142.62 343.477 143.052C343.477 143.479 343.589 143.875 343.812 144.24C344.031 144.599 344.333 144.886 344.719 145.099C345.104 145.307 345.526 145.412 345.984 145.412C346.464 145.412 346.896 145.305 347.281 145.091C347.661 144.878 347.961 144.591 348.18 144.232C348.393 143.867 348.5 143.471 348.5 143.044ZM350.242 133.025C350.242 133.822 350.052 134.544 349.672 135.189C349.292 135.83 348.779 136.333 348.133 136.697C347.482 137.062 346.766 137.244 345.984 137.244C345.208 137.244 344.495 137.062 343.844 136.697C343.193 136.333 342.677 135.83 342.297 135.189C341.917 134.544 341.727 133.82 341.727 133.018C341.727 132.21 341.917 131.484 342.297 130.838C342.677 130.192 343.193 129.687 343.844 129.322C344.495 128.958 345.208 128.775 345.984 128.775C346.766 128.775 347.482 128.958 348.133 129.322C348.784 129.687 349.299 130.195 349.68 130.846C350.055 131.491 350.242 132.218 350.242 133.025ZM348.484 133.01C348.484 132.562 348.378 132.161 348.164 131.807C347.951 131.447 347.654 131.166 347.273 130.963C346.893 130.754 346.464 130.65 345.984 130.65C345.51 130.65 345.083 130.754 344.703 130.963C344.318 131.166 344.018 131.447 343.805 131.807C343.586 132.166 343.477 132.567 343.477 133.01C343.477 133.452 343.586 133.853 343.805 134.213C344.018 134.572 344.318 134.856 344.703 135.064C345.083 135.268 345.51 135.369 345.984 135.369C346.464 135.369 346.893 135.268 347.273 135.064C347.654 134.856 347.951 134.575 348.164 134.221C348.378 133.861 348.484 133.458 348.484 133.01ZM342.109 122.811C342.109 122.03 342.286 121.34 342.641 120.741C342.995 120.136 343.482 119.67 344.102 119.342C344.716 119.009 345.409 118.842 346.18 118.842C346.893 118.842 347.562 119.024 348.187 119.389C348.807 119.754 349.305 120.259 349.68 120.905C350.055 121.545 350.242 122.259 350.242 123.045C350.242 123.827 350.049 124.537 349.664 125.178C349.279 125.814 348.76 126.314 348.109 126.678C347.453 127.037 346.734 127.217 345.953 127.217L345.25 127.217C343.599 127.217 342.326 126.873 341.43 126.186C340.529 125.493 339.93 124.556 339.633 123.373L339.523 122.912C339.43 122.517 339.349 122.212 339.281 121.998C339.208 121.78 339.117 121.597 339.008 121.452C338.898 121.306 338.766 121.233 338.609 121.233L338.609 119.412C339.161 119.412 339.607 119.577 339.945 119.905C340.279 120.233 340.521 120.608 340.672 121.03C340.823 121.452 340.956 121.941 341.07 122.498L341.156 122.873C341.349 123.597 341.654 124.181 342.07 124.623C342.487 125.061 342.971 125.29 343.523 125.311C343.086 125.04 342.742 124.691 342.492 124.264C342.237 123.832 342.109 123.347 342.109 122.811ZM348.484 123.022C348.484 122.595 348.38 122.207 348.172 121.858C347.958 121.504 347.674 121.225 347.32 121.022C346.966 120.814 346.583 120.709 346.172 120.709C345.766 120.709 345.385 120.814 345.031 121.022C344.677 121.225 344.393 121.504 344.18 121.858C343.966 122.212 343.859 122.6 343.859 123.022C343.859 123.449 343.964 123.84 344.172 124.194C344.38 124.548 344.661 124.827 345.016 125.03C345.37 125.233 345.755 125.334 346.172 125.334C346.583 125.334 346.966 125.233 347.32 125.03C347.674 124.821 347.958 124.543 348.172 124.194C348.38 123.84 348.484 123.449 348.484 123.022ZM341.961 116.714L341.961 114.847L345.078 114.847L345.078 111.222L341.961 111.222L341.961 109.347L350 109.347L350 111.222L346.805 111.222L346.805 114.847L350 114.847L350 116.714L341.961 116.714ZM345.844 99.015C346.021 99.015 346.234 99.028 346.484 99.0541L346.484 105.327C346.911 105.265 347.281 105.13 347.594 104.921C347.906 104.708 348.146 104.445 348.312 104.132C348.474 103.814 348.555 103.471 348.555 103.101C348.555 102.632 348.464 102.249 348.281 101.952C348.094 101.65 347.826 101.429 347.477 101.288L347.477 99.2259C347.971 99.3666 348.43 99.614 348.852 99.9681C349.273 100.322 349.612 100.768 349.867 101.304C350.117 101.835 350.242 102.421 350.242 103.062C350.242 103.848 350.052 104.559 349.672 105.195C349.292 105.83 348.776 106.327 348.125 106.687C347.474 107.046 346.76 107.226 345.984 107.226C345.208 107.226 344.495 107.046 343.844 106.687C343.193 106.327 342.677 105.83 342.297 105.195C341.917 104.559 341.727 103.848 341.727 103.062C341.727 102.275 341.914 101.575 342.289 100.96C342.664 100.346 343.167 99.8692 343.797 99.5306C344.422 99.1869 345.104 99.015 345.844 99.015ZM345.023 100.945C344.727 100.971 344.453 101.083 344.203 101.281C343.948 101.479 343.747 101.736 343.602 102.054C343.451 102.367 343.375 102.705 343.375 103.07C343.375 103.575 343.516 104.028 343.797 104.429C344.073 104.825 344.482 105.098 345.023 105.249L345.023 100.945ZM345.844 89.3475C346.021 89.3475 346.234 89.3605 346.484 89.3866L346.484 95.66C346.911 95.5975 347.281 95.4621 347.594 95.2538C347.906 95.0402 348.146 94.7772 348.312 94.4647C348.474 94.147 348.555 93.8032 348.555 93.4334C348.555 92.9647 348.464 92.5819 348.281 92.285C348.094 91.9829 347.826 91.7616 347.477 91.6209L347.477 89.5584C347.971 89.6991 348.43 89.9465 348.852 90.3006C349.273 90.6548 349.612 91.1001 349.867 91.6366C350.117 92.1678 350.242 92.7538 350.242 93.3944C350.242 94.1808 350.052 94.8918 349.672 95.5272C349.292 96.1626 348.776 96.66 348.125 97.0194C347.474 97.3788 346.76 97.5584 345.984 97.5584C345.208 97.5584 344.495 97.3788 343.844 97.0194C343.193 96.66 342.677 96.1626 342.297 95.5272C341.917 94.8918 341.727 94.1808 341.727 93.3944C341.727 92.6079 341.914 91.9074 342.289 91.2928C342.664 90.6782 343.167 90.2017 343.797 89.8631C344.422 89.5194 345.104 89.3475 345.844 89.3475ZM345.023 91.2772C344.727 91.3032 344.453 91.4152 344.203 91.6131C343.948 91.811 343.747 92.0689 343.602 92.3866C343.451 92.6991 343.375 93.0376 343.375 93.4022C343.375 93.9074 343.516 94.3605 343.797 94.7616C344.073 95.1574 344.482 95.4308 345.023 95.5819L345.023 91.2772Z" fill="#F8F8F8"/>
<g opacity="0.9" clip-path="url(#clip2_0_1)">
<path d="M345.447 58.2291C345.447 58.2294 345.446 58.2296 345.446 58.2298L341.384 62.312C341.079 62.6179 341.081 63.1125 341.386 63.4169C341.692 63.7213 342.187 63.7201 342.491 63.4143L345.219 60.6735L345.219 77.2187C345.219 77.6502 345.569 78 346 78C346.431 78 346.781 77.6502 346.781 77.2187L346.781 60.6736L349.509 63.4143C349.813 63.7201 350.308 63.7212 350.614 63.4169C350.919 63.1125 350.921 62.6178 350.616 62.312L346.554 58.2298C346.554 58.2296 346.553 58.2294 346.553 58.2291C346.248 57.9231 345.751 57.9241 345.447 58.2291Z" fill="#F8F8F8"/>
</g>
</g>
<defs>
<filter id="filter0_d_0_1" x="-1372.27" y="-221.318" width="1388.45" height="278.779" filterUnits="userSpaceOnUse" color-interpolation-filters="sRGB">
<feFlood flood-opacity="0" result="BackgroundImageFix"/>
<feColorMatrix in="SourceAlpha" type="matrix" values="0 0 0 0 0 0 0 0 0 0 0 0 0 0 0 0 0 0 127 0" result="hardAlpha"/>
<feOffset dy="100"/>
<feGaussianBlur stdDeviation="40"/>
<feColorMatrix type="matrix" values="0 0 0 0 0 0 0 0 0 0 0 0 0 0 0 0 0 0 0.05 0"/>
<feBlend mode="normal" in2="BackgroundImageFix" result="effect1_dropShadow_0_1"/>
<feBlend mode="normal" in="SourceGraphic" in2="effect1_dropShadow_0_1" result="shape"/>
</filter>
<filter id="filter1_dddddd_0_1" x="227.459" y="334.414" width="229.873" height="479.727" filterUnits="userSpaceOnUse" color-interpolation-filters="sRGB">
<feFlood flood-opacity="0" result="BackgroundImageFix"/>
<feColorMatrix in="SourceAlpha" type="matrix" values="0 0 0 0 0 0 0 0 0 0 0 0 0 0 0 0 0 0 127 0" result="hardAlpha"/>
<feOffset dy="2.76726"/>
<feGaussianBlur stdDeviation="1.1069"/>
<feColorMatrix type="matrix" values="0 0 0 0 0.784314 0 0 0 0 0.784314 0 0 0 0 0.784314 0 0 0 0.0196802 0"/>
<feBlend mode="normal" in2="BackgroundImageFix" result="effect1_dropShadow_0_1"/>
<feColorMatrix in="SourceAlpha" type="matrix" values="0 0 0 0 0 0 0 0 0 0 0 0 0 0 0 0 0 0 127 0" result="hardAlpha"/>
<feOffset dy="6.6501"/>
<feGaussianBlur stdDeviation="2.66004"/>
<feColorMatrix type="matrix" values="0 0 0 0 0.784314 0 0 0 0 0.784314 0 0 0 0 0.784314 0 0 0 0.0282725 0"/>
<feBlend mode="normal" in2="effect1_dropShadow_0_1" result="effect2_dropShadow_0_1"/>
<feColorMatrix in="SourceAlpha" type="matrix" values="0 0 0 0 0 0 0 0 0 0 0 0 0 0 0 0 0 0 127 0" result="hardAlpha"/>
<feOffset dy="12.5216"/>
<feGaussianBlur stdDeviation="5.00862"/>
<feColorMatrix type="matrix" values="0 0 0 0 0.784314 0 0 0 0 0.784314 0 0 0 0 0.784314 0 0 0 0.035 0"/>
<feBlend mode="normal" in2="effect2_dropShadow_0_1" result="effect3_dropShadow_0_1"/>
<feColorMatrix in="SourceAlpha" type="matrix" values="0 0 0 0 0 0 0 0 0 0 0 0 0 0 0 0 0 0 127 0" result="hardAlpha"/>
<feOffset dy="22.3363"/>
<feGaussianBlur stdDeviation="8.93452"/>
<feColorMatrix type="matrix" values="0 0 0 0 0.784314 0 0 0 0 0.784314 0 0 0 0 0.784314 0 0 0 0.0417275 0"/>
<feBlend mode="normal" in2="effect3_dropShadow_0_1" result="effect4_dropShadow_0_1"/>
<feColorMatrix in="SourceAlpha" type="matrix" values="0 0 0 0 0 0 0 0 0 0 0 0 0 0 0 0 0 0 127 0" result="hardAlpha"/>
<feOffset dy="41.7776"/>
<feGaussianBlur stdDeviation="16.711"/>
<feColorMatrix type="matrix" values="0 0 0 0 0.784314 0 0 0 0 0.784314 0 0 0 0 0.784314 0 0 0 0.0503198 0"/>
<feBlend mode="normal" in2="effect4_dropShadow_0_1" result="effect5_dropShadow_0_1"/>
<feColorMatrix in="SourceAlpha" type="matrix" values="0 0 0 0 0 0 0 0 0 0 0 0 0 0 0 0 0 0 127 0" result="hardAlpha"/>
<feOffset dy="100"/>
<feGaussianBlur stdDeviation="40"/>
<feColorMatrix type="matrix" values="0 0 0 0 0.784314 0 0 0 0 0.784314 0 0 0 0 0.784314 0 0 0 0.07 0"/>
<feBlend mode="normal" in2="effect5_dropShadow_0_1" result="effect6_dropShadow_0_1"/>
<feBlend mode="normal" in="SourceGraphic" in2="effect6_dropShadow_0_1" result="shape"/>
</filter>
<linearGradient id="paint0_linear_0_1" x1="360" y1="701" x2="63.5001" y2="47.5" gradientUnits="userSpaceOnUse">
<stop stop-color="white" stop-opacity="0.7"/>
<stop offset="1" stop-color="white" stop-opacity="0.2"/>
</linearGradient>
<linearGradient id="paint1_linear_0_1" x1="360" y1="701" x2="63.5001" y2="47.5" gradientUnits="userSpaceOnUse">
<stop stop-color="white" stop-opacity="0.7"/>
<stop offset="1" stop-color="white" stop-opacity="0.2"/>
</linearGradient>
<clipPath id="clip0_0_1">
<rect width="1920" height="2923" fill="white" transform="translate(-1445 -1404)"/>
</clipPath>
<clipPath id="clip1_0_1">
<rect width="497" height="632" fill="white" transform="translate(-62 35)"/>
</clipPath>
<clipPath id="clip2_0_1">
<rect width="20" height="20" fill="white" transform="translate(336 78) rotate(-90)"/>
</clipPath>
</defs>
</svg>
