<svg width="446" height="474" viewBox="0 0 446 474" fill="none" xmlns="http://www.w3.org/2000/svg">
<path d="M23.7207 25.5156C28.6882 25.5156 33.0632 26.484 36.8457 28.4209C40.6283 30.3577 43.5563 33.0807 45.6299 36.5898C47.7262 40.099 48.7744 44.1436 48.7744 48.7236C48.7744 53.3265 47.7376 57.3939 45.6641 60.9258C43.5905 64.4349 40.6624 67.1579 36.8799 69.0947C33.1201 71.0316 28.7679 72 23.8232 72H4.10156L4.10156 25.5156L23.7207 25.5156ZM23.3447 60.6182C27.3324 60.6182 30.4085 59.5928 32.5732 57.542C34.738 55.4912 35.8203 52.5973 35.8203 48.8604C35.8203 45.1462 34.7607 42.2295 32.6416 40.1104C30.5225 37.9684 27.4235 36.8975 23.3447 36.8975H16.7822L16.7822 60.6182H23.3447ZM54.2773 25.5156L87.8418 25.5156L87.8418 36.8975L67.1631 36.8975V43.084H84.7998V53.7822H67.1631V60.584L88.1494 60.584V72L54.2773 72L54.2773 25.5156ZM111.973 73.2305C107.256 73.2305 103.394 72.4671 100.386 70.9404C97.4007 69.4137 95.236 67.4427 93.8916 65.0273C92.57 62.612 91.9092 60.0029 91.9092 57.2002H104.761C104.761 58.9092 105.376 60.2194 106.606 61.1309C107.837 62.0195 109.603 62.4639 111.904 62.4639C114.456 62.4639 116.234 62.1562 117.236 61.541C118.239 60.9258 118.74 59.946 118.74 58.6016C118.74 57.8724 118.455 57.2458 117.886 56.7217C117.339 56.1748 116.496 55.6849 115.356 55.252C114.217 54.819 112.645 54.3291 110.64 53.7822C107.267 52.8708 104.351 51.8682 101.89 50.7744C99.4287 49.6579 97.3324 48.0856 95.6006 46.0576C93.8916 44.0296 93.0371 41.4548 93.0371 38.333C93.0371 35.4391 93.7435 32.944 95.1562 30.8477C96.569 28.7513 98.6426 27.1449 101.377 26.0283C104.134 24.889 107.495 24.3193 111.46 24.3193C117.681 24.3193 122.375 25.6637 125.542 28.3525C128.732 31.0186 130.327 34.7441 130.327 39.5293H117.407C117.407 38.4128 116.963 37.4557 116.074 36.6582C115.186 35.8607 113.59 35.4619 111.289 35.4619C109.193 35.4619 107.769 35.7354 107.017 36.2822C106.287 36.8291 105.923 37.5355 105.923 38.4014C105.923 39.1305 106.219 39.7686 106.812 40.3154C107.404 40.8623 108.361 41.3636 109.683 41.8193C111.004 42.2751 112.839 42.7536 115.186 43.2549C120.518 44.3942 124.619 46.1943 127.49 48.6553C130.361 51.0934 131.797 54.4202 131.797 58.6357C131.797 61.7575 130.954 64.4121 129.268 66.5996C127.604 68.7871 125.28 70.4391 122.295 71.5557C119.31 72.6722 115.869 73.2305 111.973 73.2305ZM137.676 25.5156H150.562L150.562 72H137.676L137.676 25.5156ZM180.811 73.1279C176.367 73.1279 172.254 72.0342 168.472 69.8467C164.689 67.6364 161.67 64.6628 159.414 60.9258C157.181 57.1888 156.064 53.11 156.064 48.6895C156.064 44.2461 157.192 40.1673 159.448 36.4531C161.704 32.7161 164.746 29.7653 168.574 27.6006C172.425 25.4131 176.618 24.3193 181.152 24.3193C184.525 24.3193 187.92 25.0371 191.338 26.4727C194.779 27.8854 197.729 29.9362 200.19 32.625C202.651 35.3138 204.155 38.4697 204.702 42.0928L191.577 42.0928C190.506 40.1559 189.059 38.6748 187.236 37.6494C185.413 36.6012 183.26 36.0771 180.776 36.0771C178.612 36.0771 176.629 36.5785 174.829 37.5811C173.029 38.5609 171.593 40.0078 170.522 41.9219C169.451 43.8132 168.916 46.0804 168.916 48.7236C168.916 51.458 169.44 53.7708 170.488 55.6621C171.559 57.5534 172.995 58.9775 174.795 59.9346C176.595 60.8916 178.589 61.3701 180.776 61.3701C183.146 61.3701 185.186 60.9372 186.895 60.0713C188.626 59.2054 189.811 57.861 190.449 56.0381H180.298V45.9893L204.941 45.9893C205.033 51.7087 204.132 56.6077 202.241 60.6865C200.35 64.7425 197.581 67.8301 193.936 69.9492C190.29 72.0684 185.915 73.1279 180.811 73.1279ZM210.41 25.5156L221.724 25.5156L241.104 51.1162V25.5156L253.955 25.5156L253.955 72H242.778L223.296 46.2969L223.296 72H210.41L210.41 25.5156Z" fill="#0000FF"/>
<path d="M24.6436 147.516C27.9704 147.516 30.944 148.222 33.5645 149.635C36.2077 151.048 38.2699 153.019 39.751 155.548C41.2321 158.054 41.9727 160.88 41.9727 164.024C41.9727 167.42 41.2435 170.416 39.7852 173.014C38.3268 175.589 36.2874 177.582 33.667 178.995C31.0693 180.408 28.1185 181.114 24.8145 181.114H16.9873L16.9873 194H4.10156L4.10156 147.516H24.6436ZM24.0625 169.698C24.974 169.698 25.8057 169.448 26.5576 168.946C27.3324 168.445 27.9476 167.761 28.4033 166.896C28.859 166.03 29.0869 165.073 29.0869 164.024C29.0869 163.227 28.859 162.441 28.4033 161.666C27.9476 160.868 27.3324 160.219 26.5576 159.718C25.7829 159.194 24.9626 158.932 24.0967 158.932H16.9873L16.9873 169.698H24.0625ZM69.3506 195.128C64.7249 195.128 60.4639 194.034 56.5674 191.847C52.6709 189.659 49.5833 186.697 47.3047 182.96C45.026 179.2 43.8867 175.11 43.8867 170.689C43.8867 166.246 45.026 162.167 47.3047 158.453C49.5833 154.716 52.6709 151.765 56.5674 149.601C60.4639 147.413 64.7249 146.319 69.3506 146.319C73.9535 146.319 78.2031 147.413 82.0996 149.601C85.9961 151.765 89.0837 154.716 91.3623 158.453C93.6637 162.167 94.8145 166.246 94.8145 170.689C94.8145 175.11 93.6637 179.2 91.3623 182.96C89.0837 186.697 85.9961 189.659 82.0996 191.847C78.2031 194.034 73.9535 195.128 69.3506 195.128ZM69.3506 183.37C71.6748 183.37 73.7939 182.835 75.708 181.764C77.6449 180.693 79.1715 179.2 80.2881 177.286C81.4046 175.349 81.9629 173.162 81.9629 170.724C81.9629 168.285 81.4046 166.109 80.2881 164.195C79.1715 162.258 77.6449 160.755 75.708 159.684C73.7939 158.613 71.6748 158.077 69.3506 158.077C67.0264 158.077 64.8958 158.613 62.959 159.684C61.0449 160.755 59.5296 162.258 58.4131 164.195C57.2965 166.109 56.7383 168.285 56.7383 170.724C56.7383 173.162 57.2965 175.338 58.4131 177.252C59.5524 179.166 61.0791 180.67 62.9932 181.764C64.93 182.835 67.0492 183.37 69.3506 183.37ZM118.193 195.23C113.477 195.23 109.614 194.467 106.606 192.94C103.621 191.414 101.457 189.443 100.112 187.027C98.7907 184.612 98.1299 182.003 98.1299 179.2H110.981C110.981 180.909 111.597 182.219 112.827 183.131C114.058 184.02 115.824 184.464 118.125 184.464C120.677 184.464 122.454 184.156 123.457 183.541C124.46 182.926 124.961 181.946 124.961 180.602C124.961 179.872 124.676 179.246 124.106 178.722C123.56 178.175 122.716 177.685 121.577 177.252C120.438 176.819 118.866 176.329 116.86 175.782C113.488 174.871 110.571 173.868 108.11 172.774C105.649 171.658 103.553 170.086 101.821 168.058C100.112 166.03 99.2578 163.455 99.2578 160.333C99.2578 157.439 99.9642 154.944 101.377 152.848C102.79 150.751 104.863 149.145 107.598 148.028C110.355 146.889 113.716 146.319 117.681 146.319C123.901 146.319 128.595 147.664 131.763 150.353C134.953 153.019 136.548 156.744 136.548 161.529H123.628C123.628 160.413 123.184 159.456 122.295 158.658C121.406 157.861 119.811 157.462 117.51 157.462C115.413 157.462 113.989 157.735 113.237 158.282C112.508 158.829 112.144 159.535 112.144 160.401C112.144 161.131 112.44 161.769 113.032 162.315C113.625 162.862 114.582 163.364 115.903 163.819C117.225 164.275 119.059 164.754 121.406 165.255C126.738 166.394 130.84 168.194 133.711 170.655C136.582 173.093 138.018 176.42 138.018 180.636C138.018 183.757 137.174 186.412 135.488 188.6C133.825 190.787 131.501 192.439 128.516 193.556C125.531 194.672 122.09 195.23 118.193 195.23ZM143.896 147.516H155.244L168.335 166.007L181.699 147.516H192.91L192.91 194H180.059L180.059 167.989L169.907 182.687H166.763L156.782 167.853L156.782 194H143.896L143.896 147.516Z" fill="#DCDCDC"/>
<path d="M4.10156 269.516H15.4492L28.54 288.007L41.9043 269.516H53.1152L53.1152 316H40.2637V289.989L30.1123 304.687H26.9678L16.9873 289.853L16.9873 316H4.10156L4.10156 269.516ZM61.3184 269.516H94.8828L94.8828 280.897H74.2041V287.084H91.8408V297.782H74.2041V304.584H95.1904V316H61.3184L61.3184 269.516ZM121.782 269.516C125.132 269.516 128.117 270.199 130.737 271.566C133.358 272.911 135.409 274.802 136.89 277.24C138.371 279.678 139.111 282.47 139.111 285.614C139.111 288.622 138.382 291.322 136.924 293.715C135.465 296.085 133.46 297.93 130.908 299.252L140.273 316H125.542L118.296 301.269H115.972H113.989V316H101.104L101.104 269.516H121.782ZM121.201 290.536C122.113 290.536 122.956 290.331 123.73 289.921C124.505 289.488 125.109 288.896 125.542 288.144C125.998 287.392 126.226 286.549 126.226 285.614C126.226 284.84 125.998 284.088 125.542 283.358C125.086 282.629 124.471 282.048 123.696 281.615C122.944 281.16 122.124 280.932 121.235 280.932H113.989V290.536H121.201ZM167.07 317.128C162.536 317.128 158.343 316.034 154.492 313.847C150.664 311.659 147.622 308.697 145.366 304.96C143.11 301.2 141.982 297.11 141.982 292.689C141.982 288.246 143.11 284.167 145.366 280.453C147.622 276.716 150.664 273.765 154.492 271.601C158.343 269.413 162.536 268.319 167.07 268.319C170.557 268.319 173.986 269.049 177.358 270.507C180.731 271.965 183.636 274.244 186.074 277.343C188.512 280.419 190.028 284.247 190.62 288.827H177.495C176.812 285.751 175.524 283.529 173.633 282.162C171.742 280.772 169.429 280.077 166.694 280.077C164.53 280.077 162.547 280.578 160.747 281.581C158.947 282.561 157.511 284.008 156.44 285.922C155.369 287.813 154.834 290.08 154.834 292.724C154.834 295.458 155.358 297.771 156.406 299.662C157.477 301.553 158.913 302.978 160.713 303.935C162.513 304.892 164.507 305.37 166.694 305.37C169.429 305.37 171.742 304.687 173.633 303.319C175.524 301.929 176.789 299.696 177.427 296.62H190.586C190.016 301.2 188.524 305.04 186.108 308.139C183.693 311.215 180.788 313.482 177.393 314.94C174.02 316.399 170.579 317.128 167.07 317.128ZM196.123 269.516H209.009V286.64H226.475V269.516H239.395L239.395 316H226.475L226.475 298.021H209.009L209.009 316H196.123L196.123 269.516Z" fill="#DCDCDC"/>
<path d="M4.10156 391.516H37.666V402.897H16.9873V409.084H34.624L34.624 419.782H16.9873L16.9873 426.584H37.9736V438H4.10156L4.10156 391.516ZM39.9561 391.481H53.5596L64.668 421.047H64.8389L75.9814 391.481H89.585L70.5127 438H58.9941L39.9561 391.481ZM93.8574 391.516H127.422L127.422 402.897H106.743V409.084H124.38V419.782H106.743V426.584H127.729V438H93.8574L93.8574 391.516ZM133.643 391.516H144.956L164.336 417.116V391.516H177.188L177.188 438H166.011L146.528 412.297L146.528 438H133.643L133.643 391.516ZM194.653 402.932H182.383V391.516H219.707V402.932H207.471L207.471 438H194.653L194.653 402.932Z" fill="#DCDCDC"/>
</svg>
